<svg viewBox="0 0 900 900" xmlns="http://www.w3.org/2000/svg"><g fill="#e3e3e5"><path d="M313.61 73.57c51.07-25.62 109.63-35.77 166.37-29.42 42.88 4.62 84.68 18.79 121.58 41.11 37.88 22.62 70.42 53.82 95.3 90.21 48.97 6.72 97.65 15.44 146.01 25.61 1.97.37 2.65 2.45 3.73 3.88-32.47 49.81-64.47 99.92-96.27 150.16-.56 30.24-5.75 60.35-14.97 89.15 11.73 3.54 23.36 7.44 34.98 11.38.61 1.37 1.37 2.77 1.2 4.35-.04 81.38.01 162.76-.02 244.13.4 2.53-1.58 4.22-3.64 5.18-32.31-10.41-64.4-21.55-97.07-30.83-.07 31.53.05 63.07-.06 94.6.12 3.62-4.18 4.35-6.8 3.02-43.72-13.46-88.46-23.94-133.99-28.85-26.84 45.15-53.49 90.42-79.9 135.83-.78 1.7-2.33 2.72-3.96 3.51-1.03-.51-2.06-1.01-3.07-1.5-26.04-45.65-52.55-91.02-79.05-136.4-20.9 2.63-41.65 6.43-62.18 11.12-20.86 4.53-41.29 10.78-61.78 16.7-2.23.89-4.25-.37-5.47-2.19.13-35.35.13-70.7 0-106.04-38.32 9.72-75.91 22.04-113.78 33.31-1.51.4-2.75-1.01-4.05-1.51-.77-4.32-.38-8.72-.46-13.07-.03-78.29.02-156.59.12-234.88-.35-2.8 2.3-4.29 4.64-4.77 11.63-3.43 23.16-7.22 34.88-10.34-7.84-28-12.55-56.95-12.66-86.08-27.46-43.91-55.07-87.74-82.99-131.36-4.9-7.89-10.18-15.55-14.81-23.6.96-1.84 2.05-3.98 4.44-4.03 36.49-6.59 73.06-12.88 109.86-17.58-3.24-22.2-.43-45.16 7.31-66.18 3.44-7.5 8.35-14.24 13.34-20.77 14.46-18.68 33.88-34.19 56.74-41.03 17.04-5.05 36.34-6.37 52.7 1.66 10.8 5.19 18.72 14.85 23.78 25.52m98.35-20.09c-36.59 4.26-72.27 15.8-104.58 33.47-3.72-11.83-11.38-22.92-22.75-28.45-14.28-6.99-31.25-6.28-46.16-1.78-23.82 9.18-43.54 26.96-58.19 47.57-2.92 3.66-3.95 8.29-5.22 12.69-5.98 21.06-7.83 43.42-4.36 65.09-37.66 4.66-75.12 10.84-112.45 17.59 31.28 48.85 62.26 97.9 93.01 147.09 1.37 1.8 1.06 4.12 1.16 6.24.24 30.59 5.54 61.07 15.07 90.12-14.1 3.81-28.07 8.07-42.03 12.37.09 78.42-.14 156.84-.08 235.26 39.27-11.67 78.21-24.74 118.19-33.84-.06 36.35 0 72.69-.03 109.04 13.78-3.78 27.42-8.07 41.31-11.43 26.73-6.79 53.89-11.82 81.23-15.35 1.4-.28 3.01-.35 3.5 1.31 25.7 43.72 51.15 87.58 76.42 131.55 26.2-44.91 52.6-89.69 79.13-134.4 46.41 4.51 92.08 14.87 136.66 28.35.02-33.16 0-66.33.02-99.49 33.9 9.22 67.09 20.83 100.58 31.4-.07-78.44.07-156.87.08-235.31-12.83-4.46-25.8-8.49-38.78-12.49 11.04-30.43 16.88-62.7 17.55-95.05-.3-3.22 2.1-5.63 3.61-8.21 22.33-35.23 44.77-70.39 67.38-105.44 6.95-11.06 14.43-21.81 21.07-33.06-46.16-9.48-92.58-17.75-139.29-24.06-2.73.25-3.78-2.46-5.1-4.27-31.02-45.61-75-82.34-125.59-104.37-47.26-20.79-100.14-28.26-151.36-22.14Z"/><path d="M217.83 98.25c7.5-6.55 15.71-12.34 24.69-16.7-3.24 18.72-1.12 38.25 6.09 55.83 2.54 6.48 5.77 12.65 9.16 18.72-11.22 7.2-21.22 16.29-29.34 26.87-3.51-4.53-4.72-10.28-6.16-15.7 6.34-7.64 14.04-14.1 22.75-18.88-9.17 1.9-17.25 6.88-24.51 12.6-2.29-7.05-3.38-14.43-3.92-21.81 5.07-5.22 10.55-10.1 16.74-13.96.88-.67 2.26-1.11 2.31-2.41-1.36 1.39-3.39 1.45-5.1 2.12-5.39 1.78-9.95 5.28-14.53 8.53-.23-6.24 0-12.49-.31-18.73l-.03-.6c4.53-5.35 9.05-11 15.11-14.68 1.1-.46 1.05-1.8-.31-1-4.72 2.86-9.39 5.81-13.72 9.24.2-3.17.53-6.32 1.08-9.44ZM365.07 91.89c12.57-3.9 25.79-5.75 38.95-5.47 14.3 1.53 28.72 4.58 41.6 11.19-5.21.79-10.37-.73-15.58-.62-12.26-.56-24.36 2.01-36 5.64-4.94-1.76-9.97-3.3-15.09-4.45 3.67 1.87 7.31 3.81 10.75 6.07-5.06 2.81-10.41 5.09-15.34 8.14-5.69 3.34-10.97 7.33-16.28 11.23-6.17-2.29-12.44-4.3-18.8-5.96 5.03 2.78 10.09 5.53 14.88 8.72-7.77 8.3-16.39 15.83-23.33 24.9a325.31 325.31 0 0 0-17.92-7.09c4.89 3.65 9.94 7.09 14.7 10.92-4.34 5.89-8.35 12.01-12.56 17.98-.45-.23-1.34-.68-1.78-.91-7.5-5.15-15.19-10.01-22.89-14.85 8.1-13.49 17.3-26.44 28.65-37.39 12.92-12.72 28.7-22.64 46.04-28.05ZM377.52 478.61c12.11 0 24.23-.24 36.34-.21.05 7.79.02 15.58.02 23.37-2.3.09-4.58.2-6.86.38.24 9.12.03 18.24.13 27.36 6.4-5.01 15.12-7.81 18.93-15.49.35-4.06.04-8.13.11-12.19-2.18 0-4.35.01-6.51.04-.17-7.82-.02-15.64-.09-23.45 11.42-.27 22.85-.06 34.28-.12.01 7.83.03 15.65-.01 23.48-2.26 0-4.51 0-6.76.01 0 6.08.08 12.16.01 18.24.21 1.94-1.25 3.39-2.3 4.82a333.05 333.05 0 0 0-6.21 7.83c2.43 3.16 5.06 6.16 7.44 9.36 1.36 1.65.95 3.95 1.08 5.95-.08 12.1-.08 24.19-.22 36.29 2.32.04 4.65.1 6.97.16.02 7.81.03 15.63 0 23.45-11.48-.25-22.96.03-34.44.14.06-7.82-.03-15.65.05-23.47 2.28-.04 4.57-.07 6.86-.13-.09-10.87.14-21.75-.1-32.61-1.1-2.11-2.76-3.85-4.19-5.72-5.03 3.19-10.01 6.47-14.96 9.79.09 9.62-.45 19.24-.22 28.86l6.95-.03c-.05 7.84.06 15.68-.06 23.52-12.15.15-24.27.82-36.39 1.49-.16-7.93-.03-15.86-.07-23.79 3-.16 6.01-.32 9.01-.52 0-27.69.14-55.39.13-83.08-2.97-.03-5.95.02-8.91.07-.03-7.93-.03-15.87-.01-23.8ZM321.39 479.67c11.44-.43 22.91-.48 34.36-.55 4.29 5.7 8.88 11.18 13.01 16.98.86 7.31.09 14.81.38 22.2-6.89.34-13.79.49-20.69.59.04-3.64.04-7.28.04-10.92-1.18-1.54-2.36-3.07-3.52-4.61-4.34.07-8.67.23-13.01.41-1.25 1.71-2.69 3.33-3.62 5.26-.37 5.49-.06 11.02-.13 16.53 13.12 8.39 26.09 17.03 39.22 25.39.04 13.36.04 26.72.02 40.09.11 1.95-1.55 3.34-2.51 4.88-3.95 5-7.38 10.43-11.49 15.29-11.35 1.02-22.72 2.05-34.07 3.15-5.1-4.93-9.12-10.94-13.77-16.32.02-7.79 0-15.57.01-23.36 6.9-.61 13.78-1.35 20.7-1.67.02 3-.05 6-.01 9.01-.4 2.86 2.14 4.71 3.61 6.82 4.29-.34 8.59-.7 12.87-1.16 1.58-2.37 4.32-4.47 3.92-7.63.04-4.38-.07-8.76.04-13.14-13.09-8.48-26.31-16.78-39.39-25.3-.09-13.87.17-27.73.08-41.59-.3-2.89 2.24-4.83 3.66-7.04 3.52-4.35 6.38-9.34 10.29-13.31ZM463.79 494.94c4.26-5.53 8.66-10.97 13.01-16.44 11.47.04 22.94.2 34.41.23 4.6 6.07 9.85 11.77 13.8 18.25.3 32.03.1 64.09.25 96.13-4.51 5.57-9.1 11.08-13.61 16.66-11.59-.4-23.17-1.24-34.77-1.45-4.62-5.78-9.04-11.72-13.68-17.49-.11-29.6.04-59.2-.03-88.8.21-2.33-.56-4.98.62-7.09m23.85 7.41c-1.35 2.11-3.78 3.91-3.78 6.62-.19 23.7.41 47.4.26 71.11 1.08 1.5 2.09 3.07 3.36 4.44 4.39.78 8.91.47 13.35.68 1.48-2.26 3.99-4.3 3.55-7.28-.04-22.97-.11-45.95-.09-68.92.22-2.72-2.18-4.52-3.6-6.54-4.35-.06-8.7-.17-13.05-.11ZM534.58 478.87c13.16.51 26.34.42 39.51.78-.35 8.16.28 16.33.06 24.5l-3.63-.08c5.04 13.13 9.83 26.36 15.04 39.42.14-12.94-.16-25.88-.09-38.82-1.87-.12-3.72-.23-5.58-.35.11-8.19-.05-16.37-.05-24.55 11.18.2 22.35.54 33.53.83-.14 8.43.25 16.85.01 25.28-2.94-.16-5.88-.3-8.81-.43-.01 29.48.2 58.96.16 88.45 2.97.35 5.94.73 8.91 1.21.06 8.43.15 16.88.02 25.32-12.97-1.99-25.99-3.65-39.02-5.12-.04-8.2-.03-16.39-.02-24.58 1.54.06 3.08.11 4.63.17-5.49-15.14-10.61-30.43-16.31-45.49-.16 14.74-.21 29.5.08 44.25 1.58.1 3.18.2 4.77.31.42 8.18.34 16.37.33 24.56-11.12-1.13-22.24-2.19-33.37-3.1.02-8 .06-16-.07-24 2.99.2 5.99.36 9 .49-.06-28.23.01-56.46-.18-84.68l-8.83-.18c-.22-8.07-.17-16.13-.09-24.19ZM254.62 481.16c8.2-.6 16.43-.39 24.64-.79 4.9 37.37 9.87 74.72 14.74 112.09 2.96-.28 5.92-.63 8.88-.91-.1 8.17.22 16.36-.09 24.53-10.69 1.88-21.73 2.77-32.49 4.73-.3-8.5-.03-16.99-.11-25.48 1.67-.21 3.34-.43 5.01-.62-.24-4.05-.54-8.1-.89-12.14-4.96.66-9.94 1.21-14.91 1.83-.49 4.12-.9 8.26-1.23 12.41 1.73-.17 3.47-.34 5.22-.48-.12 8.48-.07 16.96-.17 25.45-11.03 1.77-22.06 3.6-33.05 5.63-.06-8.82.01-17.63.09-26.44 2.91-.44 5.83-.87 8.75-1.32 5.27-39.49 10.35-79 15.61-118.49m7.77 77.25c3.01-.29 6.02-.56 9.03-.81-1.48-12.83-2.82-25.67-4.43-38.48-1.68 13.07-2.99 26.2-4.6 39.29ZM621.75 480.76c12.81.35 25.62.76 38.44 1.15.02 8.83-.02 17.65.11 26.48-2.98-.16-5.95-.29-8.93-.36.05 30.75.13 61.51.22 92.27 2.96.47 5.91.96 8.87 1.45-.01 8.84.03 17.69-.02 26.54-12.71-2.54-25.52-4.54-38.31-6.65 0-8.48.02-16.95-.08-25.43 2.94.28 5.87.63 8.81 1.04-.03-30.16-.14-60.33-.11-90.49-2.94-.18-5.9-.15-8.81-.6-.3-8.46-.16-16.94-.19-25.4ZM156.86 484.73c19.06-.94 38.12-1.7 57.19-2.42 4.39 6.28 8.81 12.55 13.37 18.71.02 12.99.13 25.99-.04 38.98-1.98 4.94-5.84 9-8.37 13.72 2.8 3.7 5.58 7.42 8.38 11.12.06 13.4-.19 26.8-.06 40.2-.07 1.82.23 3.84-.92 5.42-4.06 6.62-8.27 13.16-12.22 19.85-19.19 4-38.33 8.22-57.33 13.03.07-9.45-.22-18.91.16-28.36 2.93-.52 5.84-1.15 8.75-1.77-.06-33.18.09-66.36.07-99.54-2.99.28-5.98.54-8.97.73-.01-9.89 0-19.78-.01-29.67m29.54 27.46c.06 14.07-.06 28.14.05 42.21 4.57-3.39 8.51-7.51 12.94-11.07 3.15-2.43 5.3-5.91 7.06-9.42.38-5.57.31-11.22.04-16.79-1.17-2.17-2.6-4.29-4.44-5.93-5.23.01-10.45.56-15.65 1m16 58.9c-5.35 4.81-10.59 9.75-15.94 14.56-.1 7.78-.02 15.57-.05 23.35 5.25-.78 10.45-1.85 15.68-2.75 1.5-2.48 3.37-4.77 4.51-7.44.23-7.24.21-14.52.01-21.76-.96-2.25-2.78-4.01-4.21-5.96ZM687.54 483.04c8.21.06 16.41.53 24.62.79 5.23 43.43 10.06 86.92 15.22 130.36 2.94.58 5.88 1.22 8.82 1.85.04 9.65.04 19.3.01 28.95-10.89-2.53-21.71-5.37-32.63-7.77-.01-9.3-.02-18.59-.01-27.88 1.66.32 3.33.66 5.01 1.01-.25-4.59-.66-9.17-1.03-13.75-4.98-.82-9.92-1.82-14.91-2.51-.29 4.34-.81 8.67-1 13.02 1.69.32 3.39.62 5.1.96-.04 9.2.04 18.4-.05 27.6-10.97-2.4-21.95-4.69-32.98-6.8 0-8.87-.04-17.74-.09-26.6 2.96.45 5.92.92 8.88 1.4 5.15-40.19 10.13-80.41 15.04-120.63m8.08 83.91c3.01.37 6 .8 9 1.27-1.58-14.36-2.89-28.75-4.6-43.09-1.59 13.92-2.88 27.88-4.4 41.82Z"/></g><g fill="#aa182d"><path d="M411.96 53.48c51.22-6.12 104.1 1.35 151.36 22.14 50.59 22.03 94.57 58.76 125.59 104.37 1.32 1.81 2.37 4.52 5.1 4.27 46.71 6.31 93.13 14.58 139.29 24.06-6.64 11.25-14.12 22-21.07 33.06-22.61 35.05-45.05 70.21-67.38 105.44-1.51 2.58-3.91 4.99-3.61 8.21-.67 32.35-6.51 64.62-17.55 95.05 12.98 4 25.95 8.03 38.78 12.49-.01 78.44-.15 156.87-.08 235.31-33.49-10.57-66.68-22.18-100.58-31.4-.02 33.16 0 66.33-.02 99.49-44.58-13.48-90.25-23.84-136.66-28.35-26.53 44.71-52.93 89.49-79.13 134.4-25.27-43.97-50.72-87.83-76.42-131.55-.49-1.66-2.1-1.59-3.5-1.31-27.34 3.53-54.5 8.56-81.23 15.35-13.89 3.36-27.53 7.65-41.31 11.43.03-36.35-.03-72.69.03-109.04-39.98 9.1-78.92 22.17-118.19 33.84-.06-78.42.17-156.84.08-235.26 13.96-4.3 27.93-8.56 42.03-12.37-9.53-29.05-14.83-59.53-15.07-90.12-.1-2.12.21-4.44-1.16-6.24-30.75-49.19-61.73-98.24-93.01-147.09 37.33-6.75 74.79-12.93 112.45-17.59-3.47-21.67-1.62-44.03 4.36-65.09 1.27-4.4 2.3-9.03 5.22-12.69 14.65-20.61 34.37-38.39 58.19-47.57 14.91-4.5 31.88-5.21 46.16 1.78 11.37 5.53 19.03 16.62 22.75 28.45 32.31-17.67 67.99-29.21 104.58-33.47m-67.4 30.83c-16.05 6.23-31.26 14.41-46 23.28-2.42-8.75-5.81-17.44-11.81-24.41-8.11-9.8-20.92-15.82-33.72-14.72-5.44.31-10.36 2.85-15.2 5.13-13.31 6.75-25.51 15.69-36.08 26.22-4.5 4.69-9.28 9.49-11.41 15.8-9.65 24.81-9.5 52.21-6.1 78.26-34.63 4.17-69.13 9.39-103.48 15.44 2.37 5.05 5.84 9.47 8.68 14.25 22.17 34.78 44.15 69.68 66.06 104.62 1.17-3.7 1.55-7.58 2.3-11.38 3.59-18.39 9.11-36.45 16.79-53.56 2.01.08 3.88 2.32 2.94 4.32-12.01 40.66-14.95 83.99-8.25 125.86 2.99 20.15 8.7 39.78 15.69 58.88-15.52 4.08-31.03 8.29-46.26 13.32.18 68.97 0 137.94.08 206.91 39.1-11.65 78-24.25 118.02-32.44.15 35.97 0 71.94.08 107.91 38.98-10.91 78.75-19.3 119.05-23.46 23.42 40.17 46.9 80.3 70.11 120.59 21-35.38 41.65-70.97 62.8-106.25 1.25-1.98 2.31-4.07 3.23-6.22-22.21-5.16-44.68-9.15-67.28-12.19 68.7-1.21 137.46 8.63 203.47 27.56.16-32.97.01-65.95.08-98.92 34.01 8.25 67.13 19.68 100.49 30.14.01-69.04.06-138.09-.03-207.13-14.18-4.69-28.43-9.15-42.79-13.25 2.3-6.29 4.9-12.46 6.96-18.83 14.35-42.52 18.43-88.46 11.81-132.85-3.04-21.63-8.99-42.75-16.53-63.23 15.57 27.39 25.04 57.98 29.21 89.13 3.06-4.2 5.63-8.73 8.48-13.07 21.64-34.19 43.63-68.16 65.41-102.26-41.78-8.72-83.98-15.39-126.26-21.23-1.77-.19-2.38-2.15-3.36-3.35-38.72-60.05-101.01-104.59-170.69-120.84-54.98-13.1-113.96-8.95-166.49 11.97Z"/><path d="M418.85 74.73c13.11-3.14 26.84-4.5 40.25-2.83 36.7 8.08 70.62 26.63 99.27 50.7 18.93 15.97 35.48 34.69 49.42 55.14-22.84.38-45.51-4.71-66.83-12.66-18.97-7.77-38.09-15.29-57.79-21.02 1.01-13.24-1.29-27.17-8.91-38.28-8.84-13.36-23.45-21.69-38.39-26.54-5.53-2.03-11.38-2.9-17.02-4.51ZM390.19 172.27c5.82-5.49 11.55-11.13 18.06-15.8-.02 16.77-4.97 33.57-14.95 47.14-7.39-4.05-15.9-5.18-24.21-5.36 5.63-9.68 13.32-18 21.1-25.98ZM491.09 157.05c3.06.86 6.09 1.81 9.06 2.97-1.91.27-3.83.44-5.74.63-1.1-1.21-2.21-2.41-3.32-3.6ZM517.07 192.75c7.73-5.68 17.44-9.34 22.96-17.54 24.03 7.27 48.98 14.59 74.35 12.01 6.35 9.9 12.25 20.08 18.35 30.13-30.71 7.07-60.8 16.72-90.08 28.35-8.64-17.6-15.81-35.92-25.58-52.95ZM360.97 220.04c7.89-4.77 17.65-5.36 26.48-3.26.36 1.5.74 3 1.13 4.51-8.88-2-17.92 1.29-25.46 5.84-5.1 3.3-10.25 7.58-11.84 13.72 1.96-1.22 3.81-2.63 5.86-3.71 1.43.21 2.55 1.24 3.76 1.94 7.64 5.18 16.55 7.98 25.37 10.35-8.7 3.18-18 .51-26.62-1.58 6.75 18.67 5.24 39.27-.61 57.96-12.81.38-25.14 6.01-34.19 15-15.55 14.92-24.41 37.86-19.39 59.24-4.07 7.64-8.51 15.12-14.11 21.74-13.93-1.4-28.45-.77-41.52 4.66-7.76-5.57-14.51-12.41-20.97-19.41 4.65 1.03 8.74 3.6 13.25 5.03-1.21-4.27-3.37-8.48-7.05-11.12-3.64-2.61-8.26-2.92-12.44-4.17-.5-5.04-1.57-10.03-1.57-15.11.3.4.91 1.2 1.21 1.6 2.45-13.53 6.24-26.89 12.18-39.32 6.21 13.05 11.44 26.6 18.46 39.24.17-9.6-1.55-19.19-.53-28.79 3.29-11.92 7.01-23.88 13.54-34.49 2.48-3.77 4.45-8.09 7.94-11.04 5.58-2.6 11.63-4.02 17.58-5.51 3.87-6.31 7.32-12.87 10.27-19.66 1.53-4.28 6.31-5.58 9.86-7.68-.23-2.79-.5-5.59-1-8.34 3.74 2.75 7.58 6.41 8.24 11.22-3.07 3.62-7.04 6.58-8.83 11.16 5.66-1.33 11.13-3.52 16.96-4.03 5.54-.69 11.08.14 16.57.87.78-6.3 2.77-12.32 4.57-18.38-2.65-.18-5.3-.37-7.94-.55 3.81-11.1 10.56-21.82 20.84-27.93m-43.84 55.99c-10.19 4.53-18.52 12.11-27.53 18.51-3.21 2.37-6.84 4.09-10.03 6.48 7.63 1.25 15.8 1.52 23.06-1.53 9.98-3.95 17-13.03 27.32-16.33 6.69-2.57 13.96-1.82 20.94-1.44-3.08-2.16-6.13-4.4-9.56-5.98-7.57-3.58-16.67-3.17-24.2.29m-49.11 93.08c-5.06 4.11-11.76 7.12-14.12 13.68-1.78 3.68-1.37 7.95.96 11.28 3.22-9.06 13.89-11.84 17.83-20.35 2.06-3.97 2.05-8.55 1.99-12.9-1.89 3.01-3.81 6.09-6.66 8.29ZM604.02 234.65c11.12-2.84 22.23-6.02 33.63-7.47 5.06 10.79 10.91 21.32 14.53 32.72-12.14 4.5-21.11 14.59-28.16 25.07-9.39 14.02-14.56 30.23-22.11 45.23-24.95-20.02-41.22-48.33-55.49-76.43 18.85-7.35 38.1-13.69 57.6-19.12Z"/><path d="M444.44 254.51c7.52-7.85 15.19-15.58 23.18-22.97 3.19 8.02 3.23 16.88 2.15 25.33-2.35 14.73-10.02 28.11-19.6 39.34-4.25 5.05-10 8.88-13.09 14.86-5.23 9.98-7.81 21.4-6.99 32.67 6.81-1.28 14.21-2.71 20.77.38 5.77 2.39 8.59 8.28 12.15 12.98-15.59-4.01-31.1 1.96-46.57 3.41-.11-12.64 1.16-25.35 4.69-37.51 1.15-4.1 2.87-8.02 3.9-12.15-6.76 6-10.41 14.4-15.17 21.87-3.16-12.41-1.72-25.6 2.09-37.69 1.21-3.95 2.9-7.73 3.9-11.74-12.14 9.04-19.99 22.41-26.09 35.99-2.76-9.94-7.78-19.08-14.38-26.99 2.17-9.76 2.11-19.79 2.09-29.73 14.5 2.55 30.49.9 42.56-8.15 6.92 5.16 17.82 6.45 24.41.1ZM214.43 272.47c6.02-2.61 12.1-5.96 18.9-5.38a48.014 48.014 0 0 1-4.34 6.34 21.774 21.774 0 0 0-8.09 8.64c-2.21-3.16-4.49-6.29-6.47-9.6ZM645.46 274.54c3.08-2.52 6.69-4.37 10.61-5.18 8.76 21.56 13.87 44.46 16.71 67.52.64 4.42 1.08 8.89.85 13.37-2.19-7.64-4.92-15.31-9.65-21.78-.99 8.01-2.43 16.48-7.7 22.9-4.54 5.69-12.03 8.09-19.1 8.09-8.45-8.17-17.78-15.34-27.11-22.45 4.69-10.44 7.83-21.52 13.19-31.67 5.7-11.31 12.3-22.63 22.2-30.8ZM529.31 338.69c.66 4.66.14 9.6 2.06 14.01 7.99 16.88 16.4 33.95 28.93 48 5.69 6.56 13.76 10.21 20.41 15.63 14.7 11.18 28.02 24.53 37.55 40.45 3.54 5.85 5.67 12.54 10.02 17.9 1.22 1.43 2.63 3.12 4.7 3.14 8.93.74 17.92.19 26.86.69 1.88-.09 3.21 1.71 3.29 3.46.6 4.9-.34 9.87.37 14.77 5.57 3.17 12.08 4.48 18.22 6.25 1.12-5.9 1.67-11.88 2.38-17.84.44-1.73.04-4.27 2.12-4.97 1.49-.7 3.21-.3 4.82-.31 6.67.53 13.36.54 20.05.81 1.29.09 3.08.11 3.68 1.55 1.1 3.27 1.04 6.79 1.55 10.18 4.73 39.72 9.2 79.48 13.85 119.2 2.7.57 5.52.88 8.06 2.06 1.39 1.38.95 3.49 1.1 5.26-.14 8.7.12 17.41-.1 26.1.11 2.14-2.2 3.71-4.17 2.93-10.16-2.47-20.3-5.07-30.51-7.33-1.87-.4-4.29-1.27-4.01-3.65-.31-8.33 0-16.67-.16-25.01.15-1.76-.34-4.03 1.45-5.12 1.12-.34 2.27-.6 3.45-.78-.21-2.26-.43-4.5-.63-6.75-3.04-.6-6.09-1.15-9.14-1.68-.17 2.22-.31 4.45-.43 6.68 1.4.52 2.86.98 4.18 1.76.86 3.54.34 7.24.46 10.86-.16 6.7.3 13.43-.21 20.11-.9 2.11-3.33 1.66-5.12 1.35-23.64-5.37-47.5-9.7-71.44-13.47-1.3-.31-3.32-.43-3.59-2.08-.65-5.59 0-11.25-.3-16.86.13-4.01-1.16-8.43.78-12.15 2.4-1.36 5.3-.26 7.9-.17-.08-28.01.04-56.03-.25-84.04-2.83-.44-7.52 1.04-8.66-2.6-.42-6.39.05-12.81-.29-19.2-.05-1.54-1.23-2.72-1.9-4.01-.51 7.72.41 15.49-.27 23.2-1.58 3.18-5.91 1.36-8.71 1.79.04 26.05.16 52.11.16 78.16.05 1.46.19 2.92.36 4.39 2.86.5 8.36-.52 8.51 3.68.21 8.34.13 16.69.08 25.04.26 2.02-1.68 3.94-3.72 3.34-12.82-2-25.74-3.38-38.6-5.11-1.72-.07-3.15-1.65-2.88-3.38.12-8.65.09-17.29.1-25.94 1-.6 2.02-1.21 3.03-1.8-2.87-7.6-5.31-15.37-8.28-22.94-1.09 7.36-.44 14.88-.34 22.3 1.45.37 2.91.75 4.38 1.13 1.58 5.28.65 10.85.9 16.28-.16 3.94.47 8.02-.52 11.88-.73 2.04-3.12 1.77-4.84 1.63-11.09-1.16-22.19-2.13-33.29-3.19-.65-1.69-1.19-3.45-1.1-5.27.01-6.36.09-12.71-.04-19.06.03-1.77-.2-3.86 1.32-5.13 2.47-.75 5.13-.17 7.67-.17-.14-26.11.14-52.24-.34-78.35-2.8-.29-6.76.85-8.52-2-.62-8.37-.26-16.82-.27-25.22-.29-3.04 3.32-3.45 5.55-3.27 11.67.4 23.35.51 35.03.69 1.72-.06 3.34.55 4.94 1.12 1.63-.45 3.26-.96 4.98-.9 10.33.03 20.64.66 30.96.7-7.47-14.69-16.25-29.52-29.93-39.25 4.39 7.36 8.71 14.95 10.52 23.42-13.78-7.75-29.18-12.58-41.95-22.09-7.88-5.87-14.68-13.45-18.74-22.46 10.45 8.2 23.6 12.34 36.79 12.84-18.35-13.2-31.12-32.61-40.21-53.01-1.01-2.15-.66-4.56-.54-6.84.87-10.43.4-20.89.48-31.34m5.27 140.18c-.08 8.06-.13 16.12.09 24.19l8.83.18c.19 28.22.12 56.45.18 84.68-3.01-.13-6.01-.29-9-.49.13 8 .09 16 .07 24 11.13.91 22.25 1.97 33.37 3.1.01-8.19.09-16.38-.33-24.56-1.59-.11-3.19-.21-4.77-.31-.29-14.75-.24-29.51-.08-44.25 5.7 15.06 10.82 30.35 16.31 45.49-1.55-.06-3.09-.11-4.63-.17-.01 8.19-.02 16.38.02 24.58 13.03 1.47 26.05 3.13 39.02 5.12.13-8.44.04-16.89-.02-25.32-2.97-.48-5.94-.86-8.91-1.21.04-29.49-.17-58.97-.16-88.45 2.93.13 5.87.27 8.81.43.24-8.43-.15-16.85-.01-25.28-11.18-.29-22.35-.63-33.53-.83 0 8.18.16 16.36.05 24.55 1.86.12 3.71.23 5.58.35-.07 12.94.23 25.88.09 38.82-5.21-13.06-10-26.29-15.04-39.42l3.63.08c.22-8.17-.41-16.34-.06-24.5-13.17-.36-26.35-.27-39.51-.78m87.17 1.89c.03 8.46-.11 16.94.19 25.4 2.91.45 5.87.42 8.81.6-.03 30.16.08 60.33.11 90.49-2.94-.41-5.87-.76-8.81-1.04.1 8.48.08 16.95.08 25.43 12.79 2.11 25.6 4.11 38.31 6.65.05-8.85.01-17.7.02-26.54-2.96-.49-5.91-.98-8.87-1.45-.09-30.76-.17-61.52-.22-92.27 2.98.07 5.95.2 8.93.36-.13-8.83-.09-17.65-.11-26.48-12.82-.39-25.63-.8-38.44-1.15m65.79 2.28c-4.91 40.22-9.89 80.44-15.04 120.63-2.96-.48-5.92-.95-8.88-1.4.05 8.86.09 17.73.09 26.6 11.03 2.11 22.01 4.4 32.98 6.8.09-9.2.01-18.4.05-27.6-1.71-.34-3.41-.64-5.1-.96.19-4.35.71-8.68 1-13.02 4.99.69 9.93 1.69 14.91 2.51.37 4.58.78 9.16 1.03 13.75-1.68-.35-3.35-.69-5.01-1.01-.01 9.29 0 18.58.01 27.88 10.92 2.4 21.74 5.24 32.63 7.77.03-9.65.03-19.3-.01-28.95-2.94-.63-5.88-1.27-8.82-1.85-5.16-43.44-9.99-86.93-15.22-130.36-8.21-.26-16.41-.73-24.62-.79m-112.55 23.7c2.24 6.53 4.7 12.99 7.34 19.38.16-6.08.09-12.15-.04-18.22-2.41-.49-4.8-1.74-7.3-1.16m79.49 8.83c.09 27.38-.01 54.75.25 82.12 5.04.87 10.06 1.84 15.17 2.2 3.31-26.9 6.87-53.77 9.98-80.69-8.42-1.55-17-1.99-25.4-3.63ZM509.43 361.36c2.73-5.21 4.63-10.84 7.8-15.82-1.41 9.72-5 19-8.58 28.11-7.51 17.71-17.81 34.78-32.69 47.27-4.66 3.56-9.77 7.68-15.99 7.38-8.58-.31-16.72-3.3-24.9-5.6-11.17-3.47-22.45-6.74-34.04-8.53-7.82-1.23-15.77-.87-23.64-.51 1.46-5.87 1.74-12.07-.11-17.9-1.41 4.43-1.82 9.21-4.16 13.31-4.04 7.37-11.36 12.12-16.01 19.05-10.5 13.25-12.1 32.21-6.14 47.74 2.74.05 6.24-.62 7.95 2.14 4.36 5.99 9.51 11.53 13.23 17.94.31 7.01.03 14.05.13 21.08.13 1.78-.49 4.27-2.65 4.38-6.19.44-12.41.27-18.6.68-1.85-.04-4.62.44-5.41-1.77-1.06-4.58 1.34-10.07-2.23-13.85-3.21.15-6.41.19-9.61.17-.8 1.09-1.73 2.12-2.29 3.37-.43 4.56-.06 9.16-.15 13.74 12 8.01 24.15 15.8 36.28 23.63 1.23.95 3.15 1.84 2.89 3.71.07 13.33.01 26.65.03 39.98.32 3.36-2.57 5.64-4.24 8.2-3.9 4.83-7 10.33-11.31 14.79-12.36 1.37-24.8 2.37-37.19 3.56-4.06-4.44-7.59-9.31-11.6-13.77-.21 4.36.26 8.76-.28 13.11-.22 1.85-2.2 2.47-3.78 2.61-9.68 1.21-19.39 2.29-29.01 3.92-1.79.03-4.39.98-5.48-1-1.46-3.95-.68-8.29-.86-12.41.21-5.24-.67-10.61.56-15.76.53-1.96 2.92-1.93 4.46-2.59-.09-1.87-.17-3.72-.26-5.57-3.13.21-6.24.51-9.33 1.04-.2 1.9-.4 3.8-.58 5.71 1.58.47 3.82.25 4.55 2.12.26 8.29-.17 16.61.13 24.91.12 1.79-.06 4.49-2.34 4.75-9.95 1.87-20 3.24-29.94 5.22-2.14.25-4.79 1.26-6.5-.62-.79-4.41-.09-8.94-.52-13.38-3.92 4.95-6.65 10.7-10.22 15.89-.72 1.41-2.33 1.71-3.73 2.02-18.47 3.56-36.77 7.96-55.05 12.38-2.12.96-4.41-.9-4.22-3.13-.12-9.03-.05-18.08-.03-27.11-.42-4.87 5.74-4.15 8.87-5.32-.01-31.14.03-62.27.08-93.41-2.87-.23-7.88 1.76-8.79-2.21-.43-9.65-.08-19.33-.17-28.98-.26-2.1.87-4.62 3.3-4.47 17.66-.77 35.34-1.48 53.01-2.18a5.62 5.62 0 0 0 2.7-1.16c5.42 2.9 8.06 8.62 11.63 13.31 1.67 2.35 3.6 4.55 4.92 7.14 1.13 2.69 1.26 5.67 1.88 8.51-1.38 7.88-.34 15.92-.64 23.87-.3 4.28 1.08 9.12-1.5 12.92-2.09 3.21-4.31 6.34-6.21 9.68 2.86 4.57 8.32 8.35 7.67 14.34-.02 9.97-.18 19.93-.13 29.9 1.99-.38 3.99-.74 5.99-1.12 2.93-24.07 6.42-48.07 9.23-72.15.51-5.21 1.95-10.32 2.03-15.57.09-1.14-.77-1.99-1.29-2.89l1.81.32c.97-7.86 2.1-15.69 3.13-23.54.25-1.49.35-3.1 1.3-4.34 1.96-1 4.25-.82 6.39-.92 6.03-.03 12.06-.21 18.09-.36 1.75.07 4.11-.33 4.99 1.64 1.02 3.91 1.13 7.99 1.75 11.97 4.3 32.69 8.46 65.4 13 98.05 1.89-.2 3.78-.37 5.68-.56.06-4.79-.27-9.58.12-14.35-.05-1.8 2.04-2.42 3.49-2.56 6.29-.66 12.61-1.02 18.9-1.6 1.38-.21 3.13-.07 3.88 1.31 1.95 4.56-1.69 10.89 2.68 14.47 3.33-.34 6.66-.67 9.98-1.06 3.63-4.62 1.53-10.8 2.05-16.17-10.22-6.48-20.42-12.98-30.6-19.52-2.79-1.87-5.83-3.42-8.33-5.69-.41-1.39-.35-2.85-.39-4.26-.01-12.32.19-24.64.07-36.95.04-2.45-.33-5.2 1.47-7.16 4.15-5.53 8.2-11.15 12.41-16.63.9-1.43 2.65-1.59 4.1-2.12 2.44-22.01 3.16-44.22 6.67-66.12 1.34-8.12 3.18-16.21 6.5-23.77 2.03 6.33 9.41 10.62 15.8 7.98 8.96-3.55 17.46-8.15 26-12.59 4.77 4.97 6.58 11.78 8.86 18.08 20.92 1.82 40.09 11.29 60.46 15.61 5.67 1 11.93 2.52 17.37-.2 8.51-4.05 14.8-11.29 21.25-17.94 9.52-10.86 17.57-23 24.2-35.82M321.39 479.67c-3.91 3.97-6.77 8.96-10.29 13.31-1.42 2.21-3.96 4.15-3.66 7.04.09 13.86-.17 27.72-.08 41.59 13.08 8.52 26.3 16.82 39.39 25.3-.11 4.38 0 8.76-.04 13.14.4 3.16-2.34 5.26-3.92 7.63-4.28.46-8.58.82-12.87 1.16-1.47-2.11-4.01-3.96-3.61-6.82-.04-3.01.03-6.01.01-9.01-6.92.32-13.8 1.06-20.7 1.67-.01 7.79.01 15.57-.01 23.36 4.65 5.38 8.67 11.39 13.77 16.32 11.35-1.1 22.72-2.13 34.07-3.15 4.11-4.86 7.54-10.29 11.49-15.29.96-1.54 2.62-2.93 2.51-4.88.02-13.37.02-26.73-.02-40.09-13.13-8.36-26.1-17-39.22-25.39.07-5.51-.24-11.04.13-16.53.93-1.93 2.37-3.55 3.62-5.26 4.34-.18 8.67-.34 13.01-.41 1.16 1.54 2.34 3.07 3.52 4.61 0 3.64 0 7.28-.04 10.92 6.9-.1 13.8-.25 20.69-.59-.29-7.39.48-14.89-.38-22.2-4.13-5.8-8.72-11.28-13.01-16.98-11.45.07-22.92.12-34.36.55m-66.77 1.49c-5.26 39.49-10.34 79-15.61 118.49-2.92.45-5.84.88-8.75 1.32-.08 8.81-.15 17.62-.09 26.44 10.99-2.03 22.02-3.86 33.05-5.63.1-8.49.05-16.97.17-25.45-1.75.14-3.49.31-5.22.48.33-4.15.74-8.29 1.23-12.41 4.97-.62 9.95-1.17 14.91-1.83.35 4.04.65 8.09.89 12.14-1.67.19-3.34.41-5.01.62.08 8.49-.19 16.98.11 25.48 10.76-1.96 21.8-2.85 32.49-4.73.31-8.17-.01-16.36.09-24.53-2.96.28-5.92.63-8.88.91-4.87-37.37-9.84-74.72-14.74-112.09-8.21.4-16.44.19-24.64.79m-97.76 3.57c.01 9.89 0 19.78.01 29.67 2.99-.19 5.98-.45 8.97-.73.02 33.18-.13 66.36-.07 99.54-2.91.62-5.82 1.25-8.75 1.77-.38 9.45-.09 18.91-.16 28.36 19-4.81 38.14-9.03 57.33-13.03 3.95-6.69 8.16-13.23 12.22-19.85 1.15-1.58.85-3.6.92-5.42-.13-13.4.12-26.8.06-40.2-2.8-3.7-5.58-7.42-8.38-11.12 2.53-4.72 6.39-8.78 8.37-13.72.17-12.99.06-25.99.04-38.98-4.56-6.16-8.98-12.43-13.37-18.71-19.07.72-38.13 1.48-57.19 2.42ZM674.59 367.85c.53 4.12.74 8.28.36 12.42-1.52.07-3.04.13-4.55.2 1.92-4.01 3.45-8.22 4.19-12.62ZM668.03 411.28c1.81-1.13 3.64-2.23 5.49-3.3-.58 4.86-.9 9.79-2.15 14.55-1.07-3.77-2.16-7.52-3.34-11.25Z"/><path d="M374.41 478.89c-.29-2.11 1.82-3.51 3.73-3.36 9.62-.12 19.24-.09 28.86-.22 3.29 0 6.71-.35 9.82 1 1.64-.66 3.35-1.17 5.15-1.09 10.02.01 20.05.02 30.08-.01 1.66.04 4.18-.1 4.66 2 .93 4.53.25 9.2.44 13.79-.14 4.18.53 8.52-.68 12.59-1.42 1.86-4.25 1.06-6.29 1.44-.21 5.97.34 11.98-.25 17.94-2.06 3.52-5.07 6.39-7.3 9.82 2.37 3.4 5.89 6.19 7.36 10.13.34 12.74 0 25.5.15 38.25 2.33.37 6.6-.68 6.73 2.86.35 7.32.32 14.66.27 21.99-.25 1.61.03 4.5-2.21 4.64-9.97.46-20-.26-29.97.51-2.74.28-5.42-.34-8.11-.63-6.84 1.47-13.89.82-20.83 1.34-6.58.11-13.16.95-19.74.72-2.87-.83-1.84-4.35-2.09-6.56.31-7.19-.46-14.46.38-21.6 1.78-2.61 5.69-1.56 8.43-1.87.6-25.65.1-51.32.34-76.97-2.88-.43-7.03 1.01-8.77-1.99-.46-8.22-.17-16.49-.16-24.72m3.11-.28c-.02 7.93-.02 15.87.01 23.8 2.96-.05 5.94-.1 8.91-.07.01 27.69-.13 55.39-.13 83.08-3 .2-6.01.36-9.01.52.04 7.93-.09 15.86.07 23.79 12.12-.67 24.24-1.34 36.39-1.49.12-7.84.01-15.68.06-23.52l-6.95.03c-.23-9.62.31-19.24.22-28.86 4.95-3.32 9.93-6.6 14.96-9.79 1.43 1.87 3.09 3.61 4.19 5.72.24 10.86.01 21.74.1 32.61-2.29.06-4.58.09-6.86.13-.08 7.82.01 15.65-.05 23.47 11.48-.11 22.96-.39 34.44-.14.03-7.82.02-15.64 0-23.45-2.32-.06-4.65-.12-6.97-.16.14-12.1.14-24.19.22-36.29-.13-2 .28-4.3-1.08-5.95-2.38-3.2-5.01-6.2-7.44-9.36 2.03-2.64 4.1-5.25 6.21-7.83 1.05-1.43 2.51-2.88 2.3-4.82.07-6.08-.01-12.16-.01-18.24 2.25-.01 4.5-.01 6.76-.01.04-7.83.02-15.65.01-23.48-11.43.06-22.86-.15-34.28.12.07 7.81-.08 15.63.09 23.45 2.16-.03 4.33-.04 6.51-.04-.07 4.06.24 8.13-.11 12.19-3.81 7.68-12.53 10.48-18.93 15.49-.1-9.12.11-18.24-.13-27.36 2.28-.18 4.56-.29 6.86-.38 0-7.79.03-15.58-.02-23.37-12.11-.03-24.23.21-36.34.21m32.65 26.77c.11 6.1-.21 12.21.22 18.3 4.34-3.28 10.2-5.39 12.54-10.67.36-2.54.18-5.12.16-7.66-2.1-.36-4.18-.71-6.26-1.11-2.22.42-4.44.79-6.66 1.14m.29 52.06c-.66 7.97-.23 16.03-.26 24.04 2.24.03 4.46.34 6.61 1.04 1.98-1.07 4.23-1.19 6.44-1.25-.02-9.09.08-18.18-.02-27.26.11-1.57-1.18-2.69-1.87-3.94-3.54 2.61-7.43 4.69-10.9 7.37ZM474.45 476.52c1.08-1.42 3.04-1.01 4.59-1.14 9.96.11 19.92.18 29.89.21 1.72.1 3.89-.17 4.98 1.51 3.79 4.55 7.23 9.38 10.97 13.96 1.52 2.05 3.61 4.13 3.35 6.92.01 31.34.04 62.68.12 94.02.25 2.51-1.76 4.3-3.14 6.14-3.9 4.51-7.45 9.33-11.44 13.75-.88 1.22-2.48.84-3.75.92-10.01-.41-20-1.07-30.02-1.25-2.02-.17-4.57.3-5.84-1.7-4.3-5.4-8.46-10.9-12.72-16.32-1.17-1.24-1.34-2.93-1.29-4.53.04-28.33.01-56.65.02-84.97.22-3.38-.64-7.02.59-10.22 4.47-5.83 9.02-11.63 13.69-17.3m-10.66 18.42c-1.18 2.11-.41 4.76-.62 7.09.07 29.6-.08 59.2.03 88.8 4.64 5.77 9.06 11.71 13.68 17.49 11.6.21 23.18 1.05 34.77 1.45 4.51-5.58 9.1-11.09 13.61-16.66-.15-32.04.05-64.1-.25-96.13-3.95-6.48-9.2-12.18-13.8-18.25-11.47-.03-22.94-.19-34.41-.23-4.35 5.47-8.75 10.91-13.01 16.44Z"/><path d="M487.64 502.35c4.35-.06 8.7.05 13.05.11 1.42 2.02 3.82 3.82 3.6 6.54-.02 22.97.05 45.95.09 68.92.44 2.98-2.07 5.02-3.55 7.28-4.44-.21-8.96.1-13.35-.68-1.27-1.37-2.28-2.94-3.36-4.44.15-23.71-.45-47.41-.26-71.11 0-2.71 2.43-4.51 3.78-6.62m1.59 3.02c-.96 1.4-2.35 2.73-2.12 4.59-.14 20.66.16 41.32.05 61.98.06 3.34-.69 7.13 1.94 9.73 3.3.01 6.59.43 9.89.42 3.06-2.05 2.34-5.95 2.37-9.1-.04-20.66-.17-41.32-.07-61.99.25-2.05-.89-3.78-1.84-5.47-3.41-.01-6.82-.06-10.22-.16ZM186.4 512.19c5.2-.44 10.42-.99 15.65-1 1.84 1.64 3.27 3.76 4.44 5.93.27 5.57.34 11.22-.04 16.79-1.76 3.51-3.91 6.99-7.06 9.42-4.43 3.56-8.37 7.68-12.94 11.07-.11-14.07.01-28.14-.05-42.21m3.22 2.69c-.14 10.86-.26 21.72.06 32.58 4.94-4.35 11.05-8.1 13.6-14.46.46-4.31.17-8.67.21-13 .24-2.3-1.52-3.97-2.64-5.76-3.74.2-7.49.41-11.23.64ZM262.39 558.41c1.61-13.09 2.92-26.22 4.6-39.29 1.61 12.81 2.95 25.65 4.43 38.48-3.01.25-6.02.52-9.03.81m4.39-11.3c-.31 2.59-.51 5.19-.68 7.8.45-.03 1.35-.1 1.8-.13-.21-2.58-.51-5.16-1.12-7.67ZM695.62 566.95c1.52-13.94 2.81-27.9 4.4-41.82 1.71 14.34 3.02 28.73 4.6 43.09-3-.47-5.99-.9-9-1.27m4.25-10.97c-.31 2.65-.53 5.32-.73 7.99.42.23 1.25.69 1.66.92.06-3-.15-6.01-.93-8.91ZM202.4 571.09c1.43 1.95 3.25 3.71 4.21 5.96.2 7.24.22 14.52-.01 21.76-1.14 2.67-3.01 4.96-4.51 7.44-5.23.9-10.43 1.97-15.68 2.75.03-7.78-.05-15.57.05-23.35 5.35-4.81 10.59-9.75 15.94-14.56m-12.83 15.95c-.11 6.12-.06 12.24-.03 18.37 3.59-.68 7.18-1.39 10.77-2.08 1.36-2.28 3.5-4.44 3.27-7.29.01-5.34.01-10.68 0-16.02-.14-1.48.18-3.53-1.64-4.05-4.52 3.21-8.14 7.5-12.37 11.07Z"/></g><g fill="#142036"><path d="M344.56 84.31c52.53-20.92 111.51-25.07 166.49-11.97 69.68 16.25 131.97 60.79 170.69 120.84.98 1.2 1.59 3.16 3.36 3.35 42.28 5.84 84.48 12.51 126.26 21.23-21.78 34.1-43.77 68.07-65.41 102.26-2.85 4.34-5.42 8.87-8.48 13.07-4.17-31.15-13.64-61.74-29.21-89.13 7.54 20.48 13.49 41.6 16.53 63.23 6.62 44.39 2.54 90.33-11.81 132.85-2.06 6.37-4.66 12.54-6.96 18.83 14.36 4.1 28.61 8.56 42.79 13.25.09 69.04.04 138.09.03 207.13-33.36-10.46-66.48-21.89-100.49-30.14-.07 32.97.08 65.95-.08 98.92-66.01-18.93-134.77-28.77-203.47-27.56 22.6 3.04 45.07 7.03 67.28 12.19-.92 2.15-1.98 4.24-3.23 6.22-21.15 35.28-41.8 70.87-62.8 106.25-23.21-40.29-46.69-80.42-70.11-120.59-40.3 4.16-80.07 12.55-119.05 23.46-.08-35.97.07-71.94-.08-107.91-40.02 8.19-78.92 20.79-118.02 32.44-.08-68.97.1-137.94-.08-206.91 15.23-5.03 30.74-9.24 46.26-13.32-6.99-19.1-12.7-38.73-15.69-58.88-6.7-41.87-3.76-85.2 8.25-125.86.94-2-.93-4.24-2.94-4.32-7.68 17.11-13.2 35.17-16.79 53.56-.75 3.8-1.13 7.68-2.3 11.38-21.91-34.94-43.89-69.84-66.06-104.62-2.84-4.78-6.31-9.2-8.68-14.25 34.35-6.05 68.85-11.27 103.48-15.44-3.4-26.05-3.55-53.45 6.1-78.26 2.13-6.31 6.91-11.11 11.41-15.8 10.57-10.53 22.77-19.47 36.08-26.22 4.84-2.28 9.76-4.82 15.2-5.13 12.8-1.1 25.61 4.92 33.72 14.72 6 6.97 9.39 15.66 11.81 24.41 14.74-8.87 29.95-17.05 46-23.28m74.29-9.58c5.64 1.61 11.49 2.48 17.02 4.51 14.94 4.85 29.55 13.18 38.39 26.54 7.62 11.11 9.92 25.04 8.91 38.28 19.7 5.73 38.82 13.25 57.79 21.02 21.32 7.95 43.99 13.04 66.83 12.66-13.94-20.45-30.49-39.17-49.42-55.14-28.65-24.07-62.57-42.62-99.27-50.7-13.41-1.67-27.14-.31-40.25 2.83m83.11 4.57c15.17 4.34 29.22 11.96 42.5 20.37 29.94 19.63 55.34 46.04 74.51 76.23 5.25-2.32 10.16-5.87 13.36-10.69 2.4-5.93 1.11-12.63-.2-18.68-1.54-2.3-3.94-3.86-5.94-5.74-30.17-26.63-66.34-46.47-105.1-57.35-6.29-1.74-12.58-3.7-19.13-4.14M217.83 98.25c-6.25 5.96-12.45 12.01-17.9 18.72-2.54 3.12-2.46 7.4-3.12 11.17 6.28-7.16 12.65-14.3 19.94-20.45 4.33-3.43 9-6.38 13.72-9.24 1.36-.8 1.41.54.31 1-6.06 3.68-10.58 9.33-15.11 14.68l.03.6c-7.23 8.03-12.69 17.47-18.63 26.46-2.73 3.4-1.47 7.97-1.7 11.96 6.57-6.87 13.15-13.8 20.64-19.69 4.58-3.25 9.14-6.75 14.53-8.53 1.71-.67 3.74-.73 5.1-2.12-.05 1.3-1.43 1.74-2.31 2.41-6.19 3.86-11.67 8.74-16.74 13.96-7.47 8.26-13.86 17.44-19.2 27.2-.55 1.13-1.3 2.26-1.2 3.57.15 5.45.9 10.87 1.73 16.26 6.8-8.96 13.76-18.02 22.65-25.03l-.06-.19c7.26-5.72 15.34-10.7 24.51-12.6-8.71 4.78-16.41 11.24-22.75 18.88-8.32 10.6-14.97 22.42-20.28 34.79-.49 1.08-.81 2.29-.41 3.46 1.24 5.27 3.06 10.38 4.89 15.46 6.23-13.24 12.63-26.62 21.96-38.01 8.12-10.58 18.12-19.67 29.34-26.87-3.39-6.07-6.62-12.24-9.16-18.72-7.21-17.58-9.33-37.11-6.09-55.83-8.98 4.36-17.19 10.15-24.69 16.7m147.24-6.36c-17.34 5.41-33.12 15.33-46.04 28.05-11.35 10.95-20.55 23.9-28.65 37.39 7.7 4.84 15.39 9.7 22.89 14.85 11.55 8.01 22.44 16.93 32.85 26.35 3.42-4.48 7.01-8.81 10.48-13.24-7.69-11.78-18.09-21.43-28.99-30.18-4.76-3.83-9.81-7.27-14.7-10.92a325.31 325.31 0 0 1 17.92 7.09c13.16 5.67 25.4 13.28 36.96 21.71 5.21-5.41 10.57-10.68 16.23-15.61-7.25-12.58-18.05-22.72-29.86-31-4.79-3.19-9.85-5.94-14.88-8.72 6.36 1.66 12.63 3.67 18.8 5.96 13.93 5.3 26.94 13.45 36.98 24.54 6.84-4.83 13.65-9.73 21.04-13.7-4.96-12.77-15.15-22.77-26.4-30.21-3.44-2.26-7.08-4.2-10.75-6.07 5.12 1.15 10.15 2.69 15.09 4.45 13.78 4.68 26.83 12.93 34.97 25.23 5.53-2.36 11.26-4.18 16.89-6.28-4.52-10.42-14.35-16.84-23.1-23.41 12.9 3.71 25.57 10.33 33.75 21.27 2.91 4.41 8.17 7.13 9.5 12.57 3.17 11.33-.73 22.95-1.75 34.32 2.71-3.74 4.32-8.13 5.53-12.55 2.47-9.71 3.25-20.17.52-29.91-3.64-11.98-13.81-20.38-24.35-26.3l-.38.04c-12.88-6.61-27.3-9.66-41.6-11.19-13.16-.28-26.38 1.57-38.95 5.47m25.12 80.38c-7.78 7.98-15.47 16.3-21.1 25.98 8.31.18 16.82 1.31 24.21 5.36 9.98-13.57 14.93-30.37 14.95-47.14-6.51 4.67-12.24 10.31-18.06 15.8m100.9-15.22c1.11 1.19 2.22 2.39 3.32 3.6 1.91-.19 3.83-.36 5.74-.63-2.97-1.16-6-2.11-9.06-2.97m152.15.04c.06 4.59-.3 9.38-2.65 13.45-3.46 6.4-9.72 10.66-16.22 13.56 6.53 10.29 12.45 20.95 18.45 31.56 13.65-2.39 27.64-4.13 41.48-2.42-11.05-20.47-25.17-39.2-41.06-56.15m-377.32 12.53c-14.75 5.78-26.3 17.73-34.07 31.28-12.39 21.65-17.04 46.86-17.42 71.57 1.98 3.31 4.26 6.44 6.47 9.6 1.86-3.59 4.64-6.55 8.09-8.64-6.52 15.68-7.93 32.86-9.05 49.63-.54 12.87-.31 25.82 1.11 38.61 0 5.08 1.07 10.07 1.57 15.11 4.18 1.25 8.8 1.56 12.44 4.17 3.68 2.64 5.84 6.85 7.05 11.12-4.51-1.43-8.6-4-13.25-5.03 6.46 7 13.21 13.84 20.97 19.41 13.07-5.43 27.59-6.06 41.52-4.66 5.6-6.62 10.04-14.1 14.11-21.74-5.02-21.38 3.84-44.32 19.39-59.24 9.05-8.99 21.38-14.62 34.19-15 5.85-18.69 7.36-39.29.61-57.96 8.62 2.09 17.92 4.76 26.62 1.58-8.82-2.37-17.73-5.17-25.37-10.35-1.21-.7-2.33-1.73-3.76-1.94-2.05 1.08-3.9 2.49-5.86 3.71 1.59-6.14 6.74-10.42 11.84-13.72 7.54-4.55 16.58-7.84 25.46-5.84-.39-1.51-.77-3.01-1.13-4.51.09-2.24.14-4.48.16-6.72-3.8-1.4-7.6-3.08-11.69-3.3-14.88-1.2-27.89 9.89-42.84 7.65-4-.91-8.52-1.84-11.33-5.03 3.42-1 6.92-1.95 9.98-3.84-.02-.26-.05-.78-.07-1.04-17.56-15.42-37.63-28.31-59.78-36.04-2.06-.71-4.06.53-5.96 1.16m188 11.09c-16.86 5.18-33.79 11.46-48.09 22.04-3.41 2.31-5.91 6.06-6.03 10.26-.16 8.13 4.84 15.25 10.33 20.79 6.64 6.34 15.38 11.74 24.88 11.2 2.27-1.44 4.14-3.4 6.16-5.16-11.41-9.77-24.13-19.46-30.06-33.75 10.99 10.82 22.49 22.42 37.78 26.74 4.33-4.32 8.97-8.31 13.27-12.66-8.55-7.2-17.02-15.22-21.6-25.61 8.73 7.7 18.57 14.19 29.43 18.48 4.92-4.48 9.78-9.04 14.87-13.32-3.41-5.76-6.89-11.55-9.02-17.94 4.82 4.44 9.53 9.11 15.24 12.43 10.79-8.79 21.97-17.4 34.82-22.99-24.32-1.53-48.66 2.81-71.98 9.49m63.15 12.04c9.77 17.03 16.94 35.35 25.58 52.95 29.28-11.63 59.37-21.28 90.08-28.35-6.1-10.05-12-20.23-18.35-30.13-25.37 2.58-50.32-4.74-74.35-12.01-5.52 8.2-15.23 11.86-22.96 17.54m-25.26 18.07c-8.37 6.54-16.41 13.5-24.19 20.72-7.99 7.39-15.66 15.12-23.18 22.97-6.59 6.35-17.49 5.06-24.41-.1-12.07 9.05-28.06 10.7-42.56 8.15.02 9.94.08 19.97-2.09 29.73 6.6 7.91 11.62 17.05 14.38 26.99 6.1-13.58 13.95-26.95 26.09-35.99-1 4.01-2.69 7.79-3.9 11.74-3.81 12.09-5.25 25.28-2.09 37.69 4.76-7.47 8.41-15.87 15.17-21.87-1.03 4.13-2.75 8.05-3.9 12.15-3.53 12.16-4.8 24.87-4.69 37.51 15.47-1.45 30.98-7.42 46.57-3.41 3.66 1.31 7.22 3 10.11 5.66-11.25-4.17-23.24-.93-34.43 1.7-18.68 4.99-37.4 10.24-56.69 12.3-11.92 1.46-23.96 1.03-35.93.74-5.18.03-8.11 4.9-10.58 8.74-3.32 7.56-5.16 15.65-6.5 23.77-3.51 21.9-4.23 44.11-6.67 66.12-1.45.53-3.2.69-4.1 2.12-4.21 5.48-8.26 11.1-12.41 16.63-1.8 1.96-1.43 4.71-1.47 7.16.12 12.31-.08 24.63-.07 36.95.04 1.41-.02 2.87.39 4.26 2.5 2.27 5.54 3.82 8.33 5.69 10.18 6.54 20.38 13.04 30.6 19.52-.52 5.37 1.58 11.55-2.05 16.17-3.32.39-6.65.72-9.98 1.06-4.37-3.58-.73-9.91-2.68-14.47-.75-1.38-2.5-1.52-3.88-1.31-6.29.58-12.61.94-18.9 1.6-1.45.14-3.54.76-3.49 2.56-.39 4.77-.06 9.56-.12 14.35-1.9.19-3.79.36-5.68.56-4.54-32.65-8.7-65.36-13-98.05-.62-3.98-.73-8.06-1.75-11.97-.88-1.97-3.24-1.57-4.99-1.64-6.03.15-12.06.33-18.09.36-2.14.1-4.43-.08-6.39.92-.95 1.24-1.05 2.85-1.3 4.34-1.03 7.85-2.16 15.68-3.13 23.54l-1.81-.32c-5.85-3.31-10.53-8.45-13.1-14.68-3.93-8.88-6.61-18.26-10.6-27.11-6.95-16.07-16.59-30.87-27.64-44.41-5.45-6.29-9.72-13.51-12.81-21.23 4.98 26.48 14.81 51.92 27.59 75.59.84 1.39 1.49 3.04 2.98 3.9a5.62 5.62 0 0 1-2.7 1.16c-17.67.7-35.35 1.41-53.01 2.18-2.43-.15-3.56 2.37-3.3 4.47.09 9.65-.26 19.33.17 28.98.91 3.97 5.92 1.98 8.79 2.21-.05 31.14-.09 62.27-.08 93.41-3.13 1.17-9.29.45-8.87 5.32-.02 9.03-.09 18.08.03 27.11-.19 2.23 2.1 4.09 4.22 3.13 18.28-4.42 36.58-8.82 55.05-12.38 1.4-.31 3.01-.61 3.73-2.02 3.57-5.19 6.3-10.94 10.22-15.89.43 4.44-.27 8.97.52 13.38 1.71 1.88 4.36.87 6.5.62 9.94-1.98 19.99-3.35 29.94-5.22 2.28-.26 2.46-2.96 2.34-4.75-.3-8.3.13-16.62-.13-24.91-.73-1.87-2.97-1.65-4.55-2.12.18-1.91.38-3.81.58-5.71 3.09-.53 6.2-.83 9.33-1.04.09 1.85.17 3.7.26 5.57-1.54.66-3.93.63-4.46 2.59-1.23 5.15-.35 10.52-.56 15.76.18 4.12-.6 8.46.86 12.41 1.09 1.98 3.69 1.03 5.48 1 9.62-1.63 19.33-2.71 29.01-3.92 1.58-.14 3.56-.76 3.78-2.61.54-4.35.07-8.75.28-13.11 4.01 4.46 7.54 9.33 11.6 13.77 12.39-1.19 24.83-2.19 37.19-3.56 4.31-4.46 7.41-9.96 11.31-14.79 1.67-2.56 4.56-4.84 4.24-8.2-.02-13.33.04-26.65-.03-39.98.26-1.87-1.66-2.76-2.89-3.71-12.13-7.83-24.28-15.62-36.28-23.63.09-4.58-.28-9.18.15-13.74.56-1.25 1.49-2.28 2.29-3.37 3.2.02 6.4-.02 9.61-.17 3.57 3.78 1.17 9.27 2.23 13.85.79 2.21 3.56 1.73 5.41 1.77 6.19-.41 12.41-.24 18.6-.68 2.16-.11 2.78-2.6 2.65-4.38-.1-7.03.18-14.07-.13-21.08-3.72-6.41-8.87-11.95-13.23-17.94-1.71-2.76-5.21-2.09-7.95-2.14-5.96-15.53-4.36-34.49 6.14-47.74 4.65-6.93 11.97-11.68 16.01-19.05 2.34-4.1 2.75-8.88 4.16-13.31 1.85 5.83 1.57 12.03.11 17.9 7.87-.36 15.82-.72 23.64.51 11.59 1.79 22.87 5.06 34.04 8.53 8.18 2.3 16.32 5.29 24.9 5.6 6.22.3 11.33-3.82 15.99-7.38 14.88-12.49 25.18-29.56 32.69-47.27 3.58-9.11 7.17-18.39 8.58-28.11 4.29-15.73 4.94-32.24 4.4-48.46 5.54 13.15 6.59 27.55 7.68 41.61-.08 10.45.39 20.91-.48 31.34-.12 2.28-.47 4.69.54 6.84 9.09 20.4 21.86 39.81 40.21 53.01-13.19-.5-26.34-4.64-36.79-12.84 4.06 9.01 10.86 16.59 18.74 22.46 12.77 9.51 28.17 14.34 41.95 22.09-1.81-8.47-6.13-16.06-10.52-23.42 13.68 9.73 22.46 24.56 29.93 39.25-10.32-.04-20.63-.67-30.96-.7-1.72-.06-3.35.45-4.98.9-1.6-.57-3.22-1.18-4.94-1.12-11.68-.18-23.36-.29-35.03-.69-2.23-.18-5.84.23-5.55 3.27.01 8.4-.35 16.85.27 25.22 1.76 2.85 5.72 1.71 8.52 2 .48 26.11.2 52.24.34 78.35-2.54 0-5.2-.58-7.67.17-1.52 1.27-1.29 3.36-1.32 5.13.13 6.35.05 12.7.04 19.06-.09 1.82.45 3.58 1.1 5.27 11.1 1.06 22.2 2.03 33.29 3.19 1.72.14 4.11.41 4.84-1.63.99-3.86.36-7.94.52-11.88-.25-5.43.68-11-.9-16.28-1.47-.38-2.93-.76-4.38-1.13-.1-7.42-.75-14.94.34-22.3 2.97 7.57 5.41 15.34 8.28 22.94-1.01.59-2.03 1.2-3.03 1.8-.01 8.65.02 17.29-.1 25.94-.27 1.73 1.16 3.31 2.88 3.38 12.86 1.73 25.78 3.11 38.6 5.11 2.04.6 3.98-1.32 3.72-3.34.05-8.35.13-16.7-.08-25.04-.15-4.2-5.65-3.18-8.51-3.68-.17-1.47-.31-2.93-.36-4.39 0-26.05-.12-52.11-.16-78.16 2.8-.43 7.13 1.39 8.71-1.79.68-7.71-.24-15.48.27-23.2.67 1.29 1.85 2.47 1.9 4.01.34 6.39-.13 12.81.29 19.2 1.14 3.64 5.83 2.16 8.66 2.6.29 28.01.17 56.03.25 84.04-2.6-.09-5.5-1.19-7.9.17-1.94 3.72-.65 8.14-.78 12.15.3 5.61-.35 11.27.3 16.86.27 1.65 2.29 1.77 3.59 2.08 23.94 3.77 47.8 8.1 71.44 13.47 1.79.31 4.22.76 5.12-1.35.51-6.68.05-13.41.21-20.11-.12-3.62.4-7.32-.46-10.86-1.32-.78-2.78-1.24-4.18-1.76.12-2.23.26-4.46.43-6.68 3.05.53 6.1 1.08 9.14 1.68.2 2.25.42 4.49.63 6.75-1.18.18-2.33.44-3.45.78-1.79 1.09-1.3 3.36-1.45 5.12.16 8.34-.15 16.68.16 25.01-.28 2.38 2.14 3.25 4.01 3.65 10.21 2.26 20.35 4.86 30.51 7.33 1.97.78 4.28-.79 4.17-2.93.22-8.69-.04-17.4.1-26.1-.15-1.77.29-3.88-1.1-5.26-2.54-1.18-5.36-1.49-8.06-2.06-4.65-39.72-9.12-79.48-13.85-119.2-.51-3.39-.45-6.91-1.55-10.18-.6-1.44-2.39-1.46-3.68-1.55-6.69-.27-13.38-.28-20.05-.81-1.61.01-3.33-.39-4.82.31-2.08.7-1.68 3.24-2.12 4.97-10.03-5.53-16.61-15.55-20.52-26.06-6.32-16.67-9.14-34.43-15.52-51.09-4.15-10.64-8.97-21.56-17.7-29.28-13-11.78-27.51-21.76-40.41-33.66-14.16-12.56-26.84-26.78-37.75-42.24-9.61-13.64-17.64-28.33-24.85-43.36-8.74-18.47-16.2-37.54-25.7-55.66-3.62 1.84-6.64 4.57-9.84 7.02m-343.12 3.85c3.08 9.41 11.99 15.02 19.99 19.94-.23 3.13-.62 6.38.6 9.37 2.19-1.85 2.23-5.49 4.3-7.65 3.01 1.07 6.12 1.77 9.26 2.34-1.44 4.93-2.27 10.22-.68 15.24 1.65-5.06 4.73-9.62 8.99-12.83 2.78-.36 5.65.54 8.48.59-1.34-2.38-2.69-4.74-4.05-7.1-13.02-2.01-26.04-5.69-37.26-12.79-3.41-2.09-6.37-4.8-9.63-7.11m499.32 10.75c5.13 10.95 10.07 21.98 15.01 33.01 6.36-.28 12.87-.36 19.03 1.56 12.05 3.3 21.86 11.98 28.79 22.14-4.63-20.34-11.85-40.08-21.13-58.75-9.84-1.28-19.73-.25-29.57.36-4.06.43-8.15.75-12.13 1.68m-43.99 9.23c-19.5 5.43-38.75 11.77-57.6 19.12 14.27 28.1 30.54 56.41 55.49 76.43 7.55-15 12.72-31.21 22.11-45.23 7.05-10.48 16.02-20.57 28.16-25.07-3.62-11.4-9.47-21.93-14.53-32.72-11.4 1.45-22.51 4.63-33.63 7.47m62.14 32.78c6.16 15.32 11 31.18 14.07 47.41 8.47 43.67 5.81 88.86-3.23 132.22-.71 2.32.29 4.62 1.04 6.8 2.05 5.58 5.17 10.85 9.66 14.82 20.08-38.95 30.89-82.81 30.1-126.69-.18-8.74.15-17.61-1.57-26.21-4.53-12.96-10.73-25.69-20.23-35.76-7.6-8.05-18.48-13.95-29.84-12.59m-20.7 7.11c-9.9 8.17-16.5 19.49-22.2 30.8-5.36 10.15-8.5 21.23-13.19 31.67 9.33 7.11 18.66 14.28 27.11 22.45 7.07 0 14.56-2.4 19.1-8.09 5.27-6.42 6.71-14.89 7.7-22.9 4.73 6.47 7.46 14.14 9.65 21.78.23-4.48-.21-8.95-.85-13.37-2.84-23.06-7.95-45.96-16.71-67.52-3.92.81-7.53 2.66-10.61 5.18m-459.37-2.38c-10.07 36.66-12.14 75.4-6.57 112.97.67-4.94 1.5-10.11 4.59-14.2 5.39-7.71 14.73-11.17 23.62-12.85-.01-20.72.41-41.45 1.87-62.12.03-2.46.78-5.34-1.28-7.24-2.21-2.55-3.55-5.69-5.59-8.34-5.76-2.28-11.46-4.77-16.64-8.22m488.5 95.69c-.74 4.4-2.27 8.61-4.19 12.62 1.51-.07 3.03-.13 4.55-.2.38-4.14.17-8.3-.36-12.42m-6.56 43.43c1.18 3.73 2.27 7.48 3.34 11.25 1.25-4.76 1.57-9.69 2.15-14.55-1.85 1.07-3.68 2.17-5.49 3.3M301 418.27c2.27 6.7 6.78 12.98 13.43 15.85.57-4.87 1.15-9.75 1.45-14.65-4.97-.38-9.9-1.22-14.88-1.2m-55.65 7.77c1.02 4.04 3.16 7.65 4.92 11.4 5.51 11.55 11.49 22.87 17.27 34.29 6.18-2.8 12.75-4.84 19.53-5.43 7.63 5.42 14.55 11.73 20.91 18.6 1.78-14.8 3.83-29.57 5.68-44.37-6.08 1-12.34 1.38-18.42.19-9.28-1.63-17.47-6.67-24.25-13.04-1.43 3.56-1.47 7.41-1.31 11.18-5.27-.01-10.4-1.74-14.72-4.72-3.59-2.24-6.13-5.73-9.61-8.1m129.06 52.85c-.01 8.23-.3 16.5.16 24.72 1.74 3 5.89 1.56 8.77 1.99-.24 25.65.26 51.32-.34 76.97-2.74.31-6.65-.74-8.43 1.87-.84 7.14-.07 14.41-.38 21.6.25 2.21-.78 5.73 2.09 6.56 6.58.23 13.16-.61 19.74-.72 6.94-.52 13.99.13 20.83-1.34 2.69.29 5.37.91 8.11.63 9.97-.77 20-.05 29.97-.51 2.24-.14 1.96-3.03 2.21-4.64.05-7.33.08-14.67-.27-21.99-.13-3.54-4.4-2.49-6.73-2.86-.15-12.75.19-25.51-.15-38.25-1.47-3.94-4.99-6.73-7.36-10.13 2.23-3.43 5.24-6.3 7.3-9.82.59-5.96.04-11.97.25-17.94 2.04-.38 4.87.42 6.29-1.44 1.21-4.07.54-8.41.68-12.59-.19-4.59.49-9.26-.44-13.79-.48-2.1-3-1.96-4.66-2-10.03.03-20.06.02-30.08.01-1.8-.08-3.51.43-5.15 1.09-3.11-1.35-6.53-1-9.82-1-9.62.13-19.24.1-28.86.22-1.91-.15-4.02 1.25-3.73 3.36m100.04-2.37c-4.67 5.67-9.22 11.47-13.69 17.3-1.23 3.2-.37 6.84-.59 10.22-.01 28.32.02 56.64-.02 84.97-.05 1.6.12 3.29 1.29 4.53 4.26 5.42 8.42 10.92 12.72 16.32 1.27 2 3.82 1.53 5.84 1.7 10.02.18 20.01.84 30.02 1.25 1.27-.08 2.87.3 3.75-.92 3.99-4.42 7.54-9.24 11.44-13.75 1.38-1.84 3.39-3.63 3.14-6.14-.08-31.34-.11-62.68-.12-94.02.26-2.79-1.83-4.87-3.35-6.92-3.74-4.58-7.18-9.41-10.97-13.96-1.09-1.68-3.26-1.41-4.98-1.51-9.97-.03-19.93-.1-29.89-.21-1.55.13-3.51-.28-4.59 1.14M270.09 645.3c1.04 3.46 2.03 6.97 2.34 10.59 1.95 18.03 4.07 36.05 6.21 54.06.34 2.93-.1 5.87-.43 8.78 3.54-.75 7.09-1.42 10.64-2.08-.6-2.88-1.18-5.84-.66-8.77 2.5-18.31 4.77-36.65 7.31-54.95.4-2.6 1.29-5.08 2.11-7.55-3.42-.01-6.85-.01-10.27-.01.63 3.84.69 7.76.09 11.62-1.34 9.71-2.51 19.45-3.71 29.19-1.93-10.66-2.6-21.49-3.97-32.23-.51-2.93.32-5.82 1-8.64-3.56-.03-7.11-.03-10.66-.01m31.4.11c1.54 6.43.73 13.07.84 19.61-.2 12.33.02 24.66-.46 36.99.01 4.14-.03 8.32-.86 12.41 3.3-.6 6.62-1.1 9.94-1.63-.78-3.19-1.37-6.45-1.23-9.74.25-11.36-.09-22.73.41-34.08.24-7.9-.49-15.87.9-23.69-3.18-.03-6.36 0-9.54.13m16.34.16c-.38 4.49-1.09 8.95-1.58 13.44 2.59-1.55 5.57-1.92 8.54-1.8-.05 14.6-.23 29.2-.27 43.81.04 3.28-.33 6.54-1.04 9.74 3.33-.43 6.64-.93 9.96-1.42-.79-2.73-1.32-5.53-1.2-8.37.18-14.62.18-29.24.45-43.86 2.99-.08 6.06-.05 8.77 1.39-.64-4.33-1-8.7-1.71-13.02-7.31.16-14.61-.23-21.92.09m86.33.16c1 13.07.02 26.19.16 39.28-.17 5.91.34 11.9-1.05 17.72a1028 1028 0 0 1 9.75-.45c-.55-2.72-.93-5.48-.88-8.26.12-13.33.2-26.67.24-40-.06-2.54.44-5.03.85-7.51-2.51-1.75-6.14-.36-9.07-.78m-58.45 11.32c.03 13.32-.2 26.63-.25 39.95-.22 4.12 3.11 7.1 5.22 10.29 4.21-.77 8.51-.91 12.73-1.61 1.81-3.82 5.44-7.13 5.03-11.66.03-12.35.16-24.69.31-37.04.47-4.31-2.79-7.65-5.03-10.94-4.14-.91-8.53-.17-12.77-.37-1.98 3.65-5.58 6.91-5.24 11.38m27.93-11.3c1.45 12 .22 24.14.53 36.21-.43 7.61.19 15.3-1.06 22.86 3.24-.27 6.48-.5 9.73-.7-2.07-6.69-.88-13.76-1.08-20.64l3.21.2c.84 6.69 5.2 13.04 3.63 19.87 3.81-.11 7.63-.27 11.43-.7-3.67-5.42-4.78-11.94-6.88-18.01-1.82-4.19 3.8-6.73 3.89-10.75.06-6.73.29-13.48.05-20.2-1.29-2.79-2.87-5.61-5.1-7.74-6.06-.82-12.24-.18-18.35-.4m49.43.44c.5 2.88.8 5.82.27 8.73-1.95 13.38-3.73 26.8-5.58 40.2-.3 2.39-1.04 4.69-1.76 6.99 3.47-.1 6.95-.2 10.43-.24-1.14-3.88-.48-7.88.08-11.78 1.96-.03 4.24-.91 6.05.04.98 3.76 1.16 7.76 0 11.51 3.47-.01 6.95-.04 10.43-.04-.62-2.14-1.24-4.28-1.57-6.47-1.8-13.86-3.44-27.75-5.25-41.61-.4-2.45.14-4.88.71-7.24-4.61.01-9.21-.01-13.81-.09m36.58 7.63c-.08 12.74-.12 25.48-.25 38.23-.15 3.84 3.26 6.48 4.98 9.63 4.34-.09 8.89.82 13.12-.16 2.17-2.81 5.16-5.71 4.84-9.54.02-7.18.15-14.35.1-21.52-3.18 1.93-6.34 3.91-9.54 5.82 1.05 2.08 2.06 4.27 1.82 6.69-.27 2.83.62 6.16-1.18 8.61-1.81.21-3.63.14-5.44.17-1.29-3.43-.83-7.14-.86-10.71.12-6.71.02-13.42.1-20.13-.14-1.62.57-3.07 1.35-4.43 1.88.12 3.75.18 5.64.28.35 2.45.28 4.92.01 7.38 2.76-1.59 5.48-3.26 8.18-4.95.03-1.7.15-3.41-.06-5.08-1.27-2.83-3.34-5.2-5.11-7.71-4.2.1-8.39.09-12.59.05-1.73 2.44-3.44 4.89-5.11 7.37m32.51-7.23c.45 2.8.77 5.65.33 8.49-1.78 13.01-3.6 26.02-5.31 39.04-.35 2.83-1.08 5.59-2.05 8.28 3.49.14 6.98.27 10.48.38-1.02-3.84-.46-7.78 0-11.65 2.08.03 4.17.07 6.26.12.71 4 .89 8.08.25 12.11 3.4.12 6.8.28 10.2.47-.8-2.25-1.55-4.54-1.8-6.92-1.61-13.96-3.4-27.89-5.11-41.83-.42-2.81-.04-5.63.45-8.4-4.57-.07-9.13-.15-13.7-.09m23.61 8.32c-.3 6 0 12.02-.17 18.03 4.93 4.25 9.93 8.45 14.64 12.95.08 2.9.03 5.86-.99 8.63-1.84-.05-3.67-.11-5.5-.12-1.64-2.92-1.19-6.32-1.2-9.51-2.51.94-5.12 1.8-7.3 3.42-.94 2.43-.5 5.25-.3 7.82 1.08 3.01 3.13 5.56 4.73 8.32 4.38.56 8.78 1.13 13.21 1.2 1.59-3.19 5.01-5.77 4.85-9.61.06-5.55.06-11.09-.03-16.63-4.71-4.32-9.61-8.42-14.35-12.69.05-3.19-.5-6.62 1.28-9.47 1.75.14 3.52.24 5.26.6 1.63 3.13.66 6.86.95 10.25 2.63-1.51 5.18-3.14 7.68-4.84-.02-2.77.18-5.56-.18-8.31-1.27-2.99-3.26-5.6-5.12-8.24-4.12.1-8.24.09-12.36.07-1.78 2.65-3.95 5.12-5.1 8.13m28.98-8.09c-.63 4.12-1.17 8.25-1.67 12.4 2.68-1.32 5.64-1.63 8.58-1.13-.05 14.3-.15 28.6-.2 42.91.05 2.25-.56 4.43-1.1 6.6 3.32.64 6.68 1.04 10.05 1.37-.63-2.29-1.26-4.6-1.21-6.98.15-14.59.06-29.17.23-43.75 2.96-.08 5.96.17 8.55 1.76-.39-4.28-.83-8.56-1.36-12.82-7.29-.17-14.58-.42-21.87-.36m27.92.35c1.52 6.5.8 13.2.86 19.81.03 11.66-.18 23.32-.11 34.99.07 2.92-.41 5.82-1.1 8.66 7.62 1.22 15.22 2.58 22.85 3.76.48-4.54 1.09-9.07 1.56-13.6-4.98 2.3-10.35-.29-15.49-.49-.1-5.27-.07-10.53-.03-15.78 3.61.07 7.37.32 10.44 2.45.03-4.97.07-9.94.07-14.9-3.27 1.75-6.96 1.36-10.49.85.01-4.58.07-9.15.08-13.72 4.56.3 9.53-.66 13.62 1.93-.53-4.57-1.02-9.13-1.5-13.69-6.92-.23-13.84-.06-20.76-.27m27.92.25c1.67 5.73.88 11.72.97 17.59-.09 14.01-.23 28.01-.25 42.01-.03 2.81-.55 5.58-1.07 8.33 3.33.69 6.69 1.24 10.07 1.67-.55-2.3-1.13-4.6-1.13-6.96.01-18.01.2-36.03.17-54.04 0-2.96.47-5.89 1-8.78-3.26 0-6.52.04-9.76.18m16.77.13c-.69 4.86-1.1 9.76-1.71 14.64 3.94-2.64 8.78-1.26 13.2-1.36.16 4.21-1.86 8-3.19 11.88-3.16 8.79-6.57 17.48-9.88 26.21-1.62 6.25-.74 12.81-.9 19.2 7.1 1.47 14.19 3.03 21.31 4.43.43-5.11 1.13-10.19 1.64-15.28-4.73 2.74-9.95-.34-14.9-.64-.06-2.26.52-4.48 1.36-6.56 3.65-9.71 7.06-19.5 10.48-29.29 3.19-7.3 1.54-15.42 1.92-23.12-6.45.05-12.89-.15-19.33-.11m-171.29 22.16c.27 2.34.57 4.68.9 7.03 1.97-.02 3.94-.03 5.91-.03-.18-2.36-.37-4.71-.58-7.05-2.08 0-4.16.02-6.23.05Z"/><path d="M255.12 238.14c5.98-9.66 14.57-17.45 23.57-24.24-10.38 15.17-18.62 31.63-28.22 47.27-1.25-7.95.3-16.23 4.65-23.03ZM229.18 258.27c-5.85-10.3-2.7-22.65.27-33.34-.24 11.08 3.04 22.5-.27 33.34ZM297.27 226.82c6.03 5.76 10.51 13.01 13.29 20.86.5 2.75.77 5.55 1 8.34-3.55 2.1-8.33 3.4-9.86 7.68-2.95 6.79-6.4 13.35-10.27 19.66-5.95 1.49-12 2.91-17.58 5.51-3.49 2.95-5.46 7.27-7.94 11.04-6.53 10.61-10.25 22.57-13.54 34.49-1.24-16.07.28-32.47 6.12-47.59-3.27-5.3-6.78-10.56-8.41-16.65 3.12 3.5 6.71 6.6 11.07 8.45 2.91-3.87 5.76-7.82 9.26-11.19 8.83-8.89 20.05-14.91 31.51-19.7-.14-7.23-2.54-14.08-4.65-20.9ZM317.13 276.03c7.53-3.46 16.63-3.87 24.2-.29 3.43 1.58 6.48 3.82 9.56 5.98-6.98-.38-14.25-1.13-20.94 1.44-10.32 3.3-17.34 12.38-27.32 16.33-7.26 3.05-15.43 2.78-23.06 1.53 3.19-2.39 6.82-4.11 10.03-6.48 9.01-6.4 17.34-13.98 27.53-18.51ZM268.02 369.11c2.85-2.2 4.77-5.28 6.66-8.29.06 4.35.07 8.93-1.99 12.9-3.94 8.51-14.61 11.29-17.83 20.35-2.33-3.33-2.74-7.6-.96-11.28 2.36-6.56 9.06-9.57 14.12-13.68ZM410.17 505.38c2.22-.35 4.44-.72 6.66-1.14 2.08.4 4.16.75 6.26 1.11.02 2.54.2 5.12-.16 7.66-2.34 5.28-8.2 7.39-12.54 10.67-.43-6.09-.11-12.2-.22-18.3ZM489.23 505.37c3.4.1 6.81.15 10.22.16.95 1.69 2.09 3.42 1.84 5.47-.1 20.67.03 41.33.07 61.99-.03 3.15.69 7.05-2.37 9.1-3.3.01-6.59-.41-9.89-.42-2.63-2.6-1.88-6.39-1.94-9.73.11-20.66-.19-41.32-.05-61.98-.23-1.86 1.16-3.19 2.12-4.59ZM574.99 506.74c2.5-.58 4.89.67 7.3 1.16.13 6.07.2 12.14.04 18.22a337.98 337.98 0 0 1-7.34-19.38ZM230.56 531.05c.3-7.95-.74-15.99.64-23.87 4.48 6.07 9.31 11.88 14.41 17.44-2.81 24.08-6.3 48.08-9.23 72.15-2 .38-4 .74-5.99 1.12-.05-9.97.11-19.93.13-29.9.65-5.99-4.81-9.77-7.67-14.34 1.9-3.34 4.12-6.47 6.21-9.68 2.58-3.8 1.2-8.64 1.5-12.92ZM189.62 514.88c3.74-.23 7.49-.44 11.23-.64 1.12 1.79 2.88 3.46 2.64 5.76-.04 4.33.25 8.69-.21 13-2.55 6.36-8.66 10.11-13.6 14.46-.32-10.86-.2-21.72-.06-32.58ZM654.48 515.57c8.4 1.64 16.98 2.08 25.4 3.63-3.11 26.92-6.67 53.79-9.98 80.69-5.11-.36-10.13-1.33-15.17-2.2-.26-27.37-.16-54.74-.25-82.12ZM266.78 547.11c.61 2.51.91 5.09 1.12 7.67-.45.03-1.35.1-1.8.13.17-2.61.37-5.21.68-7.8ZM410.46 557.44c3.47-2.68 7.36-4.76 10.9-7.37.69 1.25 1.98 2.37 1.87 3.94.1 9.08 0 18.17.02 27.26-2.21.06-4.46.18-6.44 1.25-2.15-.7-4.37-1.01-6.61-1.04.03-8.01-.4-16.07.26-24.04ZM699.87 555.98c.78 2.9.99 5.91.93 8.91-.41-.23-1.24-.69-1.66-.92.2-2.67.42-5.34.73-7.99ZM189.57 587.04c4.23-3.57 7.85-7.86 12.37-11.07 1.82.52 1.5 2.57 1.64 4.05.01 5.34.01 10.68 0 16.02.23 2.85-1.91 5.01-3.27 7.29-3.59.69-7.18 1.4-10.77 2.08-.03-6.13-.08-12.25.03-18.37ZM354.86 656.72c1.76.02 3.52.02 5.28.03.53 2.02.84 4.1.76 6.21-.14 9.37-.13 18.75-.25 28.12.06 1.57-.82 2.93-1.42 4.33-1.73-.03-3.48.11-5.18-.18-.96-1.59-.8-3.49-.83-5.24.13-9.68.11-19.36.24-29.03-.14-1.57.76-2.9 1.4-4.24ZM381.89 656.6c2.09-.03 4.18-.05 6.27-.08 2.16 4.95 1.76 10.99.03 16.03-2.13.06-4.26.14-6.39.22.01-5.39.08-10.79.09-16.17ZM429.8 662.96c.99 5.52 1.14 11.15 1.89 16.71-1.31.06-2.62.12-3.92.19.51-5.65 1.09-11.31 2.03-16.9ZM498.69 663.31l.54-.05c.29 5.85 1.01 11.67 1.53 17.51-1.24-.02-2.48-.04-3.7-.04.22-5.84 1.36-11.59 1.63-17.42Z"/></g><g fill="#cd122f"><path d="M501.96 79.3c6.55.44 12.84 2.4 19.13 4.14 38.76 10.88 74.93 30.72 105.1 57.35 2 1.88 4.4 3.44 5.94 5.74 1.31 6.05 2.6 12.75.2 18.68-3.2 4.82-8.11 8.37-13.36 10.69-19.17-30.19-44.57-56.6-74.51-76.23-13.28-8.41-27.33-16.03-42.5-20.37ZM643.24 157.09c15.89 16.95 30.01 35.68 41.06 56.15-13.84-1.71-27.83.03-41.48 2.42-6-10.61-11.92-21.27-18.45-31.56 6.5-2.9 12.76-7.16 16.22-13.56 2.35-4.07 2.71-8.86 2.65-13.45ZM265.92 169.62c1.9-.63 3.9-1.87 5.96-1.16 22.15 7.73 42.22 20.62 59.78 36.04.02.26.05.78.07 1.04-3.06 1.89-6.56 2.84-9.98 3.84 2.81 3.19 7.33 4.12 11.33 5.03 14.95 2.24 27.96-8.85 42.84-7.65 4.09.22 7.89 1.9 11.69 3.3-.02 2.24-.07 4.48-.16 6.72-8.83-2.1-18.59-1.51-26.48 3.26-10.28 6.11-17.03 16.83-20.84 27.93 2.64.18 5.29.37 7.94.55-1.8 6.06-3.79 12.08-4.57 18.38-5.49-.73-11.03-1.56-16.57-.87-5.83.51-11.3 2.7-16.96 4.03 1.79-4.58 5.76-7.54 8.83-11.16-.66-4.81-4.5-8.47-8.24-11.22-2.78-7.85-7.26-15.1-13.29-20.86 2.11 6.82 4.51 13.67 4.65 20.9-11.46 4.79-22.68 10.81-31.51 19.7-3.5 3.37-6.35 7.32-9.26 11.19-4.36-1.85-7.95-4.95-11.07-8.45 1.63 6.09 5.14 11.35 8.41 16.65-5.84 15.12-7.36 31.52-6.12 47.59-1.02 9.6.7 19.19.53 28.79-7.02-12.64-12.25-26.19-18.46-39.24-5.94 12.43-9.73 25.79-12.18 39.32-.3-.4-.91-1.2-1.21-1.6-1.42-12.79-1.65-25.74-1.11-38.61 1.12-16.77 2.53-33.95 9.05-49.63 1.62-1.99 3.06-4.12 4.34-6.34-6.8-.58-12.88 2.77-18.9 5.38.38-24.71 5.03-49.92 17.42-71.57 7.77-13.55 19.32-25.5 34.07-31.28m-10.8 68.52c-4.35 6.8-5.9 15.08-4.65 23.03 9.6-15.64 17.84-32.1 28.22-47.27-9 6.79-17.59 14.58-23.57 24.24m-25.94 20.13c3.31-10.84.03-22.26.27-33.34-2.97 10.69-6.12 23.04-.27 33.34ZM491.81 210.82c3.2-2.45 6.22-5.18 9.84-7.02 9.5 18.12 16.96 37.19 25.7 55.66 7.21 15.03 15.24 29.72 24.85 43.36 10.91 15.46 23.59 29.68 37.75 42.24 12.9 11.9 27.41 21.88 40.41 33.66 8.73 7.72 13.55 18.64 17.7 29.28 6.38 16.66 9.2 34.42 15.52 51.09 3.91 10.51 10.49 20.53 20.52 26.06-.71 5.96-1.26 11.94-2.38 17.84-6.14-1.77-12.65-3.08-18.22-6.25-.71-4.9.23-9.87-.37-14.77-.08-1.75-1.41-3.55-3.29-3.46-8.94-.5-17.93.05-26.86-.69-2.07-.02-3.48-1.71-4.7-3.14-4.35-5.36-6.48-12.05-10.02-17.9-9.53-15.92-22.85-29.27-37.55-40.45-6.65-5.42-14.72-9.07-20.41-15.63-12.53-14.05-20.94-31.12-28.93-48-1.92-4.41-1.4-9.35-2.06-14.01-1.09-14.06-2.14-28.46-7.68-41.61.54 16.22-.11 32.73-4.4 48.46-3.17 4.98-5.07 10.61-7.8 15.82-6.63 12.82-14.68 24.96-24.2 35.82-6.45 6.65-12.74 13.89-21.25 17.94-5.44 2.72-11.7 1.2-17.37.2-20.37-4.32-39.54-13.79-60.46-15.61-2.28-6.3-4.09-13.11-8.86-18.08-8.54 4.44-17.04 9.04-26 12.59-6.39 2.64-13.77-1.65-15.8-7.98 2.47-3.84 5.4-8.71 10.58-8.74 11.97.29 24.01.72 35.93-.74 19.29-2.06 38.01-7.31 56.69-12.3 11.19-2.63 23.18-5.87 34.43-1.7-2.89-2.66-6.45-4.35-10.11-5.66-3.56-4.7-6.38-10.59-12.15-12.98-6.56-3.09-13.96-1.66-20.77-.38-.82-11.27 1.76-22.69 6.99-32.67 3.09-5.98 8.84-9.81 13.09-14.86 9.58-11.23 17.25-24.61 19.6-39.34 1.08-8.45 1.04-17.31-2.15-25.33 7.78-7.22 15.82-14.18 24.19-20.72ZM648.01 225.42c3.98-.93 8.07-1.25 12.13-1.68 9.84-.61 19.73-1.64 29.57-.36 9.28 18.67 16.5 38.41 21.13 58.75-6.93-10.16-16.74-18.84-28.79-22.14-6.16-1.92-12.67-1.84-19.03-1.56-4.94-11.03-9.88-22.06-15.01-33.01ZM666.16 267.43c11.36-1.36 22.24 4.54 29.84 12.59 9.5 10.07 15.7 22.8 20.23 35.76 1.72 8.6 1.39 17.47 1.57 26.21.79 43.88-10.02 87.74-30.1 126.69-4.49-3.97-7.61-9.24-9.66-14.82-.75-2.18-1.75-4.48-1.04-6.8 9.04-43.36 11.7-88.55 3.23-132.22-3.07-16.23-7.91-32.09-14.07-47.41ZM186.09 272.16c5.18 3.45 10.88 5.94 16.64 8.22 2.04 2.65 3.38 5.79 5.59 8.34 2.06 1.9 1.31 4.78 1.28 7.24-1.46 20.67-1.88 41.4-1.87 62.12-8.89 1.68-18.23 5.14-23.62 12.85-3.09 4.09-3.92 9.26-4.59 14.2-5.57-37.57-3.5-76.31 6.57-112.97ZM182.2 398.73c3.09 7.72 7.36 14.94 12.81 21.23 11.05 13.54 20.69 28.34 27.64 44.41 3.99 8.85 6.67 18.23 10.6 27.11 2.57 6.23 7.25 11.37 13.1 14.68.52.9 1.38 1.75 1.29 2.89-.08 5.25-1.52 10.36-2.03 15.57-5.1-5.56-9.93-11.37-14.41-17.44-.62-2.84-.75-5.82-1.88-8.51-1.32-2.59-3.25-4.79-4.92-7.14-3.57-4.69-6.21-10.41-11.63-13.31-1.49-.86-2.14-2.51-2.98-3.9-12.78-23.67-22.61-49.11-27.59-75.59ZM301 418.27c4.98-.02 9.91.82 14.88 1.2-.3 4.9-.88 9.78-1.45 14.65-6.65-2.87-11.16-9.15-13.43-15.85ZM245.35 426.04c3.48 2.37 6.02 5.86 9.61 8.1 4.32 2.98 9.45 4.71 14.72 4.72-.16-3.77-.12-7.62 1.31-11.18 6.78 6.37 14.97 11.41 24.25 13.04 6.08 1.19 12.34.81 18.42-.19-1.85 14.8-3.9 29.57-5.68 44.37-6.36-6.87-13.28-13.18-20.91-18.6-6.78.59-13.35 2.63-19.53 5.43-5.78-11.42-11.76-22.74-17.27-34.29-1.76-3.75-3.9-7.36-4.92-11.4ZM270.09 645.3c3.55-.02 7.1-.02 10.66.01-.68 2.82-1.51 5.71-1 8.64 1.37 10.74 2.04 21.57 3.97 32.23 1.2-9.74 2.37-19.48 3.71-29.19.6-3.86.54-7.78-.09-11.62 3.42 0 6.85 0 10.27.01-.82 2.47-1.71 4.95-2.11 7.55-2.54 18.3-4.81 36.64-7.31 54.95-.52 2.93.06 5.89.66 8.77-3.55.66-7.1 1.33-10.64 2.08.33-2.91.77-5.85.43-8.78-2.14-18.01-4.26-36.03-6.21-54.06-.31-3.62-1.3-7.13-2.34-10.59ZM301.49 645.41c3.18-.13 6.36-.16 9.54-.13-1.39 7.82-.66 15.79-.9 23.69-.5 11.35-.16 22.72-.41 34.08-.14 3.29.45 6.55 1.23 9.74-3.32.53-6.64 1.03-9.94 1.63.83-4.09.87-8.27.86-12.41.48-12.33.26-24.66.46-36.99-.11-6.54.7-13.18-.84-19.61ZM317.83 645.57c7.31-.32 14.61.07 21.92-.09.71 4.32 1.07 8.69 1.71 13.02-2.71-1.44-5.78-1.47-8.77-1.39-.27 14.62-.27 29.24-.45 43.86-.12 2.84.41 5.64 1.2 8.37-3.32.49-6.63.99-9.96 1.42.71-3.2 1.08-6.46 1.04-9.74.04-14.61.22-29.21.27-43.81-2.97-.12-5.95.25-8.54 1.8.49-4.49 1.2-8.95 1.58-13.44ZM404.16 645.73c2.93.42 6.56-.97 9.07.78-.41 2.48-.91 4.97-.85 7.51-.04 13.33-.12 26.67-.24 40-.05 2.78.33 5.54.88 8.26a1028 1028 0 0 0-9.75.45c1.39-5.82.88-11.81 1.05-17.72-.14-13.09.84-26.21-.16-39.28ZM345.71 657.05c-.34-4.47 3.26-7.73 5.24-11.38 4.24.2 8.63-.54 12.77.37 2.24 3.29 5.5 6.63 5.03 10.94-.15 12.35-.28 24.69-.31 37.04.41 4.53-3.22 7.84-5.03 11.66-4.22.7-8.52.84-12.73 1.61-2.11-3.19-5.44-6.17-5.22-10.29.05-13.32.28-26.63.25-39.95m9.15-.33c-.64 1.34-1.54 2.67-1.4 4.24-.13 9.67-.11 19.35-.24 29.03.03 1.75-.13 3.65.83 5.24 1.7.29 3.45.15 5.18.18.6-1.4 1.48-2.76 1.42-4.33.12-9.37.11-18.75.25-28.12.08-2.11-.23-4.19-.76-6.21-1.76-.01-3.52-.01-5.28-.03ZM373.64 645.75c6.11.22 12.29-.42 18.35.4 2.23 2.13 3.81 4.95 5.1 7.74.24 6.72.01 13.47-.05 20.2-.09 4.02-5.71 6.56-3.89 10.75 2.1 6.07 3.21 12.59 6.88 18.01-3.8.43-7.62.59-11.43.7 1.57-6.83-2.79-13.18-3.63-19.87l-3.21-.2c.2 6.88-.99 13.95 1.08 20.64-3.25.2-6.49.43-9.73.7 1.25-7.56.63-15.25 1.06-22.86-.31-12.07.92-24.21-.53-36.21m8.25 10.85c-.01 5.38-.08 10.78-.09 16.17 2.13-.08 4.26-.16 6.39-.22 1.73-5.04 2.13-11.08-.03-16.03-2.09.03-4.18.05-6.27.08ZM423.07 646.19c4.6.08 9.2.1 13.81.09-.57 2.36-1.11 4.79-.71 7.24 1.81 13.86 3.45 27.75 5.25 41.61.33 2.19.95 4.33 1.57 6.47-3.48 0-6.96.03-10.43.04 1.16-3.75.98-7.75 0-11.51-1.81-.95-4.09-.07-6.05-.04-.56 3.9-1.22 7.9-.08 11.78-3.48.04-6.96.14-10.43.24.72-2.3 1.46-4.6 1.76-6.99 1.85-13.4 3.63-26.82 5.58-40.2.53-2.91.23-5.85-.27-8.73m6.73 16.77c-.94 5.59-1.52 11.25-2.03 16.9 1.3-.07 2.61-.13 3.92-.19-.75-5.56-.9-11.19-1.89-16.71ZM459.65 653.82c1.67-2.48 3.38-4.93 5.11-7.37 4.2.04 8.39.05 12.59-.05 1.77 2.51 3.84 4.88 5.11 7.71.21 1.67.09 3.38.06 5.08-2.7 1.69-5.42 3.36-8.18 4.95.27-2.46.34-4.93-.01-7.38-1.89-.1-3.76-.16-5.64-.28-.78 1.36-1.49 2.81-1.35 4.43-.08 6.71.02 13.42-.1 20.13.03 3.57-.43 7.28.86 10.71 1.81-.03 3.63.04 5.44-.17 1.8-2.45.91-5.78 1.18-8.61.24-2.42-.77-4.61-1.82-6.69 3.2-1.91 6.36-3.89 9.54-5.82.05 7.17-.08 14.34-.1 21.52.32 3.83-2.67 6.73-4.84 9.54-4.23.98-8.78.07-13.12.16-1.72-3.15-5.13-5.79-4.98-9.63.13-12.75.17-25.49.25-38.23ZM492.16 646.59c4.57-.06 9.13.02 13.7.09-.49 2.77-.87 5.59-.45 8.4 1.71 13.94 3.5 27.87 5.11 41.83.25 2.38 1 4.67 1.8 6.92-3.4-.19-6.8-.35-10.2-.47.64-4.03.46-8.11-.25-12.11-2.09-.05-4.18-.09-6.26-.12-.46 3.87-1.02 7.81 0 11.65-3.5-.11-6.99-.24-10.48-.38.97-2.69 1.7-5.45 2.05-8.28 1.71-13.02 3.53-26.03 5.31-39.04.44-2.84.12-5.69-.33-8.49m6.53 16.72c-.27 5.83-1.41 11.58-1.63 17.42 1.22 0 2.46.02 3.7.04-.52-5.84-1.24-11.66-1.53-17.51l-.54.05ZM515.77 654.91c1.15-3.01 3.32-5.48 5.1-8.13 4.12.02 8.24.03 12.36-.07 1.86 2.64 3.85 5.25 5.12 8.24.36 2.75.16 5.54.18 8.31-2.5 1.7-5.05 3.33-7.68 4.84-.29-3.39.68-7.12-.95-10.25-1.74-.36-3.51-.46-5.26-.6-1.78 2.85-1.23 6.28-1.28 9.47 4.74 4.27 9.64 8.37 14.35 12.69.09 5.54.09 11.08.03 16.63.16 3.84-3.26 6.42-4.85 9.61-4.43-.07-8.83-.64-13.21-1.2-1.6-2.76-3.65-5.31-4.73-8.32-.2-2.57-.64-5.39.3-7.82 2.18-1.62 4.79-2.48 7.3-3.42.01 3.19-.44 6.59 1.2 9.51 1.83.01 3.66.07 5.5.12 1.02-2.77 1.07-5.73.99-8.63-4.71-4.5-9.71-8.7-14.64-12.95.17-6.01-.13-12.03.17-18.03ZM544.75 646.82c7.29-.06 14.58.19 21.87.36.53 4.26.97 8.54 1.36 12.82-2.59-1.59-5.59-1.84-8.55-1.76-.17 14.58-.08 29.16-.23 43.75-.05 2.38.58 4.69 1.21 6.98-3.37-.33-6.73-.73-10.05-1.37.54-2.17 1.15-4.35 1.1-6.6.05-14.31.15-28.61.2-42.91-2.94-.5-5.9-.19-8.58 1.13.5-4.15 1.04-8.28 1.67-12.4ZM572.67 647.17c6.92.21 13.84.04 20.76.27.48 4.56.97 9.12 1.5 13.69-4.09-2.59-9.06-1.63-13.62-1.93-.01 4.57-.07 9.14-.08 13.72 3.53.51 7.22.9 10.49-.85 0 4.96-.04 9.93-.07 14.9-3.07-2.13-6.83-2.38-10.44-2.45-.04 5.25-.07 10.51.03 15.78 5.14.2 10.51 2.79 15.49.49-.47 4.53-1.08 9.06-1.56 13.6-7.63-1.18-15.23-2.54-22.85-3.76.69-2.84 1.17-5.74 1.1-8.66-.07-11.67.14-23.33.11-34.99-.06-6.61.66-13.31-.86-19.81ZM600.59 647.42c3.24-.14 6.5-.18 9.76-.18-.53 2.89-1 5.82-1 8.78.03 18.01-.16 36.03-.17 54.04 0 2.36.58 4.66 1.13 6.96-3.38-.43-6.74-.98-10.07-1.67.52-2.75 1.04-5.52 1.07-8.33.02-14 .16-28 .25-42.01-.09-5.87.7-11.86-.97-17.59ZM617.36 647.55c6.44-.04 12.88.16 19.33.11-.38 7.7 1.27 15.82-1.92 23.12-3.42 9.79-6.83 19.58-10.48 29.29-.84 2.08-1.42 4.3-1.36 6.56 4.95.3 10.17 3.38 14.9.64-.51 5.09-1.21 10.17-1.64 15.28-7.12-1.4-14.21-2.96-21.31-4.43.16-6.39-.72-12.95.9-19.2 3.31-8.73 6.72-17.42 9.88-26.21 1.33-3.88 3.35-7.67 3.19-11.88-4.42.1-9.26-1.28-13.2 1.36.61-4.88 1.02-9.78 1.71-14.64ZM446.07 669.71c2.07-.03 4.15-.05 6.23-.05.21 2.34.4 4.69.58 7.05-1.97 0-3.94.01-5.91.03-.33-2.35-.63-4.69-.9-7.03Z"/></g><g fill="#afabaa"><path d="M394.04 102.63c11.64-3.63 23.74-6.2 36-5.64 5.21-.11 10.37 1.41 15.58.62l.38-.04c10.54 5.92 20.71 14.32 24.35 26.3 2.73 9.74 1.95 20.2-.52 29.91-1.21 4.42-2.82 8.81-5.53 12.55 1.02-11.37 4.92-22.99 1.75-34.32-1.33-5.44-6.59-8.16-9.5-12.57-8.18-10.94-20.85-17.56-33.75-21.27 8.75 6.57 18.58 12.99 23.1 23.41-5.63 2.1-11.36 3.92-16.89 6.28-8.14-12.3-21.19-20.55-34.97-25.23ZM199.93 116.97c5.45-6.71 11.65-12.76 17.9-18.72-.55 3.12-.88 6.27-1.08 9.44-7.29 6.15-13.66 13.29-19.94 20.45.66-3.77.58-8.05 3.12-11.17ZM389.7 104.25c11.25 7.44 21.44 17.44 26.4 30.21-7.39 3.97-14.2 8.87-21.04 13.7-10.04-11.09-23.05-19.24-36.98-24.54 5.31-3.9 10.59-7.89 16.28-11.23 4.93-3.05 10.28-5.33 15.34-8.14ZM197.07 141.19c5.94-8.99 11.4-18.43 18.63-26.46.31 6.24.08 12.49.31 18.73-7.49 5.89-14.07 12.82-20.64 19.69.23-3.99-1.03-8.56 1.7-11.96ZM354.16 126.38c11.81 8.28 22.61 18.42 29.86 31-5.66 4.93-11.02 10.2-16.23 15.61-11.56-8.43-23.8-16.04-36.96-21.71 6.94-9.07 15.56-16.6 23.33-24.9ZM197.39 166.38c5.34-9.76 11.73-18.94 19.2-27.2.54 7.38 1.63 14.76 3.92 21.81l.06.19c-8.89 7.01-15.85 16.07-22.65 25.03-.83-5.39-1.58-10.81-1.73-16.26-.1-1.31.65-2.44 1.2-3.57ZM327.61 155.11c10.9 8.75 21.3 18.4 28.99 30.18-3.47 4.43-7.06 8.76-10.48 13.24-10.41-9.42-21.3-18.34-32.85-26.35.44.23 1.33.68 1.78.91 4.21-5.97 8.22-12.09 12.56-17.98ZM201.99 202.06c5.31-12.37 11.96-24.19 20.28-34.79 1.44 5.42 2.65 11.17 6.16 15.7-9.33 11.39-15.73 24.77-21.96 38.01-1.83-5.08-3.65-10.19-4.89-15.46-.4-1.17-.08-2.38.41-3.46ZM453.92 180.71c23.32-6.68 47.66-11.02 71.98-9.49-12.85 5.59-24.03 14.2-34.82 22.99-5.71-3.32-10.42-7.99-15.24-12.43 2.13 6.39 5.61 12.18 9.02 17.94-5.09 4.28-9.95 8.84-14.87 13.32-10.86-4.29-20.7-10.78-29.43-18.48 4.58 10.39 13.05 18.41 21.6 25.61-4.3 4.35-8.94 8.34-13.27 12.66-15.29-4.32-26.79-15.92-37.78-26.74 5.93 14.29 18.65 23.98 30.06 33.75-2.02 1.76-3.89 3.72-6.16 5.16-9.5.54-18.24-4.86-24.88-11.2-5.49-5.54-10.49-12.66-10.33-20.79.12-4.2 2.62-7.95 6.03-10.26 14.3-10.58 31.23-16.86 48.09-22.04ZM148.69 214.67c3.26 2.31 6.22 5.02 9.63 7.11 11.22 7.1 24.24 10.78 37.26 12.79 1.36 2.36 2.71 4.72 4.05 7.1-2.83-.05-5.7-.95-8.48-.59-4.26 3.21-7.34 7.77-8.99 12.83-1.59-5.02-.76-10.31.68-15.24-3.14-.57-6.25-1.27-9.26-2.34-2.07 2.16-2.11 5.8-4.3 7.65-1.22-2.99-.83-6.24-.6-9.37-8-4.92-16.91-10.53-19.99-19.94Z"/></g></svg>