<?xml version="1.0" encoding="UTF-8"?><svg id="Ebene_2" xmlns="http://www.w3.org/2000/svg" viewBox="0 0 391.88 508.92"><defs><style>.cls-1{fill:#010203;}.cls-2{fill:#003d19;}.cls-3{fill:#fff;}.cls-4{fill:#ffe501;}.cls-5{fill:#d90001;}</style></defs><g id="Ebene_2-2"><path class="cls-3" d="m0,0v312.99c0,108.21,87.72,195.94,195.94,195.94s195.94-87.73,195.94-195.94V0H0Z"/><path class="cls-4" d="m0,0v312.99C0,421.2,87.72,508.92,195.94,508.92s195.94-87.73,195.94-195.94V0H0Zm375.38,312.99c0,47.93-18.66,92.99-52.56,126.88s-78.95,52.56-126.88,52.56-92.99-18.66-126.88-52.56c-33.89-33.89-52.56-78.95-52.56-126.88v-154.34h358.88v154.34ZM16.5,142.15V16.5h358.88v125.65H16.5Z"/><path class="cls-5" d="m195.94,492.42V158.65H16.5v154.34c0,47.93,18.66,92.99,52.56,126.88,33.89,33.89,78.95,52.56,126.88,52.56Z"/><path class="cls-5" d="m5.5,5.5v307.49c0,25.71,5.03,50.65,14.96,74.13,9.59,22.68,23.32,43.04,40.81,60.54,17.49,17.49,37.86,31.22,60.54,40.81,23.47,9.93,48.41,14.96,74.13,14.96s50.65-5.03,74.13-14.96c22.68-9.59,43.04-23.32,60.54-40.81,17.49-17.49,31.22-37.86,40.81-60.54,9.93-23.47,14.96-48.41,14.96-74.13V5.5H5.5Zm375.38,5.5v136.65H11V11h369.88Zm-54.17,432.76c-34.93,34.93-81.37,54.17-130.77,54.17s-95.84-19.24-130.77-54.17c-34.93-34.93-54.17-81.37-54.17-130.77v-159.84h369.88v159.84c0,49.4-19.24,95.84-54.17,130.77Z"/></g><g id="Ebene_1-2"><g id="FCA"><path class="cls-5" d="m147.14,104.37s16.82,3.6,58.63,1.44c0,0,19.21-.16,19.21-15.06v-13.77h-23.79v6.24s.18,4.51-3.2,4.51h-34.79s-6.93-.66-7.89-7.15v-23.07s.49-5.12,6.73-5.52c0,0,10.01-1.45,31.96-.24,0,0,7.52-.48,7.44,8.41h22.42l-.15-13.29s-1.13-12.89-16.98-13.86c0,0-36.99-1.44-53.33.24,0,0-21.15.48-20.66,16.57v39.16s-.73,13.45,14.41,15.38Z"/><polygon class="cls-5" points="74.52 82.34 126.07 82.33 126.09 64.73 74.52 64.73 74.2 52 128.65 51.91 128.65 33.98 52.09 33.98 52.09 107.65 74.83 107.63 74.52 82.34"/><path class="cls-5" d="m297.52,32.79h-35.48l-40.92,79.45v15.27h18.68l17.27-35.01,45.4-.06,16.83,35.08h28.81l-50.59-94.73Zm-32.71,43.5l12.81-25.95h3.53l12.49,25.95h-28.83Z"/><rect class="cls-5" x="52.09" y="110.57" width="56.67" height="16.95"/><rect class="cls-2" x="108.76" y="110.57" width="56.67" height="16.95"/><rect class="cls-3" x="165.43" y="110.57" width="56.67" height="16.95"/><path class="cls-5" d="m220.23,112.44v13.21h-52.93v-13.21h52.93m1.87-1.87h-56.67v16.95h56.67v-16.95h0Z"/></g><g id="_1907"><polygon class="cls-3" points="138.27 464.31 138.27 462.11 142.97 460.77 142.97 443.86 138.27 442.4 138.27 440.26 153.23 440.26 153.23 442.4 148.53 443.8 148.53 460.77 153.23 462.11 153.23 464.31 138.27 464.31"/><path class="cls-3" d="m175.05,439.47c-7.02,0-11.47,5.43-11.47,11.96,0,7.99,4.76,11.9,10.93,11.9,1.71,0,3.72-.67,5-1.16-2.32,5.25-6.71,9.15-13.31,11.72l1.46,3.11c12.76-3.6,19.47-13.98,19.29-23.74-.13-7.5-4.09-13.79-11.91-13.79Zm5.74,18.98c-1.34.49-3.84,1.34-5.92,1.34-3.73,0-5.8-3.91-5.92-8.54-.13-4.88,1.95-8.06,5.49-8.18,3.72-.18,6.83,4.03,6.96,9.09.06,2.81-.31,5-.62,6.29Z"/><path class="cls-5" d="m215.17,439.23c-7.45,0-13.49,5.8-13.49,12.94s6.04,13,13.49,13,13.55-5.8,13.55-13-6.1-12.94-13.55-12.94Zm0,21.79c-4.94,0-8.11-3.91-8.11-8.85s3.17-8.79,8.11-8.79,8.18,3.9,8.18,8.79-3.24,8.85-8.18,8.85Z"/><path class="cls-5" d="m240.07,475.42h-4.57c1.59-7.87,5.97-19.41,12.93-30.7h-15.99v-4.46h22.04v3.48c-4.88,7.2-12.14,21.91-14.4,31.68Z"/></g><g id="Zirbelnuss"><path id="path2556" class="cls-1" d="m265.78,345.84l-21.63-19.46c-9.83,1.62-19.88,2.92-30.06,3.57l-.23-15.24c18.1-1.62,26.76-6.49,34.67-13.95,9.5-9.08,13.95-20.76,13.95-37.62,0-28.54-16.8-55.46-31.17-69.73-13.49-13.62-27.66-17.51-34.93-19.13h-.81c-7.23,1.62-21.44,5.51-34.93,19.13-14.37,14.27-31.13,41.19-31.13,69.73,0,16.86,4.41,28.54,13.91,37.62,7.91,7.46,16.57,12.32,34.7,13.95l-.26,15.24c-10.18-.65-20.2-1.95-30.06-3.57l-21.63,19.46,8.82,9.73c-.88,1.95-1.3,4.22-1.3,6.49,0,6.81,5.45,12.32,12.19,12.32,2.01,0,5.77-.65,8.21-3.57.71-.97,1.23-1.95,1.59-3.24,5.58,11.68,8.92,30.16,10.38,57.4l.1,1.95h59.64l.13-1.95c1.43-27.24,4.8-45.73,10.38-57.4.32,1.3.84,2.27,1.56,3.24,2.43,2.92,6.19,3.57,8.24,3.57,6.71,0,12.19-5.51,12.19-12.32,0-2.27-.45-4.54-1.3-6.49l8.79-9.73"/><path id="path2558" class="cls-2" d="m199.52,310.81l13.07-7.78-16.6-9.73-16.64,9.73,13.07,7.78h7.1"/><path id="path2560" class="cls-2" d="m220.18,206.38l16.6,10.05,4.77-2.92c-3.28-5.19-6.78-9.73-10.35-13.62l-11.03,6.49"/><path id="path2562" class="cls-2" d="m155.15,293.3l-7.98,4.86c4.57,3.89,9.6,7.14,17.06,9.41l7.56-4.54-16.64-9.73"/><path id="path2564" class="cls-2" d="m169.62,308.87c4.18.97,9.02,1.3,14.79,1.62l-8.85-5.19-5.93,3.57"/><path id="path2566" class="cls-2" d="m207.53,310.49c5.77-.32,10.64-.65,14.79-1.62l-5.93-3.57-8.85,5.19"/><path id="path2568" class="cls-2" d="m247.58,295.25c3.37-3.89,5.87-7.78,7.56-12.97l-14.56,8.76,7.01,4.22"/><path id="path2570" class="cls-2" d="m257.05,252.44c-.91-5.84-2.43-11.35-4.44-16.86l-12.03,7.14,16.48,9.73"/><path id="path2572" class="cls-2" d="m257.35,256.98h-.16l-16.61,9.73,16.15,9.73c.81-3.89,1.2-8.43,1.2-13.3,0-1.95-.16-4.22-.36-6.16h-.23"/><path id="path2574" class="cls-2" d="m220.18,303.03l7.52,4.54c7.49-2.27,12.49-5.51,17.06-9.41l-7.98-4.86-16.6,9.73"/><path id="path2576" class="cls-2" d="m136.83,282.27c1.69,5.19,4.15,9.08,7.52,12.97l7.01-4.22-14.53-8.76"/><path id="path2578" class="cls-2" d="m210.13,183.68c-5.71-2.59-10.7-4.22-14.14-4.86-3.47.65-8.46,2.27-14.17,4.86l14.17,8.43,14.14-8.43"/><path id="path2580" class="cls-2" d="m192.19,194.38l-14.37-8.43c-4.48,2.59-9.28,6.16-13.98,10.7-.13,0-.26.32-.36.32l12.06,7.14,16.64-9.73"/><path id="path2582" class="cls-2" d="m216.38,204.11l12.1-7.14c-.13,0-.26-.32-.39-.32-4.7-4.54-9.47-8.11-13.98-10.7l-14.37,8.43,16.64,9.73"/><path id="path2584" class="cls-2" d="m171.79,206.38l-11.03-6.49c-3.57,3.89-7.1,8.43-10.35,13.62l4.73,2.92,16.64-10.05"/><path id="path2586" class="cls-2" d="m134.75,256.98h-.39c-.19,1.95-.32,4.22-.32,6.16,0,4.86.39,9.41,1.17,13.3l16.15-9.73-16.6-9.73"/><path id="path2588" class="cls-2" d="m139.33,235.57c-2.01,5.51-3.53,11.03-4.41,16.86l16.44-9.73-12.03-7.14"/><path id="path2590" class="cls-2" d="m148.38,216.76c-1.04,1.62-2.08,3.57-3.02,5.19l6-3.57-2.98-1.62"/><path id="path2592" class="cls-2" d="m155.15,240.44l16.64-9.73-16.64-10.05-12.88,7.78c-.55.97-1.04,2.27-1.52,3.57l14.4,8.43"/><path id="path2594" class="cls-2" d="m179.35,254.71l16.64,10.05,16.6-10.05-16.6-9.73-16.64,9.73"/><path id="path2596" class="cls-2" d="m155.15,268.98l-16.6,10.05,16.6,9.73,16.64-9.73-16.64-10.05"/><path id="path2598" class="cls-2" d="m158.95,291.03l16.6,9.73,16.64-9.73-16.64-9.73-16.6,9.73"/><path id="path2600" class="cls-2" d="m171.79,254.71l-16.64-9.73-16.6,9.73,16.6,10.05,16.64-10.05"/><path id="path2602" class="cls-2" d="m192.19,218.38l-16.64-9.73-16.6,9.73,16.6,10.05,16.64-10.05"/><path id="path2604" class="cls-2" d="m192.19,242.71l-16.64-9.73-16.6,9.73,16.6,9.73,16.64-9.73"/><path id="path2606" class="cls-2" d="m195.99,268.98l-16.64,10.05,16.64,9.73,16.6-9.73-16.6-10.05"/><path id="path2608" class="cls-2" d="m199.75,291.03l16.64,9.73,16.6-9.73-16.6-9.73-16.64,9.73"/><path id="path2610" class="cls-2" d="m199.75,242.71l16.64,9.73,16.6-9.73-16.6-9.73-16.64,9.73"/><path id="path2612" class="cls-2" d="m236.78,264.76l16.6-10.05-16.6-9.73-16.6,9.73,16.6,10.05"/><path id="path2614" class="cls-2" d="m220.18,279.03l16.6,9.73,16.6-9.73-16.6-10.05-16.6,10.05"/><path id="path2616" class="cls-2" d="m199.75,218.38l16.64,10.05,16.6-10.05-16.6-9.73-16.64,9.73"/><path id="path2618" class="cls-2" d="m212.59,206.38l-16.6-9.73-16.64,9.73,16.64,10.05,16.6-10.05"/><path id="path2620" class="cls-2" d="m246.61,221.95c-.97-1.62-1.98-3.57-3.05-5.19l-2.98,1.62,6.03,3.57"/><path id="path2622" class="cls-2" d="m236.78,220.65l-16.6,10.05,16.6,9.73,14.4-8.43c-.45-1.3-.97-2.59-1.49-3.57l-12.91-7.78"/><path id="path2624" class="cls-2" d="m158.95,266.71l16.6,10.05,16.64-10.05-16.64-9.73-16.6,9.73"/><path id="path2626" class="cls-2" d="m195.99,220.65l-16.64,10.05,16.64,9.73,16.6-9.73-16.6-10.05"/><path id="path2628" class="cls-2" d="m232.99,266.71l-16.6-9.73-16.64,9.73,16.64,10.05,16.6-10.05"/><path id="path2630" class="cls-4" d="m158.85,343.89h18.81l.16-10.05c-9.76-.65-19.39-1.62-28.83-3.57-7.07,6.49-13.3,12.32-17.35,15.89l5.38,5.84c4.02-5.19,11.58-8.11,21.83-8.11"/><path id="path2632" class="cls-4" d="m242.95,330.27c-9.44,1.62-19.04,2.92-28.8,3.57l.16,10.05h18.78c10.25,0,17.8,2.92,21.86,8.11l5.35-5.84c-4.05-3.57-10.28-9.41-17.35-15.89"/><path id="path2634" class="cls-4" d="m195.99,344.22h-14.46l.45-29.19c4.18.32,8.82.32,14.01.32s9.83,0,14.01-.32l.45,29.19h-14.46"/><path id="path2636" class="cls-4" d="m154.12,347.79c-10.61,1.3-16.57,6.49-16.57,14.27,0,4.54,3.73,8.43,8.33,8.43,1.33,0,3.79-.32,5.22-1.95,1.26-1.62,1.52-4.22.81-7.46l3.47-1.62c7.1,10.05,11.38,26.27,13.59,52.21l11.38-27.89c-7.88-17.19-16.73-31.46-26.24-36"/><path id="path2638" class="cls-4" d="m182.36,378.92l12.78-30.81-33.86-.32c6.88,5.51,13.72,15.57,21.08,31.13"/><path id="path2640" class="cls-4" d="m230.65,347.79l-33.83.32,12.78,30.81c7.33-15.57,14.17-25.62,21.05-31.13"/><path id="path2642" class="cls-4" d="m184.54,383.79c3.66,8.43,7.46,17.84,11.45,28.86,3.99-11.03,7.75-20.43,11.42-28.86-5.38-12.97-10.18-24.65-11.42-27.57-1.26,2.92-6.03,14.59-11.45,27.57"/><path id="path2644" class="cls-4" d="m182.53,388.65c-4.8,11.68-9.76,23.68-12.91,31.46.03.97.1,1.95.16,2.92h25.75l-1.36-3.89c-3.57-10.05-7.46-20.76-11.64-30.49"/><path id="path2646" class="cls-4" d="m237.82,347.79c-9.47,4.54-18.36,18.81-26.24,36l11.38,27.89c2.21-25.95,6.52-42.16,13.59-52.21l3.47,1.62c-.71,3.24-.42,5.84.84,7.46,1.43,1.62,3.86,1.95,5.22,1.95,4.61,0,8.33-3.89,8.33-8.43,0-7.78-6-12.97-16.6-14.27"/><path id="path2648" class="cls-4" d="m197.8,419.14l-1.39,3.89h25.75c.06-.97.13-1.95.19-2.92-3.18-7.78-8.14-19.78-12.91-31.46-4.22,9.73-8.11,20.43-11.64,30.49"/></g></g></svg>