<?xml version="1.0" encoding="UTF-8" standalone="no"?>
<svg
   xmlns:dc="http://purl.org/dc/elements/1.1/"
   xmlns:cc="http://creativecommons.org/ns#"
   xmlns:rdf="http://www.w3.org/1999/02/22-rdf-syntax-ns#"
   xmlns:svg="http://www.w3.org/2000/svg"
   xmlns="http://www.w3.org/2000/svg"
   viewBox="0 0 116.53333 132.32001"
   height="132.32001"
   width="116.53333"
   xml:space="preserve"
   id="svg2"
   version="1.1"><metadata
     id="metadata8"><rdf:RDF><cc:Work
         rdf:about=""><dc:format>image/svg+xml</dc:format><dc:type
           rdf:resource="http://purl.org/dc/dcmitype/StillImage" /></cc:Work></rdf:RDF></metadata><defs
     id="defs6" /><g
     transform="matrix(1.3333333,0,0,-1.3333333,0,132.32)"
     id="g10"><g
       transform="scale(0.1)"
       id="g12"><path
         id="path14"
         style="fill:#ffffff;fill-opacity:1;fill-rule:nonzero;stroke:none"
         d="m 320.375,655.879 c 0.625,4.836 1.191,8.137 1.758,11.789 1.035,-0.5 2.461,-0.664 3.769,-0.93 1.368,-7.656 6.055,-11.687 9.317,-13.855 0,-0.024 2.246,-8.879 2.246,-8.879 0.117,-0.266 0.41,-0.606 0.547,-0.879 -2.989,-2.402 -6.289,-5.184 -10.489,-8.914 l -6.23,-5.551 c -5.723,-5.094 -10.352,-9.176 -14.941,-13.008 6.933,11.45 12.421,27.973 14.023,40.227 z M 870.316,496.027 c 0.176,0.352 0.137,0.528 0.352,0.907 0.977,2.07 1.641,4.558 1.641,7.136 0,1.996 -0.411,4.043 -1.387,6.02 -0.508,1.031 -1.387,1.773 -2.149,2.613 0.821,2.356 2.051,5.949 2.051,5.949 0.293,1.145 0.43,2.286 0.43,3.411 0,4.187 -1.992,8.093 -5.527,10.535 -4.668,3.215 -10.977,3.125 -15.684,-0.223 -3.652,-2.348 -6.191,-6.602 -8.594,-10.844 -1.543,1.645 -3.144,2.719 -6.426,1.899 -4.121,-1.02 -3.593,-1.797 -6.953,-6.66 -11.914,-17.368 -27.734,-44.692 -45.957,-45.625 -3.925,0.464 -5.136,1.609 -9.883,9.05 -39.375,62.746 -87.773,99.903 -151.855,145.539 -3.73,3.184 -11.855,15.836 -19.727,28.067 -13.593,21.148 -29.003,45.117 -44.589,56.094 -11.914,8.601 -24.629,13.179 -36.914,17.605 -14.864,5.359 -28.926,10.422 -41.563,22.48 -5.039,4.942 -9.59,11.575 -14.844,19.25 -10.703,15.625 -24.375,34.708 -50.39,51.563 0.644,3.777 1.465,8.902 1.465,15.164 0,7.688 -2.129,19.738 -5.586,26.145 -2.637,4.882 -6.758,7.714 -10.645,8.652 -7.109,1.719 -18.516,-0.891 -26.191,-4.336 15.175,44.805 50.703,74.402 69.218,89.707 10.274,8.496 16.133,13.348 16.133,19.91 0,1.067 -0.137,2.16 -0.449,3.332 -2.676,12.09 -16.094,12.723 -21.836,12.988 l -1.113,0.059 c -7.832,0.195 -32.852,-0.664 -50.977,-14.473 -5.351,-1.425 -10.058,-3.632 -14.336,-6.328 -0.215,0.762 -0.176,1.563 -0.527,2.305 -2.188,4.727 -7.93,9.355 -17.5,8.145 -17.93,-2.747 -28.027,-7.403 -34.863,-11.153 -0.45,-0.265 -1.797,-1.094 -1.797,-1.094 -6.27,-3.75 -16.391,-10.234 -23.93,-25.324 -7.176,-5.312 -15.195,-13.445 -18.254,-25.672 -7.73,-5.304 -14.082,-14.257 -14.539,-25.832 -4.773,-5.644 -7.683,-11.609 -9.031,-17.871 -7.656,6.707 -16.75,11.27 -27.52,13.067 l -0.773,0.129 -0.781,0.015 c -3.379,0.063 -10.403,0.199 -15.735,-5.176 l -1.355,-1.367 -0.801,-1.746 c -0.82,-1.816 -1.133,-3.555 -1.133,-5.156 0,-4.309 2.305,-7.649 3.223,-8.992 l 0.598,-0.903 c 0.136,-0.332 1.882,-8.75 1.882,-8.75 l 1.114,-9.246 c 2.824,-15.234 9.355,-23.183 17.683,-30.262 -1.785,-5.371 -2.801,-10.332 -2.801,-14.66 0,-7.363 1.954,-13.386 3.672,-18.679 0,0 0.45,-1.426 0.762,-2.422 0.098,-0.852 0.176,-1.75 0.176,-2.832 0,-10.461 -4.043,-30.84 -7.188,-42.895 -0.008,-0.039 -1.23,-3.992 -1.23,-3.992 -2.363,-7.352 -6.602,-20.574 -6.602,-35.145 0,-5.253 0.547,-10.683 1.934,-16.078 2.754,-9.199 9.836,-20.191 19.687,-24.918 0.371,-0.16 5.547,-2.226 5.547,-2.226 4.961,-1.875 6.457,-2.442 8.574,-5.84 1.817,-2.844 2.579,-11.945 2.579,-21.445 0,-7.032 -0.411,-14.278 -1.122,-19.36 l -0.097,-0.703 c 0,0 -0.012,-0.758 -0.012,-0.777 0,-5.11 3.242,-9.817 8.078,-11.723 4.168,-1.656 10.477,-1.426 15.633,4.16 3.367,3.43 6.262,7.239 8.82,11.289 0.672,-0.996 0.821,-2.351 1.778,-3.179 l 0.437,-0.395 0.488,-0.332 c 1.778,-1.238 3.887,-1.695 6.008,-1.875 -6.371,-4.324 -14.133,-9.219 -24.582,-15.469 C 204.434,577.766 164.59,555.879 157.109,529.063 61.6016,482.57 0,385.027 0,278.652 0,125.012 124.98,0 278.594,0 c 153.715,0 278.773,125.012 278.773,278.652 0,36.399 -7.422,71.668 -20.703,104.485 0.996,0.457 2.285,1.074 3.594,1.687 0.918,-1.004 1.855,-2.011 1.855,-2.011 3.496,-4.188 10.43,-9.247 16.035,-9.407 5.586,-0.144 9.122,0.571 9.122,0.571 0,0 0.351,0.093 0.644,0.175 0.469,-0.812 3.106,-5.39 3.106,-5.39 5.507,-8.449 14.414,-8.227 19.199,-8.098 2.969,0.078 5.097,0.129 7.715,-1.008 2.714,-1.25 3.73,-5.039 5.039,-13.582 l 1.074,-6.238 c 1.562,-6.762 5.508,-9.953 7.637,-11.66 0,0 0.058,-0.063 0.078,-0.078 0.429,-2.121 1.758,-8.977 1.758,-8.977 0.996,-7.402 2.128,-15.793 9.921,-19.109 -0.175,0.078 0.215,0.078 0.743,0.066 1.25,-6.199 1.523,-13.73 8.75,-18.074 1.66,-0.996 3.769,-1.191 5.898,-1.379 0.078,-0.332 0.195,-0.703 0.195,-0.703 1.875,-9.52 9.434,-11.926 12.286,-12.844 0,0 0.097,-0.027 0.136,-0.035 0.43,-0.715 4.727,-7.746 4.727,-7.746 3.027,-5.457 5.859,-10.625 9.648,-13.731 l 1.719,-1.425 2.148,-0.614 c 1.114,-0.312 2.207,-0.441 3.282,-0.461 9.179,-11.707 34.355,-49.265 34.355,-84.128 0,-1.661 -0.058,-3.325 -0.176,-4.961 -1.64,-23.735 -11.347,-35.852 -17.773,-43.868 -7.363,-9.179 -7.676,-19.9215 -7.676,-24.1402 0,-0.2071 0,-0.4024 0,-0.586 0.899,-10.2461 6.27,-13.6367 10.176,-16.1055 4.16,-2.2148 15.879,-7.1367 32.324,-0.2851 13.574,5.6641 16.465,15.8437 18.36,22.5703 0.878,3.0547 1.464,4.9922 2.441,5.9492 6.269,6.0933 13.594,14.8983 14.531,29.2583 0.098,1.171 0.137,2.371 0.137,3.613 0,12.105 -3.887,27.344 -7.617,40.894 -1.543,5.766 -3.614,19.336 -4.043,31.711 5.312,-7.343 9.765,-14.707 12.402,-19.226 l 1.328,-2.246 c 3.516,-5.957 13.555,-23.008 13.555,-39.629 0,-1.828 -0.117,-3.645 -0.391,-5.442 -1.836,-11.179 -5.351,-17.625 -9.433,-25.078 -4.239,-7.746 -9.043,-16.5115 -11.68,-30.6717 -0.332,-1.9336 -0.488,-3.832 -0.488,-5.668 0,-7.7304 2.91,-14.4687 8.34,-19.082 7.617,-6.4609 19.043,-7.7109 31.328,-3.4336 15.215,5.4844 25.664,22.7539 28.965,46.1875 1.953,1.3988 3.964,2.8558 3.964,2.8558 3.965,4.453 5.02,9.48 5.02,13.687 0,3.578 -0.762,6.555 -1.152,8.086 -8.125,32.699 -9.551,48.676 -9.551,61.527 0,3.458 0.097,6.7 0.215,9.969 l -0.528,27.918 c -0.957,8.547 -5,15.09 -8.593,18.684 -1.641,1.887 -6.016,6.887 -6.016,6.887 -4.414,4.507 -9.883,10.105 -11.074,15.046 -1.543,6.426 -2.149,14.422 -2.149,23.371 0,15.606 1.817,34.098 3.594,52.208 1.914,19.453 3.77,38.281 3.77,54.941 0,7.195 -0.508,13.816 -1.329,20.074 45.313,-1.402 65.879,45.266 72.871,61.195 l 1.192,2.672 c 1.289,3.43 1.816,6.34 1.816,8.813 0,4.519 -1.777,7.437 -3.672,9.394" /><path
         id="path16"
         style="fill:#ffffff;fill-opacity:1;fill-rule:nonzero;stroke:none"
         d="m 811,241.848 c 0.117,-0.102 0.215,-0.317 0.313,-0.422 0.312,-0.36 1.171,-1.336 1.171,-1.336 L 811,241.848" /><path
         id="path18"
         style="fill:#ed1c24;fill-opacity:1;fill-rule:nonzero;stroke:none"
         d="m 10.6836,278.652 c 0,148.008 120.0314,268 267.9104,268 148.051,0 268.09,-119.992 268.09,-268 0,-148.015 -120.039,-267.9567 -268.09,-267.9567 -147.879,0 -267.9104,119.9417 -267.9104,267.9567" /><path
         id="path20"
         style="fill:#ffffff;fill-opacity:1;fill-rule:nonzero;stroke:none"
         d="m 43.1367,278.652 c 0,130.149 105.6013,235.664 235.7693,235.664 130.102,0 235.688,-105.515 235.688,-235.664 0,-130.125 -105.586,-235.5778 -235.688,-235.5778 -130.168,0 -235.7693,105.4528 -235.7693,235.5778" /><path
         id="path22"
         style="fill:#ed1c24;fill-opacity:1;fill-rule:nonzero;stroke:none"
         d="m 60.625,278.672 c 0,120.539 97.766,218.273 218.281,218.273 120.453,0 218.207,-97.734 218.207,-218.273 0,-120.547 -97.754,-218.2306 -218.207,-218.2306 -120.515,0 -218.281,97.6836 -218.281,218.2306" /><path
         id="path24"
         style="fill:#231f20;fill-opacity:1;fill-rule:nonzero;stroke:none"
         d="m 508.188,419.523 c -4.512,4.649 -8.555,10.957 -8.555,10.957 -48.32,70.008 -129.199,116.122 -220.844,116.122 l -0.476,-0.594 c -3.555,-0.727 -7.227,-2.942 -12.297,-5.813 -8.145,-4.277 -16.739,-4.558 -25.149,-4.992 -6.746,0.434 -2.058,8.813 -6.179,7.414 -4.754,-1.308 -15.254,-4.922 -19.786,-7.781 -0.429,-10.371 -31.816,-21.191 -48.73,-13.02 1.992,24.836 43.223,46.379 102.246,55.274 36.801,21.933 41.996,27.668 66.215,49.121 10.879,9.656 15.879,13.625 19.394,14.348 1.563,0.664 0.469,1.621 -0.8,1.675 -3.321,1.411 -4.864,3.696 -6.094,6.332 -1.934,4.082 -0.645,8.914 -3.399,11.473 -3.222,2.227 -7.207,3.84 -7.617,9.199 -0.195,2.735 -0.39,7.063 -4.316,7.371 -5.488,-0.171 -7.461,-1.343 -8.086,9.922 -0.274,4.922 -0.098,12.871 -2.656,13.078 -3.692,0.364 -7.325,-11.992 -11.289,-42.343 -2.891,-22.078 -16.02,-47.063 -20.571,-43.899 -4.375,3.813 -0.683,26.606 -7.383,36.75 -1.035,1.836 2.161,-25 -18.078,-45.664 -2.781,-3.008 -5.183,-1.238 -5.164,0.305 0.774,5.586 3.477,38.023 -2.988,47.945 -5.078,8.156 -10.566,8.586 -18.555,12.055 -6.601,3.164 -12.043,11.543 -13.965,17.937 -5.339,20.743 4.082,42.785 5.899,49.856 1.777,6.824 9.031,37.652 7.219,50.508 -2.942,9.785 -7.446,18.671 -0.969,33.804 0.969,1.582 1.75,2.746 0.469,4.075 -9.668,7.429 -16.133,13.3 -18.868,28.007 -1.601,8.664 -0.273,12.508 -3.582,20.008 -1.156,3 -3.761,4.699 -2.863,6.672 2.051,2.063 5.137,2.063 7.942,2.012 16.011,-2.664 25.632,-11.641 31.687,-21.414 2.078,4.121 3.762,6.621 6.68,9.492 -0.645,9.91 3.945,17.422 10.527,23.875 -1.113,12.305 7.266,19.816 13.195,22.512 0.926,10.507 7.215,18.242 17.207,25.234 6.789,15.555 16.809,20.586 22.688,24.199 6.25,3.438 15.156,7.481 31.035,9.922 6.836,0.859 8.301,-3.398 5.117,-6.32 -10.312,-8.328 -34.336,-33.992 -44.121,-62.442 3.106,5.52 10.586,14.914 19.902,19.328 5.254,13.7 18.028,20.762 25.743,24.559 4.511,8.254 14.453,18.625 28.886,21.699 16.211,13.899 42.676,13.535 45.918,13.457 5.352,-0.281 12.09,-0.222 13.184,-5.125 1.875,-7.05 -78.613,-48.476 -90.957,-132.011 -0.449,-3.723 19.746,19.05 40.859,15.601 1.192,-0.523 2.11,-1.394 2.657,-2.594 9.824,-21.23 0.488,-40.746 2.871,-42.187 41.757,-24.555 50.839,-55.598 68.808,-73.176 25.293,-24.133 54.922,-23.215 79.707,-41.086 23.574,-16.629 50.547,-72.586 64.278,-84.137 59.336,-42.265 109.355,-79.328 149.023,-142.57 5.254,-8.23 8.555,-13.176 18.731,-14.094 22.109,0.571 40.332,26.743 55.097,50.571 0.82,1.25 1.856,1.609 2.754,0.906 1.758,-1.356 0.781,-4.891 2.617,-5.098 4.844,-0.672 8.926,13.75 13.848,16.922 1.953,1.399 4.883,0.199 4.238,-2.281 -1.465,-5.512 -4.902,-11.926 -5.137,-16.113 0,-1.036 0.899,-0.801 1.426,-0.137 0.918,1.07 2.168,1.465 3.184,1.269 2.07,-0.453 1.875,-3.125 1.269,-4.414 -1.816,-3.398 -3.379,-6.875 -3.613,-10.839 -0.098,-3.379 2.598,-0.95 4.219,-1.899 2.265,-1.043 1.816,-3.758 0.586,-7.012 -6.172,-13.648 -25.098,-63.668 -70.078,-57.183 -5.762,1.015 -8.711,5.191 -6.973,-1.25 11.504,-38.75 -11.152,-122.895 -1.543,-162.949 2.754,-11.457 15.762,-20.723 19.766,-26.711 2.363,-2.254 5.058,-7.024 5.664,-12.344 3.027,-34.18 -5.664,-37.41 10.136,-101.102 1.329,-5.215 1.172,-9.043 -1.543,-12.109 -2.812,-3.234 -4.921,-1.828 -5.781,-4.848 -2.07,-20.5349 -10.527,-36.7653 -22.597,-41.1286 -16.68,-5.8008 -27.579,2.0703 -25.157,16.1289 4.707,25.4337 16.934,30.2927 21.172,56.1567 3.203,21.914 -10.058,44.429 -14.551,52.089 -4.179,7.008 -14.785,26.129 -27.929,38.282 -1.739,2.129 -3.164,1.621 -3.77,-0.207 -5,-15.821 0.254,-48.25 2.5,-56.621 3.692,-13.45 7.93,-30 7.129,-40.958 -0.703,-10.75 -6.191,-17.332 -11.289,-22.285 -7.812,-7.5583 -2.832,-20.2145 -17.5,-26.3278 -10.742,-4.4805 -18.672,-2.5469 -22.305,-0.6524 -3.379,2.129 -5,3.0743 -5.371,7.2149 -0.019,4.9219 0.508,11.9805 5.332,18.0003 7.832,9.793 18.262,23.672 20.078,49.773 3.418,47.293 -38.652,101.172 -41.308,101.777 -2.715,0.606 -1.758,-1.765 -3.887,-1.16 -4.18,3.438 -9.16,16.168 -13.613,20.926 -2.403,3.328 -8.438,1.887 -9.395,6.633 -0.508,3.66 -2.011,7.351 -4.98,8.902 -1.934,1.145 -3.34,-0.808 -5.098,0.141 -5.156,4.023 -5.351,18.516 -7.051,19.433 -1.836,0.79 -3.535,-0.695 -4.863,0 -3.75,1.598 -2.832,13.731 -5.84,22.325 -1.406,4.511 -5.996,4.351 -7.265,9.804 -2.012,9.825 -1.739,22.618 -12.305,27.481 -10.82,4.707 -17.754,-1.762 -22.891,6.035 -2.734,3.359 -2.265,8.887 -9.297,9.617 -3.71,1.848 -5.195,6.406 -8.554,5.383 -1.817,-0.527 -0.313,-4.055 -4.043,-6.418 -5.039,-0.344 -10.078,13.254 -17.071,12.648 -2.304,-0.871 -3.203,-3.507 -5.82,-3.671 -3.008,-0.129 -3.262,15.214 -13.086,18.906 -1.758,0.664 -3.066,-2.578 -4.57,-0.434 0,0 -4.024,3.071 -8.691,7.992" /><path
         id="path26"
         style="fill:none;stroke:#231f20;stroke-width:1.26999998;stroke-linecap:butt;stroke-linejoin:miter;stroke-miterlimit:4;stroke-dasharray:none;stroke-opacity:1"
         d="m 508.188,419.523 c -4.512,4.649 -8.555,10.957 -8.555,10.957 -48.32,70.008 -129.199,116.122 -220.844,116.122 l -0.476,-0.594 c -3.555,-0.727 -7.227,-2.942 -12.297,-5.813 -8.145,-4.277 -16.739,-4.558 -25.149,-4.992 -6.746,0.434 -2.058,8.813 -6.179,7.414 -4.754,-1.308 -15.254,-4.922 -19.786,-7.781 -0.429,-10.371 -31.816,-21.191 -48.73,-13.02 1.992,24.836 43.223,46.379 102.246,55.274 36.801,21.933 41.996,27.668 66.215,49.121 10.879,9.656 15.879,13.625 19.394,14.348 1.563,0.664 0.469,1.621 -0.8,1.675 -3.321,1.411 -4.864,3.696 -6.094,6.332 -1.934,4.082 -0.645,8.914 -3.399,11.473 -3.222,2.227 -7.207,3.84 -7.617,9.199 -0.195,2.735 -0.39,7.063 -4.316,7.371 -5.488,-0.171 -7.461,-1.343 -8.086,9.922 -0.274,4.922 -0.098,12.871 -2.656,13.078 -3.692,0.364 -7.325,-11.992 -11.289,-42.343 -2.891,-22.078 -16.02,-47.063 -20.571,-43.899 -4.375,3.813 -0.683,26.606 -7.383,36.75 -1.035,1.836 2.161,-25 -18.078,-45.664 -2.781,-3.008 -5.183,-1.238 -5.164,0.305 0.774,5.586 3.477,38.023 -2.988,47.945 -5.078,8.156 -10.566,8.586 -18.555,12.055 -6.601,3.164 -12.043,11.543 -13.965,17.937 -5.339,20.743 4.082,42.785 5.899,49.856 1.777,6.824 9.031,37.652 7.219,50.508 -2.942,9.785 -7.446,18.671 -0.969,33.804 0.969,1.582 1.75,2.746 0.469,4.075 -9.668,7.429 -16.133,13.3 -18.868,28.007 -1.601,8.664 -0.273,12.508 -3.582,20.008 -1.156,3 -3.761,4.699 -2.863,6.672 2.051,2.063 5.137,2.063 7.942,2.012 16.011,-2.664 25.632,-11.641 31.687,-21.414 2.078,4.121 3.762,6.621 6.68,9.492 -0.645,9.91 3.945,17.422 10.527,23.875 -1.113,12.305 7.266,19.816 13.195,22.512 0.926,10.507 7.215,18.242 17.207,25.234 6.789,15.555 16.809,20.586 22.688,24.199 6.25,3.438 15.156,7.481 31.035,9.922 6.836,0.859 8.301,-3.398 5.117,-6.32 -10.312,-8.328 -34.336,-33.992 -44.121,-62.442 3.106,5.52 10.586,14.914 19.902,19.328 5.254,13.7 18.028,20.762 25.743,24.559 4.511,8.254 14.453,18.625 28.886,21.699 16.211,13.899 42.676,13.535 45.918,13.457 5.352,-0.281 12.09,-0.222 13.184,-5.125 1.875,-7.05 -78.613,-48.476 -90.957,-132.011 -0.449,-3.723 19.746,19.05 40.859,15.601 1.192,-0.523 2.11,-1.394 2.657,-2.594 9.824,-21.23 0.488,-40.746 2.871,-42.187 41.757,-24.555 50.839,-55.598 68.808,-73.176 25.293,-24.133 54.922,-23.215 79.707,-41.086 23.574,-16.629 50.547,-72.586 64.278,-84.137 59.336,-42.265 109.355,-79.328 149.023,-142.57 5.254,-8.23 8.555,-13.176 18.731,-14.094 22.109,0.571 40.332,26.743 55.097,50.571 0.82,1.25 1.856,1.609 2.754,0.906 1.758,-1.356 0.781,-4.891 2.617,-5.098 4.844,-0.672 8.926,13.75 13.848,16.922 1.953,1.399 4.883,0.199 4.238,-2.281 -1.465,-5.512 -4.902,-11.926 -5.137,-16.113 0,-1.036 0.899,-0.801 1.426,-0.137 0.918,1.07 2.168,1.465 3.184,1.269 2.07,-0.453 1.875,-3.125 1.269,-4.414 -1.816,-3.398 -3.379,-6.875 -3.613,-10.839 -0.098,-3.379 2.598,-0.95 4.219,-1.899 2.265,-1.043 1.816,-3.758 0.586,-7.012 -6.172,-13.648 -25.098,-63.668 -70.078,-57.183 -5.762,1.015 -8.711,5.191 -6.973,-1.25 11.504,-38.75 -11.152,-122.895 -1.543,-162.949 2.754,-11.457 15.762,-20.723 19.766,-26.711 2.363,-2.254 5.058,-7.024 5.664,-12.344 3.027,-34.18 -5.664,-37.41 10.136,-101.102 1.329,-5.215 1.172,-9.043 -1.543,-12.109 -2.812,-3.234 -4.921,-1.828 -5.781,-4.848 -2.07,-20.5349 -10.527,-36.7653 -22.597,-41.1286 -16.68,-5.8008 -27.579,2.0703 -25.157,16.1289 4.707,25.4337 16.934,30.2927 21.172,56.1567 3.203,21.914 -10.058,44.429 -14.551,52.089 -4.179,7.008 -14.785,26.129 -27.929,38.282 -1.739,2.129 -3.164,1.621 -3.77,-0.207 -5,-15.821 0.254,-48.25 2.5,-56.621 3.692,-13.45 7.93,-30 7.129,-40.958 -0.703,-10.75 -6.191,-17.332 -11.289,-22.285 -7.812,-7.5583 -2.832,-20.2145 -17.5,-26.3278 -10.742,-4.4805 -18.672,-2.5469 -22.305,-0.6524 -3.379,2.129 -5,3.0743 -5.371,7.2149 -0.019,4.9219 0.508,11.9805 5.332,18.0003 7.832,9.793 18.262,23.672 20.078,49.773 3.418,47.293 -38.652,101.172 -41.308,101.777 -2.715,0.606 -1.758,-1.765 -3.887,-1.16 -4.18,3.438 -9.16,16.168 -13.613,20.926 -2.403,3.328 -8.438,1.887 -9.395,6.633 -0.508,3.66 -2.011,7.351 -4.98,8.902 -1.934,1.145 -3.34,-0.808 -5.098,0.141 -5.156,4.023 -5.351,18.516 -7.051,19.433 -1.836,0.79 -3.535,-0.695 -4.863,0 -3.75,1.598 -2.832,13.731 -5.84,22.325 -1.406,4.511 -5.996,4.351 -7.265,9.804 -2.012,9.825 -1.739,22.618 -12.305,27.481 -10.82,4.707 -17.754,-1.762 -22.891,6.035 -2.734,3.359 -2.265,8.887 -9.297,9.617 -3.71,1.848 -5.195,6.406 -8.554,5.383 -1.817,-0.527 -0.313,-4.055 -4.043,-6.418 -5.039,-0.344 -10.078,13.254 -17.071,12.648 -2.304,-0.871 -3.203,-3.507 -5.82,-3.671 -3.008,-0.129 -3.262,15.214 -13.086,18.906 -1.758,0.664 -3.066,-2.578 -4.57,-0.434 0,0 -4.024,3.071 -8.691,7.992 z" /><path
         id="path28"
         style="fill:#ffffff;fill-opacity:1;fill-rule:nonzero;stroke:none"
         d="m 271.465,884.988 c 4.219,5.285 12.734,7.707 12.363,9.399 -0.742,1.543 -3.906,0.156 -6.269,0 -0.996,-0.157 -2.344,0.086 -2.188,1.258 3.984,13.957 17.617,16.457 21.758,20.878 0.48,0.86 0,0.86 -1.074,1.457 -2.157,0.086 -5.606,-2.265 -5.606,-0.214 1.614,13.906 18.559,20.593 21.742,21.699 0.821,0.723 0.079,1.687 -0.976,1.855 -1.445,-0.168 -2.617,-1.054 -2.813,0.723 1.641,6.895 10.84,12.422 16.778,15.371 6.054,2.481 18.027,6.16 18.027,4.324 0,-0.73 -9.394,-5.293 -12.5,-9.929 -2.578,-3.821 -4.922,-6.321 -5.117,-12.344 -9.629,-4.727 -14.375,-15.371 -15.02,-25.527 -6.816,-3.508 -12.05,-15.872 -9.804,-20.958 -7.856,-7.636 -11.723,-18.656 -11.293,-29.707 -17.012,-22.257 -11.973,-30.734 6.777,-37.628 2.777,-0.887 5.414,-1.055 5.941,0.285 0.664,1.328 -1.621,2.136 -2.461,4.058 -10.199,22.727 2.657,34.106 20.606,41.75 1.406,0.672 0.352,2.278 -1.758,2.227 -4.844,0.051 -9.199,-1.199 -9.805,0.359 -2.617,7.426 16.661,22.797 26.153,25.715 4.023,1.191 2.324,3.234 0.664,2.941 -2.539,0.235 -6.465,-1.242 -7.735,2.071 2.422,8.379 25.528,19.48 28.926,21.472 2.09,1.321 2.969,3.704 -7.246,1.614 -0.957,-0.137 -2.012,-0.137 -1.562,1.258 1.933,6.035 23.554,14.484 34.55,18.3 1.739,0.813 2.227,3.516 -2.949,2.5 -1.875,-0.281 -5.312,-1.531 -5.976,-0.144 0.664,8.172 24.55,14.472 33.086,16.336 1.933,0.644 2.285,1.75 0.605,2.558 -2.715,0.821 -7.012,-1.316 -5.371,1.535 6.426,4.063 23.437,4.122 29.336,3.165 1.641,-0.293 2.031,-0.665 2.187,-1.016 -1.836,-4.277 -30.429,-12.649 -33.964,-29.844 -8.575,-3.547 -16.954,-11.699 -17.93,-18.691 -4.512,-2.434 -13.535,-9.856 -14.063,-20.078 -4.921,-3.672 -17.832,-15.137 -13.535,-29.043 -6.894,-6.465 -12.226,-13.078 -11.953,-31.235 0.098,-6.25 -8.027,-16.402 -16.406,-18.758 -2.363,-0.949 -1.426,-2.863 0.273,-3.308 14.043,-4.145 27.09,3.476 32.188,8.316 16.211,15.434 27.012,21.008 34.297,21.914 1.328,0.356 1.328,-0.601 1.543,-1.343 1.035,-4.043 3.554,-13.887 0.039,-27.7 -4.61,-17.285 -17.832,-25.3 -21.582,-30.015 -0.664,-0.664 1.855,-8.008 0.507,-11.77 -1.523,-4.765 0.196,-7.722 1.954,-8.445 4.785,-1.77 8.183,16.101 11.054,15.652 2.305,-0.129 1.914,-4.031 4.668,-5.437 1.465,-0.508 3.594,-0.071 3.848,1.558 0.351,4.993 2.207,17.2 3.418,18.508 0.879,1.106 3.594,-4.426 3.75,-7.781 0.195,-13.906 -7.617,-25.727 -3.027,-35.305 1.015,-2.058 3.32,-1.894 4.921,-0.371 4.2,4.5 7.071,20.82 16.407,22.883 12.578,2.781 25.019,-31.691 16.152,-40.898 -4.297,-3.657 -9.707,-0.43 -15.039,-3.391 -5.742,-3.359 -5.254,-16.152 -9.18,-21.453 -2.324,-2.344 -5.097,-2.735 -10.488,-3.164 -11.406,-0.879 -7.93,-33.457 -6.172,-39.27 1.133,-3.445 3.555,-2.781 5.156,-1.609 1.641,1.387 2.891,8.094 3.223,14.351 0.469,1.977 3.926,2.766 6.406,5.2 2.676,2.078 1.27,4.351 2.891,6.382 2.324,2.602 4.609,0.317 6.504,3.207 4.922,4.082 1.426,10.497 5.39,13.204 5.84,3.835 11.036,1.921 16.192,7.578 3.164,3.511 3.574,10.957 8.008,12.215 23.613,0.578 47.109,-26.629 51.132,-34.715 11.68,-24.172 -7.011,-60.664 5.762,-67.649 16.074,-9.344 12.598,-27.488 10.84,-32.051 -3.477,-9.265 -29.199,-21.043 -32.52,-42.492 -1.66,-20.601 9.083,-16.336 9.844,-13.765 0.821,2.586 1.543,5.957 2.813,8.523 1.015,2.285 4.16,1.281 4.531,-0.937 0.605,-1.922 5.02,-7.43 11.562,4.699 4.122,7.715 15.215,17.652 23.536,23.379 8.183,5.8 10.136,23.965 11.562,28.101 1.074,3.578 4.082,3.578 4.531,7.422 0.313,3.969 -7.148,17.121 -2.714,26.547 2.07,3.145 7.05,5.367 10.781,1.031 3.906,-4.508 -2.422,-19.297 4.648,-19.629 6.035,-0.172 6.699,6.907 11.914,6.45 5.332,-1.028 -4.258,-20.52 0.996,-23.528 3.223,-1.316 7.266,0.227 8.907,-3 1.484,-5.379 -8.145,-15.164 0.156,-15.164 87.949,1.555 120.078,-67.644 114.433,-80.281 -2.636,-4.797 -13.242,2.351 -14.765,-2.5 -8.027,-27.07 10.117,-47.578 15.371,-51.113 1.543,-0.879 4.316,0.371 4.102,3.757 -0.879,7.727 -5.157,11.844 -4.297,19.485 1.484,13.457 31.523,5.152 33.047,-5.078 0.585,-3.84 0.8,-6.985 4.179,-10.215 4.278,-4.043 14.531,0.515 15.528,-8.438 1.308,-17.382 -20.372,-18.379 -35.372,-29.14 -7.148,-5.5 -5.527,-9.336 0.528,-11.313 7.207,-1.922 18.75,0.141 24.57,-8.394 8.281,-11.848 -2.598,-36.614 -3.223,-47.051 -0.605,-10.598 18.36,-41.543 18.75,-57.356 1.368,-7.878 -4.062,-12.136 -10.761,-5.656 -6.465,6.762 -13.223,17.192 -18.242,25.012 -1.465,2.461 -5.293,2.629 -5.215,-2.441 -0.078,-13.692 64.726,-98.016 66.367,-111.836 1.484,-7.286 -2.559,-13.45 -0.84,-20.516 0.566,-2.07 3.223,-0.891 3.438,-2.539 0.351,-4.688 -4.415,-11.789 2.363,-15.18 3.359,-9.265 0,-13.133 1.758,-20.808 0.879,-7.649 4.492,-18.243 5.312,-25.965 -1.816,-21.7581 -10.156,-30.2346 -16.797,-33.469 -5.722,-2.8594 -8.086,2.2773 -7.558,6.7188 1.504,13.1642 16.093,36.5152 10.273,62.8242 -14.961,67.676 -87.383,115.699 -99.473,141.426 -3.886,9.707 -17.773,10.789 -18.574,22.183 -1.386,3.684 -5.039,2.582 -8.144,5.957 -2.617,2.954 -2.52,11.836 -5.332,18.34 -0.821,2.043 -3.36,1.02 -5.235,2.981 -10.293,13.554 -8.086,79.718 -17.265,88.761 -6.778,3.778 -12.032,-6.73 -20.469,-7.621 -6.445,-0.664 -17.109,15.364 -21.016,11.313 -3.164,-3.164 -1.797,-11.313 -1.543,-12.578 0.332,-1.114 1.934,-6.77 -0.254,-6.77 -1.972,-0.078 -4.804,3.977 -12.968,7.293 -5.45,1.977 -10.606,0 -13.125,1.633 -5.567,6.008 0.195,18.652 -9.16,22.258 -2.618,1.015 -3.086,7.703 -4.434,10.371 -1.289,1.902 -3.965,1.758 -5.176,3.23 -2.539,3.828 -4.316,8.528 -5.449,13.907 -0.957,3.691 -9.492,-0.899 -10.156,4.921 -0.821,3.899 -5.391,5.129 -8.926,5.735 -4.317,0.515 -2.5,9.988 -6.25,11.551 -1.602,0.734 -2.188,-1.106 -3.867,-0.243 -1.719,2.149 -1.407,4.2 -3.594,5.743 -1.856,1.257 -3.672,-0.864 -5.02,0.664 -5.449,6.621 -1.113,17.742 -3.945,21.023 -1.875,2.051 -5.098,-0.223 -7.93,2.227 -2.773,2.109 -3.222,5.586 -4.882,6.086 -4.844,0.086 -6.543,0.964 -8.516,3.386 -8.828,12.344 -7.832,26.555 -10.859,31.614 -1.973,3.32 -4.942,5.379 -7.168,-0.871 -4.434,-10.743 -3.965,-50.809 -16.817,-56.258 -9.902,-4.856 -18.73,12.207 -23.613,15.23 -2.188,1.164 -2.578,-2.437 -4.141,-2.586 -4.511,1.77 -3.496,7.129 -7.148,9.258 -3.535,1.555 -2.031,-3.445 -4.063,-3.008 -3.515,3.235 -3.515,11.906 -6.64,13.449 -2.52,0.965 -4.004,-1.984 -5.449,-0.734 -5.079,4.414 -1.524,14.27 -7.657,17.371 -2.656,0.863 -2.265,-3.621 -5,-2.351 -2.617,0.957 -2.168,14.921 -10.332,13.586 -1.211,-0.137 -0.82,1.777 -1.66,2.5 -2.422,0.308 -4.101,-3.059 -6.621,-0.879 -3.437,4.55 -6.074,6.765 -8.301,8.472 -3.437,2.922 -8.535,-0.758 -12.773,2.407 -14.922,6.55 -49.113,-19.551 -64.524,-34.856 -5.617,5.242 -13.195,-0.281 -19.582,-0.937 -2.293,-0.528 -9.48,-0.223 -3.847,7.55 13.984,14.801 24.199,14.071 50.531,32.891 19.258,14.109 36.523,27.859 42.734,31.91 5.117,2.641 13.262,4.856 20.098,-4.137 9.629,-12.57 31.133,-33.664 40.293,-37.793 18.828,-8.156 19.766,6.27 22.07,11.27 2.012,5.059 3.262,0.867 3.145,-3.93 -0.039,-3.133 1.133,-7.539 3.691,-7.976 5.156,-0.606 5.215,3.293 5.957,5.793 5.879,23.164 28.672,51.015 37.676,45.293 6.582,-4.2 10.488,-4.2 12.051,3.75 1.719,10.222 -6.172,19.617 -8.301,30.379 -2.207,12.492 -0.84,28.886 -5.605,31.164 -2.774,1.187 -6.602,-1.528 -8.75,-4.551 -2.872,-3.828 -2.872,-7.871 -3.848,-12.512 -0.469,-2.558 -10.86,-5.371 -12.031,-18.828 -0.098,-2.422 -4.043,2.434 -6.856,0 -5.781,-4.395 -4.746,-26.238 -6.601,-27.488 -2.168,-0.215 -4.766,2.207 -5.645,-0.949 0.469,-3.536 -1.484,-12.059 -3.184,-12.723 -1.425,-0.434 -2.929,1.308 -4.941,0.137 -4.98,-4.18 -2.969,-9.985 -7.773,-15.508 -2.93,-3.614 -4.942,-1.086 -5.274,2.078 -0.703,5.391 -5.019,13.508 -8.808,17.344 -11.094,11.457 -4.239,30.578 -19.922,38.527 -4.707,2.344 -4.981,4.629 -5.508,8.863 -0.176,4.653 -2.852,7.871 -5.274,8.489 -4.316,1.25 -5.058,3.593 -5.234,6.621 0.391,8.156 -5.684,8.507 -8.926,9.187 -7.656,0.735 -7.91,2.199 -5.508,21.328 0.704,4.614 0.743,9.934 -0.742,14.262 -4.004,5.898 -12.773,2.129 -11.562,11.758 0.918,6.328 12.246,14.558 17.09,19.773 2.929,3.301 4.804,11.836 -5.313,9.778 -22.969,-6.118 -41.289,-46.821 -45.605,-54.622 -16.614,-30.449 -31.059,-42.585 -44.575,-47.277 -6.32,-2.215 -28.203,-4.258 -32.675,17.192 -2.305,11.265 0.468,21.855 5.586,39.492 22.187,77.129 -2.598,62.429 9.531,88.113 7.812,8.73 18.906,7.539 30.156,8.898 2.492,0.332 1.602,3.575 0.996,4.532 -0.449,0.886 -3.066,1.992 -6.523,2.636 -3.438,0.586 -10.821,7.137 -11.465,14.2 -0.645,7.734 4.336,12.515 7.637,15.879 4.707,4.648 8.097,5.156 8.175,6.171 -0.285,4.122 -8.957,-1.664 -9.718,0 -1.836,6.407 3.476,12.286 6.992,16.422" /><path
         id="path30"
         style="fill:#ffffff;fill-opacity:1;fill-rule:nonzero;stroke:none"
         d="m 247.5,844.836 c -0.293,-2.793 -0.293,-7.133 3.438,-16.113 -3.731,-0.52 -5.997,-3.813 -9.266,-1.993 -10.207,5.586 -15.938,15.973 -19.25,26.493 -2.141,6.035 -1.934,13.215 -5.305,18.664 17.649,-1.184 30.586,-24.985 30.383,-27.051" /><path
         id="path32"
         style="fill:#231f20;fill-opacity:1;fill-rule:nonzero;stroke:none"
         d="m 390.004,842.043 c 0.937,0.281 1.269,-0.363 1.269,-0.742 -0.742,-12.578 -14.082,-37.727 -31.445,-42.207 -1.015,-0.215 -1.66,-0.078 -2.012,0.879 -1.582,8.75 3.926,23.613 18.047,29.043 6.992,2.714 10.293,7.363 14.141,13.027" /><path
         id="path34"
         style="fill:#231f20;fill-opacity:1;fill-rule:nonzero;stroke:none"
         d="m 331.547,792.629 c 0.82,-3.234 0.215,-3.457 -2.539,-1.621 -9.082,9.5 -16.817,7.058 -22.324,4.18 -2.676,-1.106 -3.496,-1.016 -2.715,1.406 8.359,12.793 23.594,6.472 27.578,-3.965" /><path
         id="path36"
         style="fill:#231f20;fill-opacity:1;fill-rule:nonzero;stroke:none"
         d="m 284.387,790.867 c 4.578,-6.558 2.586,-16.773 -1.379,-24.429 -3.145,-5.872 -8.301,-15.293 -10.313,-19.415 -0.84,-2.46 -2.636,-2.636 -4.14,-1.964 -1.504,0.293 5.558,12.058 7.566,25.847 0.813,5.664 -0.691,13.93 3.43,20.102 1.426,2.051 3.535,1.387 4.836,-0.141" /><path
         id="path38"
         style="fill:#231f20;fill-opacity:1;fill-rule:nonzero;stroke:none"
         d="m 322.797,784.688 c 3.32,-7.665 -4.805,-11.415 -9.551,-12.352 -3.32,-0.598 -5.82,0.352 -8.633,2.187 -1.562,1.114 -0.722,1.922 -1.953,2.5 -2.539,0.157 -1.933,-1.464 -4.672,-2.113 -1.894,-0.23 -2.05,0.649 -0.781,2.563 3.09,5.136 4.77,8.757 9.848,10.808 4.746,1.914 11.66,3.899 15.742,-3.593" /><path
         id="path40"
         style="fill:#231f20;fill-opacity:1;fill-rule:nonzero;stroke:none"
         d="m 296.172,752.48 c 3.949,-15.378 1.035,-21.328 -2.5,-25 -1.309,-1.191 -9.578,-2.664 -10.664,7.93 4.133,4.992 6.672,12.57 9.148,17.949 1.742,3.45 2.824,3.684 4.016,-0.879" /><path
         id="path42"
         style="fill:#231f20;fill-opacity:1;fill-rule:nonzero;stroke:none"
         d="m 265.527,709.973 c -1.789,-9.653 -5.742,-14.551 -12.597,-16.094 -7.989,-0.969 -11.399,7.871 -10.371,7.812 7.785,-1.418 15.996,3.004 20.898,9.317 1.172,1.68 2.363,0.515 2.07,-1.035" /><path
         id="path44"
         style="fill:#231f20;fill-opacity:1;fill-rule:nonzero;stroke:none"
         d="m 657.621,560.559 c 4.414,-1.407 6.25,-5.942 4.707,-8.528 -1.816,-4.187 -5.566,-7.051 -5.644,-11.086 -0.079,-3.386 -0.684,-5.445 -3.379,-6.328 -4.961,-0.523 -7.852,9.785 -12.305,2.629 -2.422,-3.672 -7.422,-1.16 -8.066,0.891 -0.879,3.172 -2.793,6.406 -5.977,6.543 -10.352,0.3 -12.91,16.492 -11.25,20.879 7.969,18.765 27.598,-0.059 41.914,-5" /><path
         id="path46"
         style="fill:#ffffff;fill-opacity:1;fill-rule:nonzero;stroke:none"
         d="m 250.508,563.66 c -5.449,-4.058 -9.121,-9.195 -12.129,-14.793 -6.524,-1.023 -17.078,-5.437 -24.617,-8.828 -2.785,-1.453 -13.391,-2.266 -22.961,-3.379 -1.465,0.149 -1.817,1.035 -1.817,2.207 -0.761,7.278 44.258,25.656 61.524,27.434 1.57,0 2.519,-0.742 0,-2.641" /><path
         id="path48"
         style="fill:#ffffff;fill-opacity:1;fill-rule:nonzero;stroke:none"
         d="m 844.613,470.559 c 1.407,-3.672 -2.48,-8.301 -6.523,-12.786 -3.985,-4.636 -21.172,-16.765 -35.508,-16.101 -3.965,0.586 -8.262,4.937 -6.914,10.215 1.387,4.492 15.215,5.664 25.84,9.336 7.754,2.644 11.426,4.277 17.558,8.98 3.868,2.922 4.747,1.176 5.547,0.356" /><path
         id="path50"
         style="fill:#ffffff;fill-opacity:1;fill-rule:nonzero;stroke:none"
         d="m 722.328,202.109 c 2.598,-0.086 2.227,0.801 4.492,0 2.012,-0.086 1.953,-8.757 1.68,-13.23 -0.488,-2.793 -1.152,-7.512 1.797,-9.649 2.637,-2.265 -3.477,-10.585 0.937,-14.621 2.442,-3.379 -2.734,-12.246 1.231,-17.136 1.933,0 3.398,-0.571 4.414,-2.168 -1.68,-10.266 2.91,-26.438 1.289,-31.125 -4.492,-7.063 -7.871,-6.348 -11.699,-17.9691 -5.781,-11.2304 -22.09,-4.2265 -18.887,4.8441 11.523,19.511 15.762,41.222 16.367,50.691 1.914,24.613 -11.054,63.75 -12.48,69.199 -0.313,4.922 0.742,7.875 4.629,3.45 5.722,-8.973 3.652,-21.766 6.23,-22.286" /><path
         id="path52"
         style="fill:#ffffff;fill-opacity:1;fill-rule:nonzero;stroke:none"
         d="m 301.918,411.379 -0.527,-2.363 c 0,0 -12.485,18.593 -15.102,22.5 -0.437,-5.45 -6.355,-78.606 -6.355,-78.606 h -2.043 c 0,0 -5.762,73.137 -6.192,78.606 -2.617,-3.907 -15.136,-22.5 -15.136,-22.5 0,0 -25.879,119.121 -27.735,127.722 -1.875,-8.601 -27.754,-127.722 -27.754,-127.722 0,0 -12.508,18.613 -15.136,22.5 -0.458,-5.762 -26.602,-334.1058 -26.602,-334.1058 0,0 0,-0.2149 -0.012,-0.3985 35.5,-23.4062 76.797,-35.8008 119.465,-35.8008 h 0.313 c 42.718,0 84.027,12.3946 119.476,35.8204 0,0.2265 0,0.457 0,0.457 0,0 -23.906,301.2417 -26.504,334.0277 -2.636,-3.907 -15.136,-22.5 -15.136,-22.5 0,0 -25.938,119.136 -27.813,127.734 -1.855,-8.598 -27.207,-125.371 -27.207,-125.371" /><path
         id="path54"
         style="fill:#231f20;fill-opacity:1;fill-rule:nonzero;stroke:none"
         d="M 399.613,97.4883 372.855,434.543 357.445,411.602 329.125,541.594 300.902,411.602 285.508,434.543 278.906,353 272.488,434.543 257.07,411.602 228.828,541.594 200.574,411.602 185.156,434.543 158.301,97.4883 v 0 -1.0508 c 34.492,-22.8711 76.023,-36.25 120.488,-36.25 h 0.313 c 44.613,0 86.058,13.3789 120.511,36.25 v 1.0508 0" /><path
         id="path56"
         style="fill:#ffffff;fill-opacity:1;fill-rule:nonzero;stroke:none"
         d="M 506.625,290.613 472.23,409.602 47.6758,290.195 73.9453,169.023 506.625,290.613" /><path
         id="path58"
         style="fill:#ed1c24;fill-opacity:1;fill-rule:nonzero;stroke:none"
         d="m 127.551,297.258 55.672,17.285 -9.817,-104.809 -38.894,-10.855 6.64,71.23 -16.718,-5.793 3.117,32.942" /><path
         id="path60"
         style="fill:#ed1c24;fill-opacity:1;fill-rule:nonzero;stroke:none"
         d="m 231.348,241.211 c -0.996,-10.867 -12.52,-20.117 -22.91,-23.289 -10.586,-2.754 -20.79,0.281 -19.766,11.25 1.035,11.387 12.566,20.965 23.027,23.687 10.371,2.981 20.645,-0.41 19.649,-11.648" /><path
         id="path62"
         style="fill:#ed1c24;fill-opacity:1;fill-rule:nonzero;stroke:none"
         d="m 256.984,335.266 72.141,20.429 -2.676,-30.254 -32.875,-8.996 -0.937,-11.035 28.832,8.008 -2.637,-26.98 -28.762,-8.165 -3.496,-36.671 -39.523,-11.141 9.933,104.805" /><path
         id="path64"
         style="fill:#ed1c24;fill-opacity:1;fill-rule:nonzero;stroke:none"
         d="m 422.055,340.203 c -5.762,3.867 -13.242,6.406 -22.129,3.969 -11.758,-3.32 -22.227,-14.942 -23.34,-26.391 -1.055,-11.422 8.301,-17.508 20,-14.195 9.043,2.488 16.543,8.223 23.398,16.043 l -4.863,-39.52 c -6.504,-4.687 -21.23,-10 -28.223,-11.972 -30.82,-8.625 -52.714,7.801 -49.902,37.578 2.832,30.586 29.981,61.988 61.68,70.965 8.808,2.492 17.773,3.593 25.879,2.929 l -2.5,-39.406" /><path
         id="path66"
         style="fill:#ffffff;fill-opacity:1;fill-rule:nonzero;stroke:none"
         d="m 240.949,150.281 c -0.695,-8.004 2.996,-12.207 8.668,-10.758 5.735,1.622 10.285,8.243 10.981,15.946 0.601,7.597 -2.668,12.668 -8.672,10.89 -5.957,-1.671 -10.293,-8.898 -10.977,-16.078 z m 38.914,11.157 c -1.836,-22.192 -15.937,-39.321 -31.972,-43.696 -16.036,-4.519 -27.957,5.403 -26.075,27.563 1.789,21.66 16.028,39.336 32.024,43.847 15.859,4.493 27.773,-6.086 26.023,-27.714 z m -11.035,44.121 c -0.293,-4.258 -3.203,-8.293 -6.426,-9.387 -3.211,-1.043 -5.332,1.894 -5.039,5.937 0.418,4.192 3.125,8.235 6.375,9.231 3.157,1.082 5.52,-1.66 5.09,-5.781 z m -16.75,-4.844 c -0.398,-4.172 -3.348,-8.203 -6.57,-9.426 -3.074,-0.73 -5.293,2.063 -4.981,6.262 0.196,4.273 3.133,8.301 6.309,8.941 3.242,1.281 5.586,-1.609 5.242,-5.777" /><path
         id="path68"
         style="fill:#ffffff;fill-opacity:1;fill-rule:nonzero;stroke:none"
         d="m 289.414,197.996 19.027,5.141 -3.886,-46.817 15.937,4.453 -1.836,-22.265 -35.023,-9.543 5.781,69.031" /><path
         id="path70"
         style="fill:#ffffff;fill-opacity:1;fill-rule:nonzero;stroke:none"
         d="m 329.379,209.172 18.32,4.859 13.906,-33.551 h 0.43 c -0.176,5.782 -0.547,11.422 -0.078,17.422 l 1.836,20.664 18.184,5.028 -5.762,-68.977 -18.242,-5.015 -13.653,31.543 -0.742,-0.137 c 0.235,-4.649 0.43,-8.879 0,-13.598 l -1.855,-22.515 -18.047,-4.907 5.703,69.184" /><path
         id="path72"
         style="fill:#ffffff;fill-opacity:1;fill-rule:nonzero;stroke:none"
         d="m 175.352,166.211 18.476,5.156 -3.027,-30.137 0.437,0.129 c 0.754,2.95 2.082,5.758 3.352,8.614 l 11.015,24.715 20.793,5.734 -19.23,-38.145 15.254,-30.531 -22.051,-6.172 -7.441,18.535 c -0.879,2.27 -2.285,4.375 -2.332,7.036 l -0.528,-0.129 -2.062,-28.887 -18.477,-5.0196 5.821,69.1016" /></g></g></svg>