<?xml version="1.0" encoding="UTF-8" standalone="no"?>
<!-- Created with Inkscape (http://www.inkscape.org/) -->

<svg
   version="1.1"
   id="svg2"
   width="1333.3333"
   height="1333.3333"
   viewBox="0 0 1333.3333 1333.3333"
   sodipodi:docname="M05_Standard_Logo_CMYK.eps"
   xmlns:inkscape="http://www.inkscape.org/namespaces/inkscape"
   xmlns:sodipodi="http://sodipodi.sourceforge.net/DTD/sodipodi-0.dtd"
   xmlns="http://www.w3.org/2000/svg"
   xmlns:svg="http://www.w3.org/2000/svg">
  <defs
     id="defs6" />
  <sodipodi:namedview
     id="namedview4"
     pagecolor="#ffffff"
     bordercolor="#000000"
     borderopacity="0.25"
     inkscape:showpageshadow="2"
     inkscape:pageopacity="0.0"
     inkscape:pagecheckerboard="0"
     inkscape:deskcolor="#d1d1d1" />
  <g
     id="g8"
     inkscape:groupmode="layer"
     inkscape:label="ink_ext_XXXXXX"
     transform="matrix(1.3333333,0,0,-1.3333333,0,1333.3333)">
    <g
       id="g10"
       transform="scale(0.1)">
      <path
         d="m 5000,807.871 c 2485.31,0 4500,1876.889 4500,4192.149 0,2315.25 -2014.69,4192.11 -4500,4192.11 C 2514.73,9192.13 500,7315.27 500,5000.02 500,2684.76 2514.73,807.871 5000,807.871 v 0"
         style="fill:#ffffff;fill-opacity:1;fill-rule:nonzero;stroke:none"
         id="path12" />
      <path
         d="m 3371.89,4144.41 c -108.67,-8.76 -214.94,50.33 -304.46,156.36 -120.55,142.75 -210.75,370.56 -235.57,632.35 -43.26,456.16 128.36,842.63 383.36,863.23 255,20.55 496.79,-332.55 540.05,-788.71 27.38,-288.62 -31.28,-549.33 -142.64,-706.87 -64.66,-91.84 -147.08,-148.79 -240.74,-156.36 z m 882.14,822.91 c -87.15,919.07 -585.56,1629.5 -1113.24,1586.91 -527.67,-42.58 -884.76,-822.12 -797.6,-1741.14 17.08,-180.12 49.96,-352.26 95.77,-512.32 187.9,-656.3 593.23,-1108.81 1017.47,-1074.58 393.01,31.74 691.39,472.23 782.08,1074.68 31.08,206.43 37.77,431.92 15.52,666.45 v 0"
         style="fill:#ed1c24;fill-opacity:1;fill-rule:nonzero;stroke:none"
         id="path14" />
      <path
         d="m 5008.31,1285.78 h -16.16 c -323.29,1.57 -672.32,50.6 -971.57,119.64 515.93,890.23 599.26,1766.9 599.26,1766.9 V 6053.3 L 2921.8,7546.92 C 2252.45,7006.13 1830.55,6210.85 1830.55,5323.85 c 0,-1206.67 783.32,-2247.16 1906.69,-2704.76 L 3380.96,1618.4 C 1974.91,2199.95 994.824,3503.44 994.824,5018.17 c 0,1792.54 1373.426,3287.73 3200.386,3642.23 16.92,2.86 33.27,4.37 51.17,4.37 150.35,0 272.25,-105.9 272.25,-236.55 0,-99.38 -70.5,-184.4 -170.4,-219.45 -328.94,-65.19 -638.85,-177.08 -921.29,-327.81 l 1565.21,-1372.79 1579.8,1373.37 c -282.12,150.42 -591.68,262.11 -920.2,327.23 -99.9,35.05 -170.36,120.07 -170.36,219.45 0,130.65 121.91,236.55 272.22,236.55 17.94,0 34.24,-1.51 51.18,-4.37 1826.94,-354.5 3200.42,-1849.69 3200.42,-3642.23 0,-1514.73 -980.11,-2818.22 -2386.14,-3399.77 l -356.31,1000.69 c 1123.37,457.6 1906.69,1498.09 1906.69,2704.76 0,886.89 -421.8,1682.08 -1091.01,2222.87 L 5380.61,6053.3 V 3172.32 c 0,0 83.35,-876.67 599.28,-1766.9 -299.23,-69.04 -648.31,-118.07 -971.58,-119.64 v 0 0"
         style="fill:#ed1c24;fill-opacity:1;fill-rule:nonzero;stroke:none"
         id="path16" />
      <path
         d="m 7490.31,5260.23 c 113.67,-606.7 -286.61,-1442.94 -1061.35,-2009.16 -125.32,-91.6 -152.7,-142.47 -243.04,-190.23 l -177.36,514.26 c 107.06,50.87 147.15,74.67 287.68,177.35 364.56,266.47 560.8,624.65 504.38,926 -38.39,204.93 -197.68,407.67 -463.54,213.39 C 6135.8,4744.73 6015,4628.98 5846.35,4446.31 l 3.99,1475.47 1224.52,1049.41 -11.11,-654.82 -648.83,-512.77 5.83,-434.3 c 47.86,44.11 88.91,78.68 180.08,145.3 425.28,310.86 805.21,195.69 889.48,-254.37 v 0 0"
         style="fill:#ed1c24;fill-opacity:1;fill-rule:nonzero;stroke:none"
         id="path18" />
      <path
         d="m 5000.01,8935.48 c -2330.46,0 -4226.432,-1765.44 -4226.432,-3935.46 0,-2170.06 1895.972,-3935.5 4226.432,-3935.5 2330.44,0 4226.43,1765.44 4226.43,3935.5 0,2170.02 -1895.99,3935.46 -4226.43,3935.46 z m 0,-7923.32 c -2359.34,0 -4278.799,1788.95 -4278.799,3987.86 0,2198.9 1919.459,3987.82 4278.799,3987.82 2359.32,0 4278.79,-1788.92 4278.79,-3987.82 0,-2198.91 -1919.47,-3987.86 -4278.79,-3987.86"
         style="fill:#ed1c24;fill-opacity:1;fill-rule:nonzero;stroke:none"
         id="path20" />
    </g>
  </g>
</svg>
