<svg id="svg" version="1.1" xmlns="http://www.w3.org/2000/svg" xmlns:xlink="http://www.w3.org/1999/xlink" width="400" height="283.0102622576967" viewBox="0, 0, 400,283.0102622576967"><g id="svgg"><path id="path0" d="M27.000 73.831 C 27.066 74.051,28.105 77.771,29.308 82.098 C 30.511 86.425,31.700 90.658,31.949 91.505 L 32.402 93.044 40.015 93.044 L 47.627 93.044 47.861 93.786 C 47.990 94.193,53.444 113.820,59.981 137.400 C 66.518 160.981,72.021 180.812,72.210 181.471 L 72.552 182.668 97.181 182.668 C 120.530 182.668,121.803 182.647,121.691 182.269 C 121.626 182.050,118.431 170.274,114.592 156.100 C 110.754 141.927,107.561 130.151,107.497 129.932 C 107.388 129.557,107.833 129.532,114.604 129.532 C 120.543 129.532,121.807 129.587,121.710 129.838 C 119.299 136.121,118.594 148.631,120.205 156.547 C 127.412 191.975,173.905 207.184,203.804 183.893 L 205.670 182.440 289.977 182.440 C 370.157 182.440,374.278 182.421,374.178 182.041 C 374.120 181.822,369.670 165.967,364.288 146.808 L 354.504 111.974 281.582 111.973 L 208.660 111.973 206.939 110.268 C 188.652 92.158,154.720 91.975,135.202 109.880 L 133.916 111.060 118.173 111.060 L 102.430 111.060 102.196 110.319 C 101.775 108.989,97.834 94.213,97.834 93.967 C 97.834 93.801,126.285 93.729,191.106 93.729 C 242.406 93.729,284.374 93.703,284.369 93.672 C 284.363 93.640,283.157 89.099,281.689 83.580 L 279.019 73.546 152.949 73.489 C 32.949 73.434,26.885 73.451,27.000 73.831 M71.675 117.104 C 78.295 140.676,82.741 156.893,82.629 157.051 C 80.313 160.316,79.808 161.530,79.647 164.223 C 79.346 169.275,82.338 173.789,87.132 175.513 C 88.130 175.872,88.940 177.289,88.940 178.677 C 88.940 178.744,85.947 178.771,82.290 178.738 L 75.640 178.677 63.195 133.922 L 50.750 89.168 43.098 89.168 L 35.445 89.168 33.880 83.523 C 33.019 80.419,32.268 77.750,32.210 77.592 C 32.126 77.364,34.979 77.317,46.319 77.364 L 60.533 77.423 71.675 117.104 M71.152 77.822 C 71.465 78.555,92.132 152.765,92.132 153.155 C 92.132 153.383,91.846 153.478,91.149 153.478 C 90.609 153.478,89.318 153.692,88.281 153.954 C 87.245 154.217,86.366 154.396,86.330 154.354 C 86.249 154.258,64.964 78.537,64.818 77.822 C 64.713 77.310,64.719 77.309,67.823 77.309 C 70.832 77.309,70.941 77.326,71.152 77.822 M275.797 77.490 C 275.859 77.589,276.590 80.232,277.421 83.362 C 278.253 86.492,278.986 89.233,279.049 89.453 C 279.159 89.832,274.614 89.852,185.876 89.852 C 120.156 89.852,92.588 89.923,92.588 90.094 C 92.588 90.313,98.069 110.876,98.891 113.740 L 99.234 114.937 114.725 114.937 C 123.246 114.937,130.217 115.000,130.217 115.077 C 130.217 115.153,129.824 115.692,129.345 116.274 C 127.837 118.103,126.437 120.207,124.924 122.919 L 123.461 125.542 112.790 125.601 C 104.154 125.649,102.141 125.717,102.233 125.956 C 102.296 126.119,105.491 137.894,109.334 152.123 C 113.177 166.351,116.376 178.174,116.444 178.396 C 116.559 178.775,116.191 178.795,110.110 178.738 L 103.653 178.677 102.591 174.831 C 101.532 170.993,101.530 170.982,101.945 170.270 C 104.845 165.286,103.012 158.372,98.014 155.443 L 97.031 154.867 86.225 116.373 C 80.282 95.201,75.372 77.751,75.313 77.594 C 75.192 77.266,275.595 77.162,275.797 77.490 M176.671 101.400 L 177.856 101.543 179.427 107.955 C 180.290 111.482,180.988 114.380,180.977 114.396 C 180.967 114.412,180.034 114.222,178.905 113.975 C 157.595 109.299,135.737 129.913,139.438 151.197 C 143.793 176.247,175.888 187.861,195.284 171.406 L 196.798 170.122 196.953 170.751 C 197.038 171.097,197.749 173.740,198.532 176.625 L 199.955 181.870 199.351 182.395 C 193.281 187.660,180.986 191.563,170.469 191.562 C 134.446 191.559,111.529 154.173,129.172 124.195 C 137.082 110.754,150.662 102.548,167.275 101.170 C 168.700 101.052,175.080 101.208,176.671 101.400 M196.905 105.957 C 197.657 107.600,197.718 107.440,196.066 108.159 C 191.386 110.198,186.670 114.564,184.256 119.093 C 183.870 119.817,183.419 120.410,183.254 120.410 C 182.991 120.410,180.868 119.560,180.646 119.366 C 180.505 119.243,182.196 116.283,183.306 114.709 C 185.475 111.633,189.422 108.070,192.349 106.545 C 193.304 106.048,196.137 104.704,196.277 104.681 C 196.300 104.678,196.582 105.252,196.905 105.957 M351.427 116.135 C 351.548 116.417,355.503 130.399,360.215 147.206 C 364.928 164.014,368.836 177.945,368.900 178.164 C 369.010 178.544,365.112 178.563,289.295 178.563 L 209.574 178.563 211.304 176.568 C 214.192 173.238,217.420 168.033,219.007 164.149 L 219.353 163.304 217.829 163.237 L 216.306 163.170 216.138 161.460 C 214.701 146.764,209.332 135.983,199.459 127.972 L 197.893 126.700 195.986 128.672 C 193.455 131.290,191.272 134.657,189.979 137.938 L 189.538 139.055 190.835 139.936 C 197.427 144.418,203.699 154.716,206.060 164.934 C 206.535 166.992,206.599 166.867,204.918 167.177 C 203.328 167.471,203.549 167.705,202.843 164.980 C 200.596 156.295,197.001 149.903,191.334 144.514 C 188.596 141.911,188.563 141.902,188.027 143.672 C 187.569 145.186,187.572 145.185,185.902 144.689 C 184.449 144.257,184.453 144.372,185.756 140.492 C 189.305 129.925,195.340 123.117,205.754 117.933 C 210.043 115.797,211.471 115.773,209.971 117.862 C 209.260 118.851,209.202 119.024,209.535 119.152 C 209.808 119.257,209.424 119.519,208.210 120.055 C 206.222 120.934,205.440 121.371,202.556 123.218 C 201.391 123.964,200.467 124.647,200.504 124.735 C 200.540 124.824,201.340 125.554,202.281 126.358 C 211.937 134.609,217.405 145.429,219.038 159.523 C 219.241 161.269,219.446 162.738,219.495 162.787 C 219.656 162.947,221.195 157.745,221.654 155.494 C 224.428 141.866,221.213 128.571,212.116 116.052 C 211.809 115.630,213.224 115.621,281.505 115.621 L 351.207 115.621 351.427 116.135 M180.885 120.861 C 181.239 121.298,181.310 121.621,181.202 122.300 C 181.109 122.882,181.216 123.674,181.523 124.667 C 182.126 126.620,182.105 127.600,181.414 129.577 C 180.725 131.549,180.708 132.136,181.300 133.637 C 181.921 135.213,181.875 136.397,181.072 139.490 C 180.228 142.741,180.221 142.426,181.200 145.786 C 182.654 150.778,182.943 151.515,184.170 153.364 C 185.627 155.561,185.920 156.442,185.191 156.442 C 184.763 156.442,184.716 156.538,184.826 157.184 C 184.895 157.591,185.208 159.544,185.520 161.522 C 185.832 163.501,186.242 165.489,186.430 165.940 C 186.863 166.974,186.867 167.711,186.442 168.064 C 186.260 168.215,185.812 168.869,185.446 169.517 C 184.287 171.570,182.392 173.026,179.600 174.007 C 178.967 174.229,178.258 174.489,178.024 174.584 C 177.638 174.740,177.625 174.705,177.887 174.216 L 178.175 173.677 177.558 174.082 L 176.941 174.486 177.299 173.793 L 177.658 173.100 176.913 173.244 L 176.169 173.388 176.625 172.867 L 177.081 172.345 176.548 172.511 C 176.023 172.675,176.021 172.670,176.404 172.085 C 176.787 171.500,176.785 171.494,176.187 171.494 L 175.583 171.494 176.332 170.855 C 176.744 170.504,177.605 169.887,178.245 169.484 C 180.533 168.046,180.532 168.115,178.277 165.841 C 175.262 162.800,174.868 162.003,173.651 156.499 C 173.589 156.217,173.400 155.986,173.232 155.986 C 172.999 155.986,173.079 156.539,173.570 158.324 C 174.378 161.258,174.439 160.939,172.843 162.144 C 170.300 164.062,168.856 166.499,168.184 170.002 C 167.852 171.736,167.413 172.275,166.477 172.101 C 166.163 172.042,165.239 171.876,164.424 171.730 C 161.078 171.133,160.539 170.985,158.963 170.230 C 158.058 169.796,157.095 169.438,156.823 169.434 C 156.363 169.427,156.357 169.405,156.727 169.124 C 157.281 168.704,157.235 168.610,156.385 168.422 L 155.644 168.257 156.385 167.936 C 157.286 167.547,157.293 167.494,156.499 167.063 L 155.872 166.723 156.613 166.714 C 157.481 166.703,157.558 166.446,156.842 165.946 L 156.328 165.588 156.969 165.576 C 157.377 165.569,157.553 165.473,157.454 165.312 C 157.352 165.148,157.447 165.105,157.725 165.190 C 157.960 165.261,158.662 165.431,159.284 165.568 C 159.906 165.704,160.521 165.895,160.652 165.992 C 160.900 166.176,162.618 166.705,162.968 166.704 C 163.079 166.704,163.172 165.293,163.175 163.569 C 163.184 158.993,164.091 157.090,167.630 154.229 C 169.825 152.455,170.013 152.380,170.696 153.022 C 171.737 154.000,171.284 153.290,170.132 152.138 C 169.186 151.192,168.915 150.722,168.497 149.302 L 167.997 147.599 166.807 148.008 C 161.253 149.919,158.716 149.523,154.390 146.067 C 153.198 145.115,152.018 144.196,151.767 144.024 C 151.320 143.719,151.322 143.709,151.878 143.496 L 152.444 143.280 151.935 143.118 C 151.227 142.894,151.297 142.534,152.052 142.519 L 152.680 142.507 152.166 142.150 C 151.383 141.603,151.533 141.318,152.505 141.500 C 153.334 141.656,153.347 141.648,152.961 141.223 C 152.415 140.619,152.466 140.445,153.138 140.614 C 153.602 140.730,153.684 140.688,153.570 140.390 C 153.054 139.046,157.770 142.417,158.680 144.043 C 158.842 144.333,159.284 144.165,161.364 143.025 C 162.734 142.274,164.444 141.373,165.165 141.022 C 165.887 140.671,166.477 140.304,166.477 140.207 C 166.477 140.110,166.134 140.194,165.714 140.394 L 164.952 140.757 161.210 138.865 C 156.037 136.249,154.478 134.584,153.328 130.448 C 153.019 129.337,152.803 128.975,152.288 128.709 C 151.503 128.303,151.629 127.953,152.503 128.112 L 153.136 128.227 152.623 127.668 C 151.956 126.941,151.974 126.756,152.686 127.026 C 153.210 127.226,153.241 127.206,153.028 126.808 C 152.621 126.048,152.771 126.005,153.475 126.680 C 154.259 127.430,154.505 127.356,154.168 126.471 C 153.872 125.691,153.870 125.361,154.162 125.542 C 154.287 125.619,154.390 125.574,154.390 125.441 C 154.390 123.808,157.152 127.429,157.946 130.103 C 158.478 131.894,158.057 131.652,162.717 132.854 C 164.973 133.436,166.851 133.942,166.890 133.979 C 166.930 134.016,166.609 134.750,166.177 135.609 C 165.338 137.280,164.888 139.111,165.316 139.111 C 165.453 139.111,165.564 138.962,165.564 138.780 C 165.564 136.283,167.720 133.098,170.345 131.719 C 172.550 130.560,172.538 130.108,170.296 129.903 C 168.612 129.750,167.971 129.381,168.227 128.712 C 168.363 128.357,169.477 128.317,171.437 128.596 C 172.511 128.749,172.634 128.723,172.634 128.344 C 172.634 127.951,172.471 127.932,170.296 128.065 C 166.782 128.280,164.949 127.390,165.499 125.736 C 165.762 124.948,166.477 124.710,166.477 125.411 C 166.477 126.497,167.196 126.796,169.811 126.796 C 172.796 126.796,172.777 126.404,169.763 125.772 C 165.463 124.870,164.693 122.520,168.529 122.005 C 169.823 121.831,170.619 121.604,170.924 121.321 C 172.435 119.916,179.843 119.574,180.885 120.861 M145.371 143.158 C 146.714 145.618,150.504 148.001,155.131 149.297 C 156.354 149.640,157.355 150.012,157.355 150.125 C 157.355 150.788,156.590 152.794,156.338 152.794 C 152.962 152.794,145.862 148.817,143.181 145.425 C 142.077 144.028,142.070 144.073,143.501 143.239 C 144.965 142.386,144.949 142.386,145.371 143.158 M94.918 158.021 C 102.335 161.587,99.921 172.346,91.676 172.468 C 82.825 172.599,80.340 161.303,88.465 157.876 C 90.170 157.157,93.266 157.226,94.918 158.021 M98.893 176.523 C 99.185 177.583,99.424 178.526,99.426 178.620 C 99.428 178.714,98.042 178.791,96.346 178.791 L 93.261 178.791 93.022 178.164 C 92.390 176.505,92.430 176.407,93.881 176.105 C 94.612 175.953,95.827 175.528,96.579 175.162 C 98.338 174.305,98.273 174.267,98.893 176.523 " stroke="none" fill="#fbda05" fill-rule="evenodd"></path><path id="path1" d="M21.026 69.145 C 20.876 69.295,20.753 69.632,20.753 69.893 C 20.753 70.843,28.251 97.426,28.640 97.856 C 29.009 98.263,29.437 98.290,35.733 98.290 C 43.937 98.290,43.781 98.250,44.442 100.495 C 44.695 101.352,50.149 120.983,56.562 144.120 C 62.976 167.257,68.324 186.376,68.447 186.605 C 68.896 187.443,69.440 187.457,101.910 187.457 L 134.006 187.457 136.173 188.997 C 155.602 202.802,182.941 203.315,202.623 190.243 C 204.128 189.243,205.555 188.208,205.794 187.941 L 206.228 187.457 292.411 187.457 C 382.753 187.457,379.475 187.496,379.475 186.422 C 379.475 185.801,358.149 108.728,357.794 108.064 C 357.672 107.836,357.376 107.545,357.136 107.417 C 356.842 107.259,332.923 107.184,283.390 107.184 L 210.080 107.184 208.547 105.794 C 205.924 103.417,201.461 100.296,198.518 98.780 L 197.605 98.310 243.473 98.300 C 284.431 98.291,289.371 98.252,289.630 97.939 C 289.977 97.522,282.628 70.549,281.898 69.555 L 281.479 68.985 151.389 68.928 C 50.397 68.884,21.239 68.932,21.026 69.145 M281.618 83.296 C 283.048 88.721,284.264 93.287,284.322 93.444 C 284.406 93.671,265.672 93.729,191.130 93.729 C 131.045 93.729,97.834 93.807,97.834 93.950 C 97.834 94.135,101.925 109.435,102.302 110.661 C 102.488 111.264,133.856 111.282,134.351 110.679 C 136.913 107.556,146.431 101.693,152.442 99.535 C 170.917 92.901,194.213 97.536,207.082 110.405 L 208.650 111.973 281.582 111.973 L 354.514 111.973 364.267 146.693 C 369.631 165.790,374.079 181.645,374.152 181.927 L 374.284 182.440 289.961 182.440 L 205.638 182.440 204.043 183.729 C 175.460 206.822,129.304 192.851,120.655 158.489 C 118.551 150.129,119.028 136.765,121.673 129.932 C 121.818 129.557,121.390 129.532,114.604 129.532 C 107.831 129.532,107.388 129.557,107.500 129.932 C 107.566 130.151,110.760 141.927,114.599 156.100 C 118.438 170.274,121.630 182.050,121.694 182.269 C 121.804 182.647,120.528 182.668,97.171 182.668 L 72.533 182.668 72.192 181.471 C 72.004 180.812,66.556 161.186,60.085 137.856 C 53.614 114.527,48.164 94.902,47.975 94.245 L 47.632 93.050 39.974 92.990 L 32.315 92.930 29.753 83.760 C 28.344 78.716,27.126 74.329,27.046 74.011 L 26.901 73.432 152.960 73.433 L 279.019 73.434 281.618 83.296 M64.765 77.480 C 64.763 77.713,86.254 154.251,86.356 154.374 C 86.400 154.428,87.003 154.293,87.695 154.075 C 88.387 153.857,89.678 153.617,90.564 153.543 L 92.175 153.408 92.047 152.764 C 91.844 151.749,71.388 78.395,71.148 77.822 C 70.932 77.305,64.769 76.975,64.765 77.480 M212.116 116.051 C 226.502 135.803,226.046 160.138,210.974 176.972 L 209.549 178.563 289.283 178.563 C 365.113 178.563,369.010 178.544,368.896 178.164 C 368.829 177.945,364.920 164.014,360.207 147.206 C 355.494 130.399,351.542 116.417,351.423 116.135 L 351.207 115.621 281.505 115.621 C 213.279 115.621,211.810 115.631,212.116 116.051 M234.041 124.346 C 240.037 146.414,246.035 167.905,246.262 168.132 C 246.893 168.763,251.372 168.609,251.626 167.947 C 251.718 167.707,240.529 126.347,238.627 119.897 C 238.519 119.530,238.780 119.498,241.937 119.498 L 245.364 119.498 245.623 120.468 C 245.766 121.001,248.797 132.211,252.360 145.379 C 259.905 173.270,259.755 172.353,256.963 173.420 C 255.261 174.070,240.674 173.849,239.166 173.151 C 235.431 171.422,235.594 171.850,228.060 144.014 C 224.529 130.969,221.588 120.117,221.523 119.897 C 221.414 119.525,221.782 119.498,227.066 119.500 L 232.725 119.502 234.041 124.346 M269.116 133.955 C 273.616 141.844,277.334 148.334,277.379 148.378 C 277.423 148.422,275.684 142.071,273.514 134.263 C 271.344 126.456,269.566 119.940,269.562 119.783 C 269.557 119.569,270.330 119.499,272.691 119.499 L 275.827 119.500 283.190 146.466 C 287.240 161.297,290.550 173.511,290.545 173.607 C 290.540 173.703,288.000 173.755,284.901 173.721 L 279.266 173.660 271.168 158.449 C 266.715 150.083,263.048 143.261,263.020 143.289 C 262.992 143.317,264.846 150.162,267.139 158.500 L 271.308 173.660 267.891 173.723 C 266.012 173.758,264.436 173.748,264.389 173.701 C 264.318 173.630,250.077 122.060,249.593 120.121 L 249.435 119.490 255.185 119.551 L 260.934 119.612 269.116 133.955 M296.058 146.522 C 300.162 161.323,303.523 173.511,303.527 173.608 C 303.531 173.705,301.573 173.756,299.176 173.722 L 294.816 173.660 287.323 146.636 C 283.201 131.773,279.826 119.584,279.823 119.550 C 279.820 119.516,281.793 119.516,284.206 119.550 L 288.595 119.612 296.058 146.522 M317.340 120.299 C 319.657 121.485,319.277 120.410,325.920 144.584 C 332.614 168.943,332.649 169.117,331.419 171.418 C 330.223 173.655,329.645 173.775,320.091 173.769 C 308.222 173.762,308.543 174.036,304.367 160.295 C 298.944 142.450,295.099 127.631,295.098 124.565 C 295.096 122.126,296.340 120.467,298.744 119.704 C 299.059 119.604,303.069 119.542,307.656 119.567 L 315.997 119.612 317.340 120.299 M342.189 133.964 C 346.705 141.913,350.417 148.400,350.438 148.380 C 350.460 148.360,348.740 142.085,346.616 134.434 C 344.492 126.784,342.693 120.294,342.618 120.011 L 342.482 119.498 345.674 119.498 L 348.867 119.498 349.346 121.266 C 349.609 122.238,352.940 134.452,356.747 148.407 L 363.670 173.782 357.991 173.721 L 352.311 173.660 344.310 158.660 C 339.910 150.410,336.266 143.703,336.214 143.755 C 336.136 143.834,343.951 172.591,344.295 173.489 C 344.380 173.710,343.610 173.774,340.901 173.774 L 337.398 173.774 330.011 147.035 C 325.949 132.329,322.576 120.117,322.517 119.897 C 322.417 119.525,322.794 119.499,328.195 119.506 L 333.979 119.513 342.189 133.964 M178.809 121.155 C 178.035 121.550,177.866 122.131,178.590 121.910 C 178.889 121.819,179.441 121.669,179.818 121.577 C 180.488 121.413,180.492 121.405,180.004 121.138 C 179.403 120.811,179.486 120.810,178.809 121.155 M171.641 122.508 C 171.419 123.334,171.467 123.603,171.836 123.603 C 172.024 123.603,172.178 123.449,172.178 123.261 C 172.178 122.767,172.560 122.840,172.696 123.360 C 172.780 123.681,172.945 123.767,173.298 123.675 C 173.777 123.549,173.778 123.538,173.369 122.834 C 172.835 121.916,171.849 121.730,171.641 122.508 M307.868 124.726 L 306.385 124.857 306.433 125.998 C 306.496 127.489,309.307 138.703,312.206 149.031 C 313.474 153.546,314.970 158.924,315.531 160.982 C 317.334 167.593,317.858 168.301,320.945 168.301 C 323.169 168.301,323.723 168.031,323.555 167.027 C 323.494 166.662,320.914 157.165,317.822 145.923 C 314.730 134.680,312.201 125.426,312.201 125.357 C 312.201 124.582,311.172 124.432,307.868 124.726 M96.579 175.162 C 95.827 175.528,94.617 175.952,93.892 176.103 C 92.461 176.400,92.411 176.534,93.068 178.278 C 93.263 178.795,99.437 179.127,99.426 178.620 C 99.415 178.071,98.329 174.589,98.156 174.546 C 98.041 174.518,97.332 174.795,96.579 175.162 " stroke="none" fill="#fbfbfa" fill-rule="evenodd"></path><path id="path2" d="M194.125 105.687 C 188.596 108.378,184.496 112.306,181.305 117.969 C 180.896 118.696,180.599 119.322,180.645 119.359 C 180.897 119.562,183.360 120.477,183.430 120.394 C 183.476 120.340,183.942 119.554,184.467 118.647 C 187.061 114.159,191.143 110.418,195.736 108.318 C 197.659 107.439,197.643 107.484,196.714 105.639 L 196.224 104.665 194.125 105.687 M209.008 116.524 C 208.632 116.615,207.157 117.278,205.731 117.996 C 194.801 123.500,188.926 130.313,185.410 141.561 C 184.535 144.363,184.508 144.205,185.938 144.656 C 187.610 145.183,187.563 145.206,188.031 143.661 C 188.611 141.744,188.484 141.695,191.983 145.195 C 197.387 150.602,200.655 156.488,202.780 164.640 C 203.158 166.089,203.488 167.298,203.514 167.326 C 203.646 167.469,206.385 166.823,206.385 166.649 C 206.385 166.096,205.158 161.713,204.334 159.324 C 201.339 150.638,196.792 144.285,190.091 139.424 L 189.423 138.939 190.814 136.108 C 192.370 132.941,194.195 130.363,196.425 128.184 L 197.921 126.721 198.675 127.298 C 208.502 134.802,214.802 146.708,216.012 160.061 L 216.280 163.012 217.736 163.168 C 219.570 163.365,219.453 163.650,219.046 159.974 C 217.454 145.612,211.976 134.667,202.181 126.276 C 201.295 125.517,200.539 124.821,200.502 124.728 C 200.347 124.348,205.986 120.973,209.391 119.409 C 209.631 119.298,209.633 119.243,209.403 119.136 C 209.198 119.041,209.356 118.671,209.943 117.871 C 210.400 117.249,210.735 116.707,210.689 116.665 C 210.444 116.447,209.611 116.377,209.008 116.524 M172.520 120.452 C 172.144 120.587,171.494 120.952,171.075 121.264 C 170.505 121.690,169.850 121.886,168.453 122.051 C 166.105 122.329,165.752 122.613,166.359 123.739 C 167.015 124.959,167.605 125.306,169.800 125.767 C 172.152 126.260,172.634 126.634,172.634 127.965 L 172.634 128.907 171.665 128.721 C 169.697 128.343,168.423 128.450,168.345 129.000 C 168.262 129.583,168.592 129.720,170.628 129.945 C 172.577 130.160,172.603 130.571,170.730 131.537 C 167.853 133.020,166.665 134.507,165.888 137.603 C 165.679 138.432,165.410 139.111,165.289 139.111 C 164.880 139.111,165.346 137.196,166.144 135.594 C 166.577 134.726,166.906 133.995,166.875 133.969 C 166.844 133.943,165.125 133.497,163.056 132.976 C 158.103 131.731,158.466 131.942,157.867 129.961 C 157.047 127.252,155.904 127.075,153.055 129.215 C 152.829 129.385,154.305 133.104,155.065 134.280 C 156.215 136.059,157.420 136.943,161.542 139.031 L 164.965 140.765 165.722 140.357 C 166.139 140.133,166.533 140.004,166.600 140.070 C 166.666 140.136,164.954 141.134,162.796 142.287 C 159.415 144.094,158.843 144.334,158.664 144.015 C 158.067 142.948,155.710 140.893,155.429 141.194 C 155.386 141.240,154.827 142.098,154.187 143.101 L 153.022 144.926 153.877 145.667 C 158.166 149.387,161.199 149.938,166.795 148.013 L 168.071 147.574 168.205 148.188 C 168.605 150.021,169.164 151.148,170.182 152.177 C 171.419 153.426,171.564 153.712,170.602 153.001 L 169.938 152.510 168.212 153.808 C 164.142 156.871,162.878 159.521,163.111 164.495 L 163.216 166.733 162.281 166.578 C 161.766 166.493,161.145 166.318,160.900 166.189 C 160.655 166.060,159.973 165.828,159.385 165.673 L 158.315 165.390 157.939 167.444 C 157.732 168.574,157.593 169.524,157.630 169.556 C 158.439 170.263,162.030 171.494,163.284 171.494 C 163.740 171.494,164.658 171.656,165.324 171.853 C 167.394 172.468,167.728 172.184,168.298 169.327 C 168.870 166.460,170.396 164.090,173.150 161.795 L 174.236 160.889 173.563 158.424 C 172.981 156.287,172.941 155.968,173.266 156.031 C 173.538 156.083,173.743 156.608,174.009 157.926 C 174.782 161.754,175.366 162.846,178.178 165.728 C 179.930 167.524,180.186 167.881,179.936 168.182 C 179.717 168.445,177.879 169.859,177.246 170.250 C 176.996 170.405,178.969 173.983,179.309 173.992 C 180.928 174.033,183.956 171.823,185.388 169.555 C 185.890 168.760,186.407 168.044,186.537 167.964 C 186.877 167.754,186.828 166.891,186.422 165.919 C 186.118 165.192,185.332 161.011,184.844 157.526 C 184.706 156.535,184.733 156.442,185.163 156.442 C 185.954 156.442,185.669 155.664,183.911 153.022 C 183.247 152.023,182.689 150.759,182.202 149.145 C 181.804 147.828,181.222 145.929,180.909 144.926 C 180.253 142.817,180.293 141.931,181.188 138.894 C 181.875 136.563,181.900 135.404,181.300 133.697 C 180.720 132.047,180.730 131.049,181.339 129.761 C 181.964 128.439,182.008 126.026,181.439 124.341 C 181.170 123.545,181.082 122.848,181.179 122.273 C 181.473 120.535,181.041 120.336,176.828 120.267 C 174.668 120.232,172.928 120.307,172.520 120.452 M180.310 121.209 C 180.385 121.449,178.187 122.239,177.990 122.042 C 177.927 121.978,178.104 121.683,178.383 121.386 C 178.901 120.834,180.157 120.719,180.310 121.209 M173.332 122.600 C 173.752 123.279,173.785 123.457,173.522 123.623 C 173.045 123.925,172.904 123.879,172.608 123.327 L 172.338 122.822 172.137 123.365 C 171.828 124.201,171.401 123.599,171.590 122.594 C 171.804 121.452,172.625 121.455,173.332 122.600 M143.501 143.239 C 142.093 144.060,142.134 143.916,142.968 145.113 C 144.769 147.697,148.058 150.069,151.706 151.416 C 152.843 151.836,156.152 152.794,156.465 152.794 C 156.586 152.794,157.355 150.400,157.355 150.021 C 157.355 149.955,156.765 149.771,156.043 149.611 C 151.452 148.593,146.911 145.866,145.317 143.167 C 144.860 142.393,144.960 142.389,143.501 143.239 " stroke="none" fill="#070604" fill-rule="evenodd"></path><path id="path3" d="M32.377 77.592 C 32.374 77.750,33.066 80.418,33.916 83.522 L 35.462 89.164 43.158 89.166 C 47.392 89.167,50.855 89.223,50.855 89.290 C 50.855 89.395,74.402 174.169,75.383 177.594 L 75.725 178.791 82.348 178.791 C 88.547 178.791,88.963 178.766,88.855 178.392 C 88.792 178.173,88.616 177.558,88.463 177.026 C 88.201 176.116,88.074 176.006,86.306 175.150 C 78.927 171.578,77.432 164.237,82.616 157.029 C 82.713 156.895,77.775 138.928,71.643 117.104 L 60.494 77.423 46.439 77.364 C 35.272 77.318,32.382 77.364,32.377 77.592 M75.478 77.594 C 75.474 77.751,80.323 95.176,86.253 116.317 L 97.035 154.755 98.570 155.827 C 103.229 159.083,104.669 164.403,102.294 169.591 C 101.973 170.291,101.712 171.032,101.715 171.236 C 101.720 171.671,103.649 178.525,103.812 178.688 C 103.873 178.749,106.746 178.771,110.196 178.738 L 116.471 178.677 109.320 152.223 C 105.388 137.674,102.169 125.693,102.168 125.599 C 102.167 125.505,106.989 125.428,112.882 125.428 L 123.598 125.428 124.489 123.660 C 125.534 121.587,127.797 118.094,129.250 116.310 L 130.276 115.051 114.702 114.937 L 99.128 114.823 95.787 102.395 L 92.447 89.966 185.790 89.909 C 237.129 89.877,279.130 89.826,279.127 89.794 C 279.123 89.763,278.372 86.967,277.457 83.580 L 275.795 77.423 175.640 77.366 C 95.592 77.320,75.483 77.366,75.478 77.594 M164.310 101.512 C 130.087 105.811,112.159 142.315,130.518 170.324 C 144.867 192.216,176.977 198.380,198.088 183.296 C 200.104 181.855,200.083 182.577,198.302 175.973 C 196.565 169.532,196.935 170.089,195.298 171.457 C 180.079 184.170,155.723 180.481,144.549 163.770 C 135.644 150.453,137.457 135.175,149.373 123.124 C 157.423 114.982,170.614 111.295,180.649 114.381 C 180.956 114.476,180.726 113.316,179.395 108.047 L 177.765 101.596 176.511 101.448 C 174.691 101.232,166.181 101.278,164.310 101.512 M221.665 119.768 C 221.665 120.213,234.454 167.198,234.844 168.185 C 235.861 170.758,237.519 172.468,239.753 173.248 C 241.527 173.867,256.052 173.874,257.181 173.256 C 259.523 171.977,259.666 172.794,252.367 145.822 C 248.908 133.037,245.897 121.884,245.677 121.038 L 245.276 119.498 241.994 119.498 L 238.712 119.498 238.838 120.125 C 238.908 120.470,241.845 131.213,245.366 143.997 C 252.041 168.235,251.935 167.815,251.494 168.255 C 251.004 168.745,246.674 168.619,246.206 168.102 C 245.977 167.848,243.270 158.382,239.539 144.784 C 236.084 132.194,233.105 121.354,232.918 120.696 L 232.579 119.498 227.122 119.498 C 223.080 119.498,221.665 119.568,221.665 119.768 M249.973 121.152 C 250.222 122.061,253.576 134.247,257.427 148.233 L 264.429 173.660 267.790 173.723 C 269.639 173.758,271.152 173.721,271.152 173.641 C 271.152 173.560,269.246 166.569,266.917 158.105 C 264.588 149.640,262.716 142.681,262.756 142.641 C 262.797 142.600,266.567 149.588,271.133 158.170 L 279.435 173.774 285.001 173.774 C 290.196 173.774,290.559 173.748,290.446 173.375 C 290.380 173.156,287.086 161.123,283.126 146.636 C 279.166 132.149,275.871 120.117,275.804 119.897 C 275.696 119.543,275.337 119.498,272.603 119.498 C 269.777 119.498,269.535 119.531,269.647 119.897 C 269.714 120.117,271.470 126.454,273.549 133.979 C 275.628 141.505,277.426 147.970,277.544 148.347 C 277.937 149.597,277.274 148.479,268.935 133.832 L 260.775 119.501 255.148 119.500 L 249.522 119.498 249.973 121.152 M280.039 119.669 C 280.035 119.763,283.392 131.975,287.498 146.807 L 294.963 173.774 299.237 173.774 L 303.510 173.774 303.193 172.691 C 303.019 172.095,299.684 160.063,295.782 145.952 C 291.880 131.842,288.635 120.117,288.570 119.897 C 288.447 119.478,280.055 119.254,280.039 119.669 M300.000 119.648 C 293.774 120.389,293.861 123.565,300.771 147.777 C 306.685 168.501,307.781 171.263,310.795 173.035 L 311.859 173.660 319.327 173.729 C 329.125 173.819,330.165 173.602,331.384 171.213 C 332.483 169.059,332.327 168.319,325.827 144.698 C 318.863 119.392,319.596 121.508,317.394 120.384 C 315.942 119.643,304.210 119.147,300.000 119.648 M322.823 120.582 C 322.994 121.177,326.218 132.851,329.988 146.522 C 333.758 160.194,336.997 171.918,337.185 172.577 L 337.527 173.774 340.827 173.774 C 342.643 173.774,344.128 173.692,344.128 173.593 C 344.128 173.493,342.228 166.498,339.907 158.049 C 337.585 149.600,335.718 142.655,335.757 142.616 C 335.797 142.576,339.569 149.568,344.140 158.153 L 352.452 173.761 358.008 173.768 C 363.191 173.774,363.558 173.747,363.458 173.375 C 359.762 159.620,348.821 119.789,348.704 119.662 C 348.613 119.565,347.208 119.513,345.582 119.548 L 342.627 119.612 346.671 134.201 C 348.896 142.225,350.687 148.819,350.651 148.855 C 350.615 148.891,346.812 142.300,342.200 134.209 L 333.814 119.498 328.163 119.498 L 322.513 119.498 322.823 120.582 M177.480 120.340 C 177.700 120.397,178.059 120.397,178.278 120.340 C 178.498 120.282,178.318 120.235,177.879 120.235 C 177.440 120.235,177.261 120.282,177.480 120.340 M312.215 125.200 C 312.303 125.513,314.447 133.312,316.979 142.531 C 319.511 151.750,322.091 161.118,322.711 163.349 C 324.004 167.997,323.990 168.181,322.326 168.430 C 318.958 168.935,317.474 167.886,316.340 164.196 C 314.221 157.304,307.845 133.535,306.736 128.392 C 306.479 127.201,306.218 126.002,306.156 125.729 C 305.846 124.366,311.833 123.842,312.215 125.200 M165.678 125.511 C 164.655 127.071,166.157 127.936,169.886 127.936 L 172.634 127.936 172.634 127.366 L 172.634 126.796 169.914 126.796 C 166.956 126.796,166.477 126.619,166.477 125.525 C 166.477 124.822,166.133 124.816,165.678 125.511 M154.390 125.441 C 154.390 125.574,154.287 125.619,154.162 125.542 C 153.870 125.361,153.872 125.691,154.168 126.471 C 154.505 127.356,154.259 127.430,153.475 126.680 C 152.771 126.005,152.621 126.048,153.028 126.808 C 153.241 127.206,153.210 127.226,152.686 127.026 C 151.974 126.756,151.956 126.941,152.623 127.668 L 153.136 128.227 152.503 128.112 C 151.565 127.942,151.514 128.333,152.419 128.765 C 153.204 129.139,153.222 129.135,154.939 128.254 C 156.947 127.223,156.916 127.297,155.846 126.112 C 155.055 125.237,154.390 124.931,154.390 125.441 M153.570 140.390 C 153.684 140.688,153.602 140.730,153.138 140.614 C 152.466 140.445,152.415 140.619,152.961 141.223 C 153.347 141.648,153.334 141.656,152.505 141.500 C 151.533 141.318,151.383 141.603,152.166 142.150 L 152.680 142.507 152.052 142.519 C 151.293 142.534,151.241 142.829,151.938 143.165 C 152.328 143.353,152.359 143.416,152.066 143.428 C 151.343 143.457,151.421 143.860,152.250 144.372 C 152.933 144.794,153.110 144.827,153.261 144.563 C 153.362 144.386,153.909 143.523,154.476 142.645 L 155.508 141.049 154.664 140.537 C 153.663 139.930,153.379 139.892,153.570 140.390 M88.787 157.763 C 80.466 160.734,82.583 172.292,91.448 172.292 C 101.738 172.292,102.070 157.872,91.790 157.422 C 90.434 157.363,89.663 157.451,88.787 157.763 M157.469 165.336 C 157.549 165.467,157.336 165.570,156.969 165.576 L 156.328 165.588 156.842 165.946 C 157.558 166.446,157.481 166.703,156.613 166.714 L 155.872 166.723 156.499 167.063 C 157.293 167.494,157.286 167.547,156.385 167.936 L 155.644 168.257 156.385 168.422 C 157.235 168.610,157.281 168.704,156.727 169.124 C 156.364 169.400,156.383 169.427,156.939 169.434 C 157.592 169.442,157.511 169.654,158.188 166.163 C 158.270 165.741,158.205 165.438,158.006 165.311 C 157.585 165.045,157.297 165.058,157.469 165.336 M176.336 170.823 L 175.591 171.494 176.191 171.494 C 176.785 171.494,176.787 171.500,176.404 172.085 C 176.021 172.670,176.023 172.675,176.548 172.511 L 177.081 172.345 176.625 172.867 L 176.169 173.388 176.913 173.244 L 177.658 173.100 177.299 173.793 L 176.941 174.486 177.558 174.082 L 178.175 173.677 177.887 174.216 C 177.625 174.706,177.637 174.739,178.024 174.581 C 178.258 174.485,178.638 174.353,178.868 174.287 C 179.098 174.221,179.200 174.104,179.096 174.028 C 178.991 173.951,178.495 173.047,177.993 172.020 L 177.081 170.152 176.336 170.823 " stroke="none" fill="#e3041c" fill-rule="evenodd"></path><path id="path4" d="M169.507 101.195 C 170.232 101.240,171.361 101.240,172.015 101.194 C 172.669 101.148,172.075 101.111,170.696 101.112 C 169.316 101.112,168.781 101.150,169.507 101.195 M136.253 114.994 L 134.892 116.420 136.317 115.058 C 137.101 114.310,137.742 113.668,137.742 113.633 C 137.742 113.465,137.517 113.670,136.253 114.994 M299.487 119.655 C 299.706 119.713,300.066 119.713,300.285 119.655 C 300.505 119.598,300.325 119.551,299.886 119.551 C 299.447 119.551,299.267 119.598,299.487 119.655 M313.743 119.660 C 314.026 119.714,314.437 119.712,314.655 119.655 C 314.873 119.598,314.641 119.553,314.139 119.556 C 313.637 119.558,313.459 119.605,313.743 119.660 M171.722 121.867 C 171.722 121.915,172.024 121.999,172.394 122.054 C 172.764 122.108,173.014 122.068,172.951 121.966 C 172.838 121.783,171.722 121.693,171.722 121.867 M295.172 124.629 C 295.173 125.507,295.214 125.839,295.263 125.365 C 295.313 124.892,295.312 124.174,295.262 123.769 C 295.211 123.364,295.171 123.751,295.172 124.629 M307.359 124.681 C 307.769 124.731,308.384 124.730,308.727 124.678 C 309.070 124.626,308.734 124.585,307.982 124.586 C 307.229 124.587,306.949 124.630,307.359 124.681 M107.484 125.598 C 110.472 125.634,115.295 125.634,118.203 125.598 C 121.110 125.562,118.666 125.533,112.771 125.533 C 106.876 125.533,104.497 125.562,107.484 125.598 M168.358 128.102 C 168.828 128.151,169.598 128.151,170.068 128.102 C 170.539 128.053,170.154 128.013,169.213 128.013 C 168.273 128.013,167.888 128.053,168.358 128.102 M138.959 146.180 C 138.959 147.121,138.999 147.506,139.049 147.035 C 139.098 146.565,139.098 145.795,139.049 145.325 C 138.999 144.855,138.959 145.239,138.959 146.180 M216.705 163.213 C 216.924 163.270,217.283 163.270,217.503 163.213 C 217.722 163.156,217.543 163.109,217.104 163.109 C 216.665 163.109,216.485 163.156,216.705 163.213 M103.369 164.652 C 103.369 165.217,103.413 165.448,103.468 165.165 C 103.522 164.883,103.522 164.421,103.468 164.139 C 103.413 163.857,103.369 164.088,103.369 164.652 M331.886 168.529 C 331.886 169.344,331.927 169.678,331.978 169.270 C 332.029 168.863,332.029 168.196,331.978 167.788 C 331.927 167.380,331.886 167.714,331.886 168.529 M320.353 168.466 C 320.761 168.517,321.428 168.517,321.836 168.466 C 322.243 168.415,321.910 168.374,321.095 168.374 C 320.279 168.374,319.946 168.415,320.353 168.466 " stroke="none" fill="#f09197" fill-rule="evenodd"></path></g></svg>